<svg width="34" height="34" viewBox="0 0 34 34" fill="none" xmlns="http://www.w3.org/2000/svg">
<mask id="mask0_1824_11864" style="mask-type:alpha" maskUnits="userSpaceOnUse" x="0" y="0" width="34" height="34">
<rect width="34" height="34" fill="#D9D9D9"/>
</mask>
<g mask="url(#mask0_1824_11864)">
<path d="M14.6744 17.6216L12.7696 15.7523C12.4762 15.4586 12.1415 15.3118 11.7656 15.3118C11.3899 15.3118 11.0552 15.4586 10.7615 15.7523C10.468 16.0458 10.3227 16.3864 10.3255 16.7741C10.3284 17.1616 10.4765 17.502 10.77 17.7955L13.6451 20.6707C13.9464 20.9698 14.2901 21.1194 14.6761 21.1194C15.0619 21.1194 15.4045 20.9698 15.7039 20.6707L22.1997 14.1745C22.4934 13.881 22.6403 13.542 22.6403 13.1574C22.6403 12.7725 22.4934 12.4333 22.1997 12.1398C21.9062 11.8461 21.5715 11.6993 21.1956 11.6993C20.82 11.6993 20.4854 11.8461 20.1919 12.1398L14.6744 17.6216ZM16.5061 30.3185C14.5957 30.3185 12.7973 29.957 11.1107 29.2341C9.42395 28.5111 7.94825 27.5174 6.68364 26.253C5.41927 24.9884 4.42559 23.5127 3.70262 21.8259C2.97965 20.1394 2.61816 18.3409 2.61816 16.4306C2.61816 14.4966 2.97965 12.6922 3.70262 11.0175C4.42559 9.34251 5.41927 7.87272 6.68364 6.60811C7.94825 5.34374 9.42395 4.35006 11.1107 3.62709C12.7973 2.90412 14.5957 2.54263 16.5061 2.54263C18.4401 2.54263 20.2444 2.90412 21.9192 3.62709C23.5942 4.35006 25.064 5.34374 26.3286 6.60811C27.5929 7.87272 28.5866 9.34251 29.3096 11.0175C30.0326 12.6922 30.394 14.4966 30.394 16.4306C30.394 18.3409 30.0326 20.1394 29.3096 21.8259C28.5866 23.5127 27.5929 24.9884 26.3286 26.253C25.064 27.5174 23.5942 28.5111 21.9192 29.2341C20.2444 29.957 18.4401 30.3185 16.5061 30.3185ZM16.5061 27.3789C19.5529 27.3789 22.1394 26.316 24.2655 24.19C26.3915 22.0638 27.4545 19.4774 27.4545 16.4306C27.4545 13.3838 26.3915 10.7973 24.2655 8.67113C22.1394 6.54519 19.5529 5.48222 16.5061 5.48222C13.4593 5.48222 10.8728 6.54519 8.74666 8.67113C6.62072 10.7973 5.55775 13.3838 5.55775 16.4306C5.55775 19.4774 6.62072 22.0638 8.74666 24.19C10.8728 26.316 13.4593 27.3789 16.5061 27.3789Z" fill="#F0A900"/>
</g>
</svg>
