<svg width="16" height="16" viewBox="0 0 16 16" fill="none" xmlns="http://www.w3.org/2000/svg">
<path d="M6.5 11.5H9.5C9.78333 11.5 10.0208 11.4042 10.2125 11.2125C10.4042 11.0208 10.5 10.7833 10.5 10.5V9H9V10H7V6H9V7H10.5V5.5C10.5 5.21667 10.4042 4.97917 10.2125 4.7875C10.0208 4.59583 9.78333 4.5 9.5 4.5H6.5C6.21667 4.5 5.97917 4.59583 5.7875 4.7875C5.59583 4.97917 5.5 5.21667 5.5 5.5V10.5C5.5 10.7833 5.59583 11.0208 5.7875 11.2125C5.97917 11.4042 6.21667 11.5 6.5 11.5ZM8.00575 16C6.9047 16 5.86806 15.7917 4.89583 15.375C3.92361 14.9583 3.07292 14.3854 2.34375 13.6562C1.61458 12.9271 1.04167 12.0767 0.625 11.105C0.208333 10.1334 0 9.09519 0 7.99046C0 6.88571 0.208333 5.85069 0.625 4.88542C1.04167 3.92014 1.61458 3.07292 2.34375 2.34375C3.07292 1.61458 3.92332 1.04167 4.89496 0.625C5.86661 0.208333 6.90481 0 8.00954 0C9.11429 0 10.1493 0.208333 11.1146 0.625C12.0799 1.04167 12.9271 1.61458 13.6562 2.34375C14.3854 3.07292 14.9583 3.92169 15.375 4.89008C15.7917 5.85849 16 6.89321 16 7.99425C16 9.09531 15.7917 10.1319 15.375 11.1042C14.9583 12.0764 14.3854 12.9271 13.6562 13.6562C12.9271 14.3854 12.0783 14.9583 11.1099 15.375C10.1415 15.7917 9.10679 16 8.00575 16ZM8 14.5C9.80556 14.5 11.3403 13.8681 12.6042 12.6042C13.8681 11.3403 14.5 9.80556 14.5 8C14.5 6.19444 13.8681 4.65972 12.6042 3.39583C11.3403 2.13194 9.80556 1.5 8 1.5C6.19444 1.5 4.65972 2.13194 3.39583 3.39583C2.13194 4.65972 1.5 6.19444 1.5 8C1.5 9.80556 2.13194 11.3403 3.39583 12.6042C4.65972 13.8681 6.19444 14.5 8 14.5Z" fill="#F0A900"/>
</svg>
