<?xml version="1.0" encoding="UTF-8"?>
<svg id="Layer_1" data-name="Layer 1" xmlns="http://www.w3.org/2000/svg" viewBox="0 0 24 24">
  <defs>
    <style>
      .cls-1 {
        fill: #ccc;
      }
    </style>
  </defs>
  <path class="cls-1" d="m16.79,2.3H7.21c-2.71,0-4.91,2.2-4.91,4.91v9.58c0,2.71,2.2,4.91,4.91,4.91h6.29s0,0,0,0h3.29c2.71,0,4.91-2.2,4.91-4.91V7.21c0-2.71-2.2-4.91-4.91-4.91Zm3.27,14.49c0,1.8-1.47,3.27-3.27,3.27h-3.29v-5.29h2.23l.42-2.77h-2.66v-1.8c0-.76.37-1.5,1.56-1.5h1.21v-2.36s-1.1-.19-2.15-.19c-2.19,0-3.62,1.33-3.62,3.73v2.11h-2.43v2.77h2.43v5.29h-3.29c-1.8,0-3.27-1.47-3.27-3.27V7.21c0-1.8,1.47-3.27,3.27-3.27h9.58c1.8,0,3.27,1.47,3.27,3.27v9.58Z"/>
</svg>