<?xml version="1.0" encoding="UTF-8"?>
<svg id="Layer_1" data-name="Layer 1" xmlns="http://www.w3.org/2000/svg" viewBox="0 0 24 24">
  <defs>
    <style>
      .cls-1 {
        fill: #fff;
      }

      .cls-2 {
        fill: #0080ff;
      }
    </style>
  </defs>
  <path class="cls-2" d="m16.79,21.7h-3.29l-1.5-.5-1.49.5h-3.3c-2.71,0-4.91-2.2-4.91-4.91V7.21c0-2.71,2.2-4.91,4.91-4.91h9.58c2.71,0,4.91,2.2,4.91,4.91v9.58c0,2.71-2.2,4.91-4.91,4.91Z"/>
  <path class="cls-1" d="m10.5,9.89v2.11h-2.43v2.77h2.43v6.93h2.99v-6.93h2.23l.42-2.77h-2.66v-1.8c0-.76.37-1.5,1.56-1.5h1.21v-2.36s-1.1-.19-2.15-.19c-2.19,0-3.62,1.33-3.62,3.73Z"/>
</svg>