<?xml version="1.0" encoding="UTF-8"?>
<svg id="Layer_1" data-name="Layer 1" xmlns="http://www.w3.org/2000/svg" viewBox="0 0 24 24">
  <defs>
    <style>
      .cls-1 {
        fill: #ccc;
      }
    </style>
  </defs>
  <path class="cls-1" d="m16.9,6.05c-.6,0-1.09.49-1.09,1.09s.49,1.09,1.09,1.09,1.09-.49,1.09-1.09-.49-1.09-1.09-1.09Z"/>
  <path class="cls-1" d="m12.08,7.44c-2.51,0-4.56,2.04-4.56,4.56s2.05,4.56,4.56,4.56,4.56-2.05,4.56-4.56-2.05-4.56-4.56-4.56Zm0,7.48c-1.61,0-2.92-1.31-2.92-2.92s1.31-2.92,2.92-2.92,2.92,1.31,2.92,2.92-1.31,2.92-2.92,2.92Z"/>
  <path class="cls-1" d="m15.7,21.26h-7.39c-3.07,0-5.56-2.49-5.56-5.56v-7.39c0-3.07,2.49-5.56,5.56-5.56h7.39c3.07,0,5.56,2.49,5.56,5.56v7.39c0,3.07-2.49,5.56-5.56,5.56ZM8.3,4.49c-2.11,0-3.82,1.71-3.82,3.82v7.39c0,2.11,1.71,3.82,3.82,3.82h7.39c2.11,0,3.82-1.71,3.82-3.82v-7.39c0-2.11-1.71-3.82-3.82-3.82h-7.39Z"/>
</svg>