<?xml version="1.0" encoding="UTF-8"?>
<svg id="Layer_1" data-name="Layer 1" xmlns="http://www.w3.org/2000/svg" viewBox="0 0 24 24">
  <defs>
    <style>
      .cls-1 {
        fill: #ccc;
      }
    </style>
  </defs>
  <path class="cls-1" d="m16.94,2H7.06c-2.8,0-5.06,2.27-5.06,5.06v9.87c0,2.8,2.27,5.06,5.06,5.06h9.87c2.8,0,5.06-2.27,5.06-5.06V7.06c0-2.8-2.27-5.06-5.06-5.06Zm3.42,14.94c0,1.88-1.53,3.42-3.42,3.42H7.06c-1.88,0-3.42-1.53-3.42-3.42V7.06c0-1.88,1.53-3.42,3.42-3.42h9.87c1.88,0,3.42,1.53,3.42,3.42v9.87Z"/>
  <path class="cls-1" d="m15.41,8.42h-7.05c-1.04,0-1.88.84-1.88,1.88v3.81c0,1.04.84,1.88,1.88,1.88h7.05c1.04,0,1.88-.84,1.88-1.88v-3.81c0-1.04-.84-1.88-1.88-1.88Zm-1.69,3.99l-2.72,1.35c-.11.06-.47-.02-.47-.14v-2.76c0-.12.37-.2.47-.14l2.6,1.42c.11.06.22.22.11.28Z"/>
</svg>