<?xml version="1.0" encoding="UTF-8"?>
<svg id="Layer_1" data-name="Layer 1" xmlns="http://www.w3.org/2000/svg" viewBox="0 0 24 24">
  <defs>
    <style>
      .cls-1 {
        fill: #ccc;
      }
    </style>
  </defs>
  <path class="cls-1" d="m18.33,20.93H5.71c-1.49,0-2.7-1.27-2.7-2.84V5.84c0-1.57,1.21-2.84,2.7-2.84h12.63c1.49,0,2.7,1.27,2.7,2.84v12.25c0,1.57-1.22,2.84-2.7,2.84ZM5.71,3.42c-1.27,0-2.3,1.09-2.3,2.42v12.25c0,1.33,1.03,2.42,2.3,2.42h12.63c1.27,0,2.3-1.09,2.3-2.42V5.84c0-1.33-1.03-2.42-2.3-2.42H5.71Z"/>
  <path class="cls-1" d="m8.45,21.03c-1.08,0-2.16.04-3.24,0-1.27-.05-2.25-1.17-2.25-2.52,0-4.32,0-8.65,0-12.97,0-1.49,1.09-2.52,2.36-2.54,1.33-.04,2.66,0,3.98,0,.03,0,.05,0,.07.03,0,.07-.08.08-.13.11-.77.49-1.48,1.07-2.08,1.78-.99,1.17-1.68,2.53-1.91,4.1-.41,2.78.41,5.13,2.28,7.09.33.35.37.62.11,1.1-.32.57-.8.95-1.32,1.31-.06.04-.11.07-.16.12-.08.07-.03.12.04.14.02.04.03.08.06.11.45.43.88.87,1.33,1.31.21.2.41.41.62.62.08.07.21.1.24.24Z"/>
  <path class="cls-1" d="m8.45,21.02c-.02-.14-.16-.17-.24-.26-.2-.21-.41-.42-.62-.62-.45-.43-.87-.88-1.33-1.31-.03-.03-.04-.07-.06-.11,1.01.2,1.99.06,2.96-.25.33-.11.65-.2.98-.29.23-.06.45-.05.68.03,2.5.91,4.97.83,7.4-.3,1-.46,1.89-1.1,2.66-1.91.04-.04.07-.1.14-.11.03.06.02.12.02.18v2.42c0,1.4-1.05,2.52-2.39,2.53-1.42,0-2.84,0-4.26,0h-5.7c-.08.02-.16,0-.24,0Z"/>
  <path class="cls-1" d="m9.06,11.75h1.71c.31,0,.48.14.51.4.03.33-.14.54-.48.55-.64,0-1.28,0-1.91,0-.19,0-.37,0-.55,0-.23-.02-.45-.06-.56-.31-.11-.25-.03-.47.12-.68.61-.82,1.22-1.63,1.83-2.44.03-.04.07-.1.11-.14-.03-.07-.09-.04-.14-.04h-1.28c-.1,0-.19,0-.29-.04-.19-.05-.32-.22-.32-.42s.12-.36.31-.43c.09-.03.19-.04.29-.04h2.11c.13,0,.25,0,.37.04.26.1.38.36.28.63-.09.24-.25.44-.4.64-.52.69-1.03,1.38-1.55,2.06-.05.04-.08.1-.15.19Z"/>
  <path class="cls-1" d="m13.63,9.57c.09-.12.19-.25.36-.28.31-.06.6.14.61.48,0,.83,0,1.66,0,2.48,0,.22-.14.4-.33.47-.2.07-.41.02-.55-.16-.07-.09-.09-.11-.19-.03-.36.3-.76.36-1.2.21-.7-.24-.99-.82-1.07-1.52-.08-.76.16-1.41.8-1.81.53-.33,1.08-.3,1.57.15Zm-1.39,1.51c0,.14.05.34.17.5.25.36.78.36,1.03,0,.22-.31.22-.84,0-1.15-.12-.17-.27-.25-.47-.27-.44-.02-.75.33-.74.92Z"/>
  <path class="cls-1" d="m16.37,11.11c-.03-1.07.64-1.86,1.58-1.89,1.01-.04,1.74.68,1.77,1.71.03,1.05-.58,1.79-1.52,1.89-1.02.11-1.85-.68-1.83-1.71Zm.99-.11c0,.21.04.41.17.58.25.36.77.36,1.02,0,.23-.31.23-.85,0-1.17-.12-.17-.27-.25-.47-.26-.42-.02-.73.32-.73.84Z"/>
  <path class="cls-1" d="m16.02,10.29v1.92c0,.36-.31.61-.64.52-.2-.05-.35-.28-.35-.53v-3.87c0-.32.19-.52.49-.52s.5.2.5.53c0,.65,0,1.3,0,1.95Z"/>
</svg>