<?xml version="1.0" encoding="UTF-8"?>
<svg id="Layer_1" data-name="Layer 1" xmlns="http://www.w3.org/2000/svg" xmlns:xlink="http://www.w3.org/1999/xlink" viewBox="0 0 24 24">
  <defs>
    <style>
      .cls-1 {
        fill: #fff;
      }

      .cls-2 {
        fill: url(#linear-gradient);
      }
    </style>
    <linearGradient id="linear-gradient" x1="20.07" y1="-37.93" x2="3.93" y2="-54.07" gradientTransform="translate(0 -34) scale(1 -1)" gradientUnits="userSpaceOnUse">
      <stop offset="0" stop-color="#0cf"/>
      <stop offset="1" stop-color="#0080ff"/>
    </linearGradient>
  </defs>
  <path class="cls-2" d="m2.46,16.55V7.45c0-2.74,2.25-4.99,4.99-4.99h9.09c2.74,0,4.99,2.25,4.99,4.99v9.09c0,2.74-2.25,4.99-4.99,4.99H7.45c-2.74,0-4.99-2.25-4.99-4.99Z"/>
  <g>
    <path class="cls-1" d="m16.45,18.28H7.57c-1.05,0-1.9-.9-1.9-2V7.66c0-1.1.85-2,1.9-2h8.88c1.05,0,1.9.9,1.9,2v8.62c0,1.1-.86,2-1.9,2ZM7.57,5.96c-.89,0-1.62.76-1.62,1.7v8.62c0,.94.73,1.7,1.62,1.7h8.88c.89,0,1.62-.76,1.62-1.7V7.66c0-.94-.73-1.7-1.62-1.7H7.57Z"/>
    <path class="cls-1" d="m9.5,18.35c-.76,0-1.52.03-2.28,0-.89-.04-1.58-.83-1.58-1.77,0-3.04,0-6.08,0-9.13,0-1.05.77-1.77,1.66-1.79.94-.03,1.87,0,2.8,0,.02,0,.04,0,.05.02,0,.05-.05.06-.09.08-.54.34-1.04.75-1.47,1.25-.7.83-1.18,1.78-1.34,2.89-.29,1.95.29,3.61,1.6,4.99.23.24.26.44.08.78-.23.4-.57.67-.93.92-.04.03-.08.05-.11.08-.06.05-.02.08.03.1.01.03.02.06.04.08.32.3.62.61.94.92.15.14.29.29.43.44.05.05.15.07.17.17Z"/>
    <path class="cls-1" d="m9.5,18.35c-.01-.1-.11-.12-.17-.18-.14-.15-.29-.29-.43-.44-.32-.3-.61-.62-.94-.92-.02-.02-.03-.05-.04-.08.71.14,1.4.04,2.08-.18.23-.08.46-.14.69-.21.16-.04.32-.04.48.02,1.76.64,3.5.58,5.21-.21.7-.33,1.33-.78,1.87-1.35.03-.03.05-.07.1-.08.02.04.01.09.01.13v1.7c0,.98-.74,1.77-1.68,1.78-1,0-2,0-3,0h-4.01c-.06.01-.11,0-.17,0Z"/>
    <path class="cls-1" d="m9.93,11.83h1.2c.22,0,.34.1.36.28.02.23-.1.38-.34.39-.45,0-.9,0-1.35,0-.13,0-.26,0-.39,0-.16-.01-.32-.04-.39-.22-.08-.18-.02-.33.08-.48.43-.58.86-1.15,1.29-1.72.02-.03.05-.07.08-.1-.02-.05-.07-.03-.1-.03h-.9c-.07,0-.14,0-.2-.03-.14-.04-.23-.16-.23-.29s.08-.26.22-.3c.07-.02.14-.03.2-.03h1.48c.09,0,.17,0,.26.03.18.07.27.25.2.44-.07.17-.17.31-.28.45-.36.48-.73.97-1.09,1.45-.04.03-.06.07-.11.13Z"/>
    <path class="cls-1" d="m13.15,10.29c.07-.09.14-.18.25-.2.22-.04.42.1.43.34,0,.58,0,1.16,0,1.75,0,.16-.1.28-.23.33-.14.05-.29.01-.39-.11-.05-.06-.07-.08-.13-.02-.25.21-.54.25-.85.15-.49-.17-.7-.58-.75-1.07-.06-.53.11-.99.57-1.27.38-.23.76-.21,1.1.11Zm-.98,1.06c0,.1.04.24.12.35.18.26.55.26.73,0,.15-.22.15-.59,0-.81-.08-.12-.19-.18-.33-.19-.31-.01-.52.23-.52.64Z"/>
    <path class="cls-1" d="m15.07,11.38c-.02-.75.45-1.31,1.11-1.33.71-.03,1.23.48,1.25,1.2.02.74-.41,1.26-1.07,1.33-.72.08-1.3-.48-1.29-1.2Zm.7-.08c0,.15.03.29.12.41.17.25.54.25.72,0,.16-.22.16-.59,0-.82-.08-.12-.19-.18-.33-.18-.3-.01-.51.23-.51.59Z"/>
    <path class="cls-1" d="m14.83,10.79v1.35c0,.26-.22.43-.45.37-.14-.04-.24-.19-.24-.38v-2.72c0-.23.14-.37.35-.37s.35.14.35.38c0,.46,0,.91,0,1.37Z"/>
  </g>
</svg>