<?xml version="1.0" encoding="utf-8"?>
<!-- Generator: Adobe Illustrator 27.1.0, SVG Export Plug-In . SVG Version: 6.00 Build 0)  -->
<svg version="1.1" id="Layer_1" xmlns="http://www.w3.org/2000/svg" xmlns:xlink="http://www.w3.org/1999/xlink" x="0px" y="0px"
	 viewBox="0 0 200 120" style="enable-background:new 0 0 200 120;" xml:space="preserve">
<style type="text/css">
	.st0{fill:#FFFFFF;}
	.st1{fill:#231F20;}
	.st2{fill:#AD5726;}
</style>
<g>
	<g>
		<polygon class="st0" points="51.6,107.35 52.56,107.35 52.56,110.91 53.18,110.91 53.18,107.35 54.14,107.35 54.14,106.76 
			51.6,106.76 		"/>
		<path class="st0" d="M59.5,110.91h0.68l0.46-1.01h1.78l0.44,1.01h0.69l-1.98-4.41L59.5,110.91z M60.9,109.32l0.65-1.41l0.62,1.41
			H60.9z"/>
		<path class="st0" d="M71.35,107.27c0.49,0,0.9,0.23,1.25,0.68l0.45-0.43c-0.26-0.3-0.52-0.51-0.79-0.65
			c-0.28-0.13-0.58-0.2-0.91-0.2c-0.6,0-1.12,0.21-1.54,0.63c-0.42,0.42-0.63,0.93-0.63,1.53c0,0.59,0.21,1.1,0.62,1.52
			c0.41,0.42,0.91,0.63,1.49,0.63c0.6,0,1.09-0.22,1.47-0.65c0.17-0.19,0.29-0.4,0.36-0.62c0.07-0.24,0.11-0.52,0.11-0.83v-0.14
			h-1.72v0.59h1.04c-0.03,0.29-0.17,0.54-0.41,0.75c-0.25,0.21-0.52,0.31-0.83,0.31c-0.36,0-0.7-0.14-1.01-0.42
			c-0.33-0.3-0.5-0.68-0.5-1.14c0-0.45,0.15-0.82,0.45-1.12C70.55,107.42,70.92,107.27,71.35,107.27z"/>
		<polygon class="st0" points="80.4,106.76 80.4,110.91 82.25,110.91 82.25,110.33 81.03,110.33 81.03,106.76 		"/>
		<rect x="88.35" y="106.76" class="st0" width="0.63" height="4.15"/>
		<polygon class="st0" points="99.14,111.17 99.14,106.76 98.51,106.76 98.51,109.65 95.49,106.48 95.49,110.91 96.11,110.91 
			96.11,108.01 		"/>
		<polygon class="st0" points="107.94,107.35 107.94,106.76 105.65,106.76 105.65,110.91 107.94,110.91 107.94,110.33 
			106.27,110.33 106.27,108.94 107.89,108.94 107.89,108.35 106.27,108.35 106.27,107.35 		"/>
		<polygon class="st0" points="122.15,110.91 122.15,106.76 121.52,106.76 121.52,108.39 119.73,108.39 119.73,106.76 
			119.11,106.76 119.11,110.91 119.73,110.91 119.73,108.98 121.52,108.98 121.52,110.91 		"/>
		<polygon class="st0" points="130.95,107.35 130.95,106.76 128.66,106.76 128.66,110.91 130.95,110.91 130.95,110.33 
			129.28,110.33 129.28,108.94 130.9,108.94 130.9,108.35 129.28,108.35 129.28,107.35 		"/>
		<path class="st0" d="M139.61,107.98c0-0.38-0.13-0.68-0.4-0.91c-0.24-0.21-0.64-0.31-1.19-0.31h-0.73v4.15h0.63v-1.7h0.11
			l1.19,1.7h0.77l-1.29-1.77c0.28-0.06,0.5-0.19,0.67-0.41C139.52,108.53,139.61,108.27,139.61,107.98z M138.11,108.67h-0.2v-1.32
			h0.22c0.58,0,0.87,0.21,0.87,0.64C139,108.44,138.7,108.67,138.11,108.67z"/>
		<polygon class="st0" points="146.11,110.91 148.4,110.91 148.4,110.33 146.73,110.33 146.73,108.94 148.35,108.94 148.35,108.35 
			146.73,108.35 146.73,107.35 148.4,107.35 148.4,106.76 146.11,106.76 		"/>
		<path class="st0" d="M46.78,99.31c-0.21,0.27-0.45,0.52-0.72,0.73c-0.27,0.21-0.6,0.37-0.97,0.49c-0.37,0.12-0.78,0.19-1.22,0.19
			c-0.59,0-1.13-0.12-1.61-0.35c-0.48-0.23-0.89-0.56-1.24-0.97c-0.35-0.42-0.62-0.91-0.81-1.46c-0.19-0.55-0.28-1.16-0.28-1.83
			c0-0.75,0.09-1.43,0.27-2.04c0.18-0.61,0.43-1.11,0.75-1.51c0.33-0.41,0.73-0.72,1.19-0.93c0.46-0.21,0.95-0.32,1.48-0.32
			c0.47,0,0.88,0.09,1.24,0.28c0.36,0.19,0.67,0.45,0.94,0.78c0.24,0.29,0.44,0.65,0.62,1.07c0.18,0.42,0.31,0.81,0.39,1.18h0.67
			l-0.07-3.71h-0.66l-0.34,0.5c-0.42-0.23-0.87-0.41-1.33-0.53c-0.47-0.13-0.99-0.19-1.56-0.19c-0.77,0-1.5,0.13-2.18,0.4
			s-1.27,0.64-1.77,1.12c-0.5,0.49-0.9,1.07-1.18,1.75c-0.28,0.68-0.43,1.43-0.43,2.26c0,0.83,0.14,1.58,0.44,2.24
			c0.29,0.66,0.68,1.22,1.17,1.68c0.49,0.46,1.06,0.81,1.7,1.06c0.64,0.24,1.31,0.37,2,0.37c1.07,0,2-0.22,2.78-0.66
			c0.78-0.44,1.4-1.18,1.87-2.21l-0.62-0.26C47.16,98.73,46.99,99.03,46.78,99.31z"/>
		<path class="st0" d="M66.3,98.36c0.3-0.67,0.44-1.42,0.44-2.25c0-0.82-0.15-1.57-0.44-2.24c-0.29-0.68-0.69-1.25-1.21-1.73
			c-0.5-0.47-1.09-0.83-1.78-1.09c-0.69-0.26-1.42-0.39-2.19-0.39c-0.75,0-1.46,0.13-2.14,0.38c-0.68,0.25-1.28,0.62-1.8,1.1
			c-0.52,0.48-0.93,1.06-1.23,1.72c-0.3,0.66-0.44,1.41-0.44,2.26c0,0.77,0.14,1.5,0.42,2.17c0.28,0.68,0.67,1.25,1.16,1.72
			c0.49,0.48,1.08,0.86,1.77,1.13c0.69,0.27,1.44,0.41,2.25,0.41c0.76,0,1.48-0.13,2.16-0.38c0.67-0.25,1.27-0.62,1.78-1.08
			C65.6,99.61,66.01,99.03,66.3,98.36z M64.55,97.99c-0.14,0.56-0.36,1.06-0.67,1.51c-0.3,0.44-0.68,0.78-1.15,1.03
			c-0.47,0.24-1,0.37-1.59,0.37c-0.63,0-1.16-0.12-1.61-0.36c-0.45-0.24-0.82-0.58-1.12-1.01c-0.31-0.44-0.53-0.94-0.67-1.51
			c-0.14-0.57-0.21-1.2-0.21-1.9c0-0.63,0.07-1.24,0.2-1.82c0.13-0.58,0.34-1.08,0.61-1.51c0.29-0.45,0.67-0.81,1.13-1.08
			c0.46-0.27,1.02-0.4,1.68-0.4c0.59,0,1.11,0.12,1.56,0.35c0.46,0.23,0.83,0.56,1.14,0.97c0.3,0.42,0.53,0.93,0.69,1.52
			c0.16,0.6,0.23,1.25,0.23,1.96C64.76,96.81,64.69,97.43,64.55,97.99z"/>
		<path class="st0" d="M76.34,99.8c-0.07,0.28-0.2,0.49-0.4,0.63c-0.15,0.11-0.36,0.19-0.63,0.24c-0.27,0.05-0.53,0.09-0.78,0.11
			v0.52h4.71v-0.52c-0.12,0-0.36-0.05-0.74-0.15c-0.38-0.09-0.63-0.19-0.75-0.29c-0.18-0.14-0.31-0.36-0.39-0.67
			c-0.08-0.31-0.13-0.77-0.13-1.37v-6.2h0.11l3.79,9.04h0.41l3.98-8.85h0.12v7.56c0,0.18-0.04,0.33-0.12,0.45
			c-0.08,0.12-0.2,0.23-0.37,0.32c-0.11,0.05-0.31,0.1-0.6,0.12c-0.29,0.03-0.53,0.05-0.72,0.05v0.52h5.16v-0.52
			c-0.15,0-0.35-0.03-0.6-0.07c-0.25-0.04-0.43-0.09-0.53-0.14c-0.19-0.09-0.31-0.19-0.38-0.31c-0.07-0.12-0.1-0.26-0.1-0.43v-7.49
			c0-0.16,0.03-0.31,0.1-0.45c0.07-0.14,0.19-0.23,0.38-0.29c0.11-0.03,0.28-0.07,0.52-0.11c0.24-0.04,0.43-0.06,0.59-0.07v-0.52
			h-3.81c-0.01,0.09-0.05,0.26-0.12,0.52c-0.07,0.26-0.16,0.51-0.27,0.75l-2.86,6.52l-3.34-7.8h-3.98v0.52
			c0.24,0.01,0.49,0.05,0.73,0.11s0.46,0.16,0.63,0.29c0.15,0.12,0.27,0.28,0.35,0.48c0.08,0.2,0.12,0.45,0.12,0.75v5.32
			C76.45,99.04,76.41,99.51,76.34,99.8z"/>
		<path class="st0" d="M105.9,94.91c0.24-0.42,0.36-0.9,0.36-1.44c0-0.78-0.34-1.4-1.02-1.86c-0.68-0.47-1.56-0.7-2.65-0.7h-5.33
			v0.52c0.15,0.01,0.33,0.03,0.53,0.05c0.21,0.03,0.41,0.07,0.62,0.14c0.2,0.07,0.33,0.17,0.39,0.31c0.05,0.14,0.08,0.29,0.08,0.46
			v7.5c0,0.19-0.04,0.35-0.11,0.47c-0.07,0.12-0.19,0.21-0.36,0.28c-0.1,0.04-0.27,0.07-0.52,0.1c-0.25,0.02-0.44,0.04-0.57,0.05
			v0.52h5.01v-0.52c-0.21,0-0.44-0.02-0.69-0.05c-0.25-0.03-0.42-0.06-0.52-0.1c-0.2-0.07-0.33-0.17-0.39-0.3
			c-0.06-0.13-0.09-0.28-0.09-0.45v-3.15h1.31c0.56,0,1.09-0.06,1.59-0.19c0.5-0.13,0.96-0.33,1.37-0.6
			C105.33,95.67,105.66,95.33,105.9,94.91z M104.12,94.51c-0.06,0.25-0.18,0.49-0.37,0.73c-0.19,0.24-0.47,0.45-0.84,0.61
			c-0.37,0.16-0.85,0.25-1.44,0.25h-0.84v-4.59h1.16c0.47,0,0.86,0.06,1.17,0.19c0.31,0.13,0.56,0.31,0.76,0.53
			c0.18,0.21,0.31,0.47,0.38,0.75c0.07,0.29,0.11,0.57,0.11,0.85C104.21,94.04,104.18,94.26,104.12,94.51z"/>
		<path class="st0" d="M125.22,100.78c-0.14,0-0.31-0.03-0.51-0.08c-0.2-0.05-0.37-0.1-0.49-0.17c-0.19-0.11-0.33-0.23-0.44-0.34
			c-0.1-0.12-0.2-0.27-0.28-0.46l-3.89-8.96h-0.66c-0.55,1.27-1.18,2.72-1.89,4.34c-0.71,1.63-1.36,3.09-1.94,4.39
			c-0.12,0.25-0.23,0.45-0.35,0.6c-0.12,0.14-0.29,0.28-0.51,0.41c-0.14,0.08-0.31,0.14-0.53,0.19c-0.21,0.05-0.39,0.07-0.53,0.08
			v0.52h4.4v-0.52c-0.43-0.02-0.82-0.08-1.17-0.19c-0.35-0.11-0.52-0.26-0.52-0.45c0-0.08,0.01-0.19,0.04-0.32
			c0.03-0.13,0.08-0.3,0.15-0.51c0.08-0.21,0.16-0.45,0.26-0.7c0.1-0.25,0.22-0.55,0.37-0.89h4.1l0.97,2.33
			c0.02,0.05,0.04,0.1,0.05,0.17c0.01,0.06,0.02,0.12,0.02,0.16c0,0.11-0.14,0.2-0.42,0.27c-0.28,0.07-0.64,0.12-1.07,0.15v0.52
			h4.85V100.78z M117.01,97.05l1.74-4.03l1.77,4.03H117.01z"/>
		<path class="st0" d="M142.47,101.4v-7.61c0-0.53,0.03-0.97,0.1-1.32c0.07-0.35,0.2-0.58,0.4-0.7c0.14-0.08,0.36-0.15,0.68-0.23
			c0.32-0.07,0.55-0.11,0.71-0.12v-0.52h-4.75v0.52c0.18,0.01,0.45,0.06,0.79,0.15c0.35,0.09,0.6,0.18,0.75,0.27
			c0.16,0.11,0.29,0.32,0.38,0.65c0.09,0.32,0.13,0.79,0.13,1.39v4.94l-6.56-7.92h-3.34v0.52c0.21,0.01,0.48,0.07,0.82,0.19
			c0.34,0.11,0.6,0.25,0.8,0.41c0.15,0.12,0.27,0.3,0.35,0.52c0.09,0.22,0.13,0.45,0.13,0.67v5.12c0,0.68-0.04,1.16-0.11,1.44
			c-0.07,0.28-0.2,0.49-0.39,0.63c-0.09,0.07-0.31,0.15-0.66,0.23c-0.35,0.09-0.6,0.13-0.75,0.14v0.52h4.79v-0.52
			c-0.13,0-0.39-0.05-0.78-0.15c-0.4-0.09-0.66-0.19-0.78-0.3c-0.18-0.14-0.31-0.37-0.39-0.69c-0.09-0.32-0.13-0.78-0.13-1.38V92.9
			l7.08,8.5H142.47z"/>
		<path class="st0" d="M157.99,90.91v0.52c0.16,0.01,0.33,0.03,0.52,0.04c0.19,0.01,0.36,0.04,0.52,0.08
			c0.15,0.04,0.28,0.09,0.37,0.16c0.09,0.07,0.14,0.16,0.14,0.27c0,0.14-0.23,0.55-0.68,1.24c-0.45,0.69-1.11,1.65-1.97,2.89
			c-0.43-0.69-0.78-1.26-1.05-1.69c-0.27-0.43-0.53-0.87-0.79-1.3c-0.09-0.15-0.18-0.31-0.28-0.47c-0.1-0.16-0.18-0.31-0.25-0.44
			c-0.06-0.11-0.11-0.2-0.14-0.28c-0.03-0.07-0.05-0.12-0.05-0.15c0-0.11,0.12-0.19,0.35-0.25c0.23-0.06,0.63-0.09,1.18-0.1v-0.52
			h-4.98v0.52c0.15,0.01,0.31,0.03,0.5,0.07c0.18,0.04,0.34,0.1,0.47,0.17c0.18,0.11,0.34,0.23,0.48,0.37
			c0.14,0.14,0.3,0.35,0.48,0.63c0.3,0.47,0.64,1.03,1.04,1.69c0.4,0.66,0.77,1.27,1.09,1.84c0.15,0.25,0.28,0.48,0.38,0.69
			c0.11,0.21,0.16,0.35,0.16,0.43v2.53c0,0.19-0.04,0.34-0.11,0.47c-0.07,0.13-0.21,0.23-0.41,0.3c-0.12,0.04-0.33,0.08-0.64,0.11
			c-0.31,0.03-0.54,0.05-0.69,0.05v0.52h5.46v-0.52c-0.18,0-0.42-0.04-0.72-0.09c-0.3-0.06-0.5-0.1-0.62-0.14
			c-0.19-0.08-0.33-0.18-0.41-0.31c-0.08-0.13-0.12-0.28-0.12-0.46v-1.98c0-0.36,0.03-0.64,0.1-0.83c0.07-0.19,0.2-0.44,0.4-0.75
			c0.54-0.85,1-1.55,1.36-2.1c0.36-0.55,0.76-1.1,1.18-1.63c0.22-0.27,0.37-0.43,0.44-0.5c0.08-0.06,0.22-0.15,0.44-0.27
			c0.09-0.06,0.23-0.12,0.44-0.18c0.2-0.06,0.35-0.09,0.44-0.1v-0.52H157.99z"/>
	</g>
	<g>
		<path class="st0" d="M162.88,30.55H124.8h-0.44l19.26-21.72h-42.61h-6H56.38l19.26,21.72H37.12L58.45,54.6l0,0l22.28,25.12
			L100,58.01l19.26,21.72l20.97-23.63l0.02-0.02L162.88,30.55z M94.97,13.38L80.73,29.43L66.5,13.38H94.97z M152.76,35.1
			l-14.24,16.05L124.29,35.1H152.76z M80.74,36.28L94.9,52.26H66.56L80.74,36.28z M85.77,35.1h28.46L100,51.15L85.77,35.1z
			 M119.26,36.29l14.17,15.98h-28.34L119.26,36.29z M85.83,30.55L100,14.58l14.17,15.97H85.83z M119.26,29.43l-14.24-16.05h28.47
			L119.26,29.43z M75.7,35.1L61.47,51.15L47.24,35.1H75.7z M94.97,56.81L80.73,72.86L66.5,56.81H94.97z M133.5,56.81l-14.24,16.05
			l-14.24-16.05H133.5z"/>
	</g>
</g>
</svg>
