<?xml version="1.0" encoding="utf-8"?>
<!-- Generator: Adobe Illustrator 27.1.0, SVG Export Plug-In . SVG Version: 6.00 Build 0)  -->
<svg version="1.1" id="Layer_1" xmlns="http://www.w3.org/2000/svg" xmlns:xlink="http://www.w3.org/1999/xlink" x="0px" y="0px"
	 viewBox="0 0 200 120" style="enable-background:new 0 0 200 120;" xml:space="preserve">
<style type="text/css">
	.st0{fill:#FFFFFF;}
	.st1{fill:#FFFFFF;}
	.st2{font-family:'Rockwell-CondensedBold';}
	.st3{font-size:5.5298px;}
	.st4{fill:#FFFFFF;}
</style>
<g>
	<g>
		<g>
			<polygon class="st1" points="83.02,91.46 84.09,93.43 86.06,94.51 84.09,95.58 83.02,97.55 81.94,95.58 79.97,94.51 81.94,93.43 
							"/>
		</g>
		<g>
			<polygon class="st1" points="116.93,91.46 118.01,93.43 119.98,94.51 118.01,95.58 116.93,97.55 115.86,95.58 113.89,94.51 
				115.86,93.43 			"/>
		</g>
	</g>
	<g>
		<path class="st1" d="M81.64,28.29c-0.15-0.31-0.22-0.56-0.21-0.77c0.01-0.19,0.09-0.37,0.21-0.43c0.27-0.16,0.37-0.5,0.21-0.78
			c-0.16-0.27-0.5-0.37-0.78-0.21c-0.46,0.26-0.76,0.79-0.78,1.38c-0.01,0.4,0.09,0.81,0.32,1.3l0.09,0.18
			c0.1,0.21,0.2,0.4,0.22,0.57c0.03,0.22-0.07,0.46-0.25,0.6c-0.25,0.19-0.3,0.55-0.11,0.8c0.11,0.15,0.28,0.22,0.45,0.22
			c0.12,0,0.24-0.04,0.34-0.12c0.5-0.38,0.77-1.03,0.69-1.65c-0.05-0.36-0.2-0.66-0.33-0.93L81.64,28.29z"/>
		<path class="st1" d="M84.01,28.29c-0.15-0.31-0.22-0.56-0.21-0.77c0.01-0.19,0.09-0.37,0.21-0.43c0.27-0.16,0.37-0.5,0.21-0.78
			c-0.15-0.27-0.5-0.37-0.78-0.21c-0.46,0.26-0.76,0.79-0.78,1.38c-0.01,0.4,0.09,0.81,0.32,1.3l0.08,0.17
			c0.1,0.21,0.2,0.4,0.22,0.58c0.03,0.22-0.07,0.46-0.25,0.6c-0.25,0.19-0.3,0.55-0.11,0.8c0.11,0.15,0.28,0.22,0.45,0.22
			c0.12,0,0.24-0.04,0.34-0.12c0.5-0.38,0.77-1.03,0.69-1.65c-0.05-0.36-0.2-0.67-0.33-0.93L84.01,28.29z"/>
		<path class="st1" d="M76.48,44.59h0.09l-3.51,8.01c-0.08,0.18-0.06,0.38,0.04,0.54c0.1,0.16,0.28,0.26,0.48,0.26h6.37
			c0.23,0,0.43-0.13,0.52-0.34l1.91-4.4c0,0,0,0,0-0.01l1.76-4.05h0.47c0.31,0,0.57-0.25,0.57-0.57s-0.25-0.57-0.57-0.57h-0.83
			c0,0-0.01,0-0.01,0h-6.31c-0.01,0-0.01,0-0.02,0h-0.96c-0.31,0-0.57,0.25-0.57,0.57S76.17,44.59,76.48,44.59z M79.58,52.26h-5.13
			l1.43-3.27H81L79.58,52.26z M81.49,47.86h-5.11l1.43-3.27h5.09L81.49,47.86z"/>
		<path class="st1" d="M112.61,37.99c0.31,0,0.57-0.25,0.57-0.57v-3.7c0-0.31-0.25-0.57-0.57-0.57s-0.57,0.25-0.57,0.57v3.7
			C112.05,37.74,112.3,37.99,112.61,37.99z"/>
		<path class="st1" d="M93.81,16.91h1.42c0.31,0,0.57-0.25,0.57-0.57s-0.25-0.57-0.57-0.57h-1.42c-0.31,0-0.57,0.25-0.57,0.57
			S93.5,16.91,93.81,16.91z"/>
		<path class="st1" d="M125.48,30.02c0.11,0.11,0.26,0.17,0.4,0.17s0.29-0.06,0.4-0.17c0.22-0.22,0.22-0.58,0-0.8l-0.98-0.98
			c-0.22-0.22-0.58-0.22-0.8,0c-0.22,0.22-0.22,0.58,0,0.8L125.48,30.02z"/>
		<path class="st1" d="M97.31,31.65c0.11,0.11,0.26,0.17,0.4,0.17s0.29-0.06,0.4-0.17l2.61-2.61c0.22-0.22,0.22-0.58,0-0.8
			c-0.22-0.22-0.58-0.22-0.8,0l-2.61,2.61C97.09,31.07,97.09,31.43,97.31,31.65z"/>
		<path class="st1" d="M104.54,36.42c0.07,0.03,0.14,0.04,0.21,0.04c0.22,0,0.44-0.13,0.53-0.36l1.38-3.43
			c0.12-0.29-0.02-0.62-0.32-0.74c-0.29-0.12-0.62,0.02-0.74,0.32l-1.38,3.43C104.1,35.98,104.24,36.31,104.54,36.42z"/>
		<path class="st1" d="M120.35,35.96c0.09,0.22,0.3,0.35,0.52,0.35c0.07,0,0.15-0.01,0.22-0.04c0.29-0.12,0.42-0.46,0.3-0.75
			l-1.45-3.4c-0.12-0.29-0.46-0.42-0.75-0.3c-0.29,0.12-0.42,0.46-0.3,0.75L120.35,35.96z"/>
		<path class="st1" d="M97.15,22.94c-0.12-0.29-0.46-0.42-0.75-0.3L93,24.08c-0.29,0.12-0.42,0.46-0.3,0.75
			c0.09,0.22,0.3,0.35,0.52,0.35c0.07,0,0.15-0.01,0.22-0.04l3.4-1.45C97.14,23.56,97.27,23.22,97.15,22.94z"/>
		<path class="st1" d="M100.86,34.52c0.1,0.06,0.2,0.09,0.31,0.09c0.19,0,0.37-0.09,0.48-0.26l2.01-3.1
			c0.17-0.26,0.09-0.62-0.17-0.79c-0.26-0.17-0.62-0.09-0.79,0.17l-2.01,3.1C100.53,34,100.6,34.35,100.86,34.52z"/>
		<path class="st1" d="M116.48,37.07c0.06,0.27,0.29,0.45,0.55,0.45c0.04,0,0.08,0,0.12-0.01c0.31-0.07,0.5-0.37,0.44-0.67
			l-0.78-3.61c-0.07-0.31-0.37-0.5-0.67-0.44c-0.31,0.07-0.5,0.37-0.44,0.67L116.48,37.07z"/>
		<path class="st1" d="M92.01,21.34c0.04,0,0.08,0,0.12-0.01l3.61-0.78c0.31-0.07,0.5-0.37,0.44-0.67c-0.07-0.31-0.38-0.5-0.67-0.44
			l-3.61,0.78c-0.31,0.07-0.5,0.37-0.44,0.67C91.51,21.16,91.74,21.34,92.01,21.34z"/>
		<path class="st1" d="M108.56,37.61c0.04,0.01,0.07,0.01,0.11,0.01c0.27,0,0.51-0.19,0.56-0.46l0.69-3.63
			c0.06-0.31-0.14-0.61-0.45-0.67c-0.31-0.06-0.61,0.14-0.67,0.45l-0.69,3.63C108.05,37.25,108.25,37.55,108.56,37.61z"/>
		<path class="st1" d="M123.99,34.1c0.11,0.16,0.29,0.25,0.47,0.25c0.11,0,0.22-0.03,0.32-0.1c0.26-0.18,0.33-0.53,0.15-0.79
			l-2.08-3.06c-0.18-0.26-0.53-0.33-0.79-0.15c-0.26,0.18-0.33,0.53-0.15,0.79L123.99,34.1z"/>
		<path class="st1" d="M94.71,28.51c0.11,0.16,0.29,0.25,0.47,0.25c0.11,0,0.22-0.03,0.32-0.1l3.06-2.08
			c0.26-0.18,0.33-0.53,0.15-0.79c-0.18-0.26-0.53-0.33-0.79-0.15l-3.06,2.08C94.6,27.9,94.53,28.25,94.71,28.51z"/>
		<path class="st1" d="M61.84,64.41c7.42,2.38,17.94,3.94,29.7,4.46c0,0,0,0,0,0s0,0,0,0c2.55,0.11,5.15,0.18,7.79,0.19
			c0.01,0,0.02,0,0.03,0c0.01,0,0.02,0,0.03,0c0.35,0,0.71,0.01,1.06,0.01c14.7,0,28.44-1.59,37.69-4.38
			c0.3-0.09,0.47-0.41,0.38-0.71c-0.09-0.3-0.4-0.47-0.71-0.38c-0.58,0.17-1.18,0.34-1.79,0.51V46.93
			c0-19.87-16.16-36.03-36.03-36.03S63.97,27.06,63.97,46.93v16.94c-0.61-0.17-1.21-0.35-1.79-0.54c-0.29-0.09-0.62,0.07-0.71,0.37
			C61.38,64,61.54,64.32,61.84,64.41z M98.53,14.48c0.49-0.02,0.98-0.04,1.47-0.04c9.45,0,17.96,4.06,23.89,10.53
			c-2.68,3.5-6.86,5.59-11.28,5.59c-7.84,0-14.22-6.38-14.22-14.22C98.4,15.72,98.45,15.1,98.53,14.48z M112.61,31.7
			c4.7,0,9.14-2.19,12.04-5.87c4.85,5.67,7.79,13.02,7.79,21.05v8.74c-0.4,0.53-2.04,2.55-4.99,4.42v-2.41
			c0.78-0.07,1.55-0.18,2.31-0.34c0.25-0.06,0.71-0.16,0.99-0.55c0.46-0.65,0.01-1.38-0.16-1.66c-0.48-0.78-0.91-1.61-1.28-2.44
			c-0.14-0.31-0.26-0.61-0.24-0.87c0.02-0.26,0.04-0.24,0.04-0.23c0.31-0.04,0.69-0.08,1.04-0.27c0.5-0.27,0.77-0.78,0.68-1.27
			c-0.06-0.32-0.24-0.54-0.39-0.73c-0.51-0.62-0.91-1.35-1.16-2.13c0,0,0,0,0.01,0c0.74-0.25,1-1.07,0.83-1.72
			c-0.13-0.47-0.42-0.83-0.68-1.15l-0.09-0.11c-1.1-1.36-1.57-2.44-1.77-4.05l-0.14-0.49c-0.07-0.26-0.32-0.45-0.59-0.41
			c-0.27,0.02-0.49,0.23-0.52,0.5c-0.19,1.62-0.85,3.16-1.89,4.46l-0.09,0.11c-0.26,0.32-0.56,0.68-0.68,1.15
			c-0.17,0.65,0.09,1.47,0.83,1.72c0,0,0.01,0,0.01,0c-0.25,0.77-0.65,1.5-1.18,2.15c-0.14,0.17-0.32,0.39-0.38,0.71
			c-0.09,0.49,0.19,1,0.68,1.27c0.35,0.19,0.74,0.24,1.03,0.24c0.01,0.01,0.03,0.07,0.05,0.26c0.02,0.26-0.1,0.56-0.24,0.87
			c-0.37,0.84-0.8,1.66-1.28,2.44c-0.17,0.28-0.62,1.01-0.16,1.66c0.28,0.39,0.74,0.5,0.99,0.55c0.76,0.16,1.54,0.27,2.31,0.34v2.83
			c0,0.08,0.02,0.16,0.05,0.23c-1.96,1.09-4.4,2.05-7.34,2.53v-2.89c0.72-0.06,1.43-0.16,2.12-0.32c0.22-0.05,0.68-0.14,0.95-0.53
			c0.44-0.62,0.01-1.33-0.15-1.59c-0.45-0.73-0.85-1.49-1.19-2.27c-0.12-0.27-0.24-0.56-0.22-0.79c0.01-0.1,0.02-0.16,0.02-0.18
			c0.29-0.03,0.64-0.08,0.96-0.25c0.48-0.26,0.74-0.75,0.66-1.23c-0.06-0.3-0.23-0.51-0.38-0.69c-0.47-0.57-0.83-1.23-1.06-1.94
			c0.69-0.25,0.93-1.03,0.77-1.64c-0.12-0.45-0.4-0.79-0.65-1.09l-0.08-0.1c-1.02-1.26-1.46-2.26-1.65-3.76l-0.13-0.46
			c-0.07-0.26-0.31-0.45-0.59-0.41c-0.27,0.02-0.49,0.23-0.52,0.5c-0.18,1.5-0.79,2.93-1.76,4.13l-0.08,0.1
			c-0.25,0.3-0.53,0.64-0.64,1.09c-0.17,0.62,0.08,1.39,0.77,1.64c-0.23,0.7-0.6,1.37-1.08,1.96c-0.13,0.16-0.31,0.37-0.36,0.68
			c-0.08,0.47,0.18,0.96,0.66,1.23c0.34,0.18,0.69,0.23,0.95,0.21c0.01,0.01,0.03,0.06,0.04,0.23c0.02,0.23-0.09,0.52-0.22,0.79
			c-0.35,0.78-0.75,1.54-1.19,2.27c-0.16,0.26-0.59,0.97-0.15,1.59c0.27,0.38,0.73,0.48,0.95,0.53c0.69,0.15,1.41,0.25,2.12,0.32
			v3.05c-1.7,0.19-3.55,0.22-5.57,0.02c0.62-3.08,0.23-5.58-1.18-7.43c-1.83-2.4-4.79-2.95-5.93-3.07
			c-1.03-4.49-5.13-4.99-6.38-5.03l-5.92-10.71c-0.01-0.01-0.02-0.02-0.03-0.03c-0.05-0.07-0.11-0.13-0.19-0.18
			c0,0-0.01,0-0.01-0.01c-0.08-0.05-0.17-0.08-0.27-0.08h-7.24v-3.89c0-0.31-0.25-0.57-0.57-0.57h-4.48c-0.31,0-0.57,0.25-0.57,0.57
			v3.89H74.8c-0.23,0-0.43,0.13-0.52,0.34l-6.72,15.51v-5.82c0-17,13.15-30.98,29.81-32.33c-0.07,0.59-0.12,1.19-0.12,1.79
			C97.26,24.81,104.15,31.7,112.61,31.7z M94.4,67.85c4.51-1.61,9.15-2.84,13.85-3.65c0.49,0.36,0.98,0.74,1.47,1.13
			c-3.62,0.64-6.81,1.44-10.42,2.61C97.65,67.92,96.01,67.9,94.4,67.85z M87.55,67.52c5.68-2.43,11.62-4.22,17.71-5.34
			c0.56,0.35,1.12,0.71,1.68,1.1c-5.28,0.99-10.48,2.48-15.49,4.46C90.14,67.67,88.84,67.6,87.55,67.52z M81.71,67.03
			c4.75-2.31,11.69-5.1,20.19-6.79c0.64,0.33,1.28,0.69,1.93,1.06c-6.45,1.28-12.73,3.3-18.69,6.04
			C83.98,67.24,82.84,67.14,81.71,67.03z M76.55,66.41c4.86-2.64,12.15-5.9,21.38-7.95c0.76,0.29,1.52,0.62,2.29,0.97
			c-8.92,1.94-16.05,5.03-20.59,7.37C78.59,66.68,77.56,66.55,76.55,66.41z M71.89,65.67c4.08-2.44,11.39-6.2,21.11-8.71
			c0.96,0.22,1.93,0.48,2.92,0.8c-9.36,2.29-16.63,5.76-21.22,8.38C73.74,65.99,72.8,65.83,71.89,65.67z M67.64,64.8
			c2.71-1.78,9.31-5.72,18.67-8.71c1.33,0.03,2.72,0.16,4.15,0.38c-9.62,2.77-16.66,6.64-20.24,8.88
			C69.34,65.18,68.48,64.99,67.64,64.8z M84.04,36.85H80.7v-3.32h3.34V36.85z M80.13,37.99h4.48h6.94L84.2,54.96
			c-8.36,0.32-14.43,3.63-16.65,5.03v-4.42l7.61-17.58H80.13z M111.2,63.26c-1-0.14-2.03-0.33-3.11-0.59
			c-0.57-0.4-1.13-0.78-1.69-1.14l-6.9-12.47c1.45,0.2,4.08,1.02,4.69,4.47c0.05,0.26,0.27,0.46,0.54,0.47
			c0.04,0,3.6,0.15,5.52,2.67C111.46,58.25,111.77,60.47,111.2,63.26z M97.98,48.66C97.99,48.67,98,48.68,98,48.7l6.42,11.62
			c-0.69-0.4-1.37-0.77-2.05-1.12c-0.07-0.06-0.15-0.1-0.24-0.12c-1.27-0.64-2.52-1.19-3.75-1.67c-0.09-0.07-0.19-0.11-0.3-0.12
			c-0.5-0.19-1-0.36-1.49-0.53V51.6c0-0.31-0.25-0.57-0.57-0.57h-3.61c-0.31,0-0.57,0.25-0.57,0.57v3.93
			c-1.75-0.33-3.44-0.51-5.06-0.57c-0.14-0.09-0.3-0.12-0.47-0.06c-0.05,0.02-0.09,0.03-0.14,0.05c-0.24,0-0.48-0.01-0.72-0.01
			l7.03-16.23L97.98,48.66z M95.46,56.32l-2.47-0.91v-3.24h2.47V56.32z M67.56,61.35c1.13-0.79,6.69-4.36,14.87-5.12
			c-7.09,2.62-12.26,5.6-14.87,7.28V61.35z M110.92,66.27c0.49,0.41,0.99,0.86,1.49,1.3c-2.95,0.18-5.99,0.3-9.08,0.35
			C105.81,67.24,108.23,66.72,110.92,66.27z M113.92,67.39c-0.84-0.76-1.67-1.48-2.49-2.16c-0.01-0.01-0.02-0.01-0.03-0.02
			c-0.4-0.33-0.79-0.64-1.19-0.95c0.48,0.08,0.95,0.16,1.41,0.21c0.01,0,0.01,0,0.02,0c0,0,0,0,0,0c1.18,0.14,2.32,0.21,3.4,0.21
			c9.5,0,15.2-4.94,17.39-7.3v7.62c-5.34,1.16-11.63,2.01-18.45,2.49C113.96,67.44,113.95,67.41,113.92,67.39z M116.5,53.51
			c-0.21-0.02-0.43-0.05-0.57-0.13c-0.03-0.02-0.06-0.04-0.07-0.04c0.03-0.04,0.08-0.1,0.13-0.16c0.62-0.76,1.09-1.66,1.36-2.59
			c0.03-0.11,0.1-0.36-0.03-0.63c-0.16-0.35-0.51-0.44-0.75-0.5c-0.04-0.01-0.1-0.15-0.06-0.28c0.06-0.21,0.24-0.43,0.43-0.66
			l0.09-0.11c0.6-0.74,1.08-1.57,1.42-2.43c0.3,0.82,0.77,1.59,1.45,2.44l0.09,0.1c0.19,0.23,0.37,0.45,0.43,0.67
			c0.04,0.13-0.02,0.27-0.14,0.3c-0.17,0.04-0.51,0.13-0.67,0.48c-0.13,0.27-0.05,0.54-0.03,0.64c0.26,0.94,0.73,1.83,1.37,2.61
			c0.04,0.05,0.11,0.12,0.12,0.11c-0.01,0.02-0.04,0.05-0.08,0.08c-0.14,0.08-0.35,0.1-0.56,0.12c-0.6,0.07-0.94,0.47-1.01,1.21
			c-0.05,0.51,0.14,0.97,0.31,1.36c0.37,0.82,0.79,1.63,1.26,2.4c0.14,0.23,0.17,0.33,0.19,0.33c-0.03,0.02-0.09,0.04-0.26,0.08
			c-0.75,0.17-1.53,0.28-2.28,0.33h-0.33c-0.77-0.05-1.55-0.17-2.3-0.33c-0.16-0.04-0.23-0.06-0.24-0.04
			c0.01-0.04,0.04-0.14,0.17-0.37c0.47-0.77,0.9-1.58,1.26-2.4c0.17-0.39,0.36-0.85,0.31-1.36C117.44,53.99,117.1,53.58,116.5,53.51
			z M124.78,50.4c-0.23-0.03-0.46-0.05-0.62-0.14c-0.07-0.04-0.1-0.09-0.11-0.07c0.01-0.04,0.09-0.13,0.16-0.21
			c0.67-0.81,1.17-1.77,1.44-2.76c0.03-0.11,0.11-0.38-0.02-0.65c-0.17-0.36-0.51-0.45-0.78-0.52c-0.08-0.03-0.13-0.2-0.09-0.35
			c0.06-0.24,0.26-0.47,0.46-0.73l0.09-0.12c0.67-0.82,1.19-1.74,1.56-2.7c0.32,0.92,0.83,1.76,1.59,2.7l0.09,0.12
			c0.21,0.25,0.4,0.49,0.46,0.73c0.04,0.15-0.02,0.33-0.18,0.38c-0.19,0.05-0.53,0.14-0.69,0.49c-0.13,0.28-0.06,0.54-0.03,0.66
			c0.28,1,0.78,1.95,1.46,2.78c0.05,0.06,0.13,0.15,0.14,0.15c-0.01,0.02-0.04,0.07-0.11,0.11c-0.16,0.09-0.39,0.11-0.62,0.14
			c-0.93,0.11-1.02,0.97-1.04,1.26c-0.05,0.53,0.14,1,0.33,1.43c0.39,0.88,0.85,1.75,1.35,2.58c0.18,0.29,0.19,0.41,0.21,0.41
			c-0.03,0.02-0.1,0.06-0.31,0.1c-0.82,0.18-1.65,0.3-2.45,0.35h-0.36c-0.83-0.06-1.66-0.18-2.47-0.35c-0.22-0.05-0.3-0.08-0.3-0.07
			c0-0.02,0-0.12,0.19-0.44c0.5-0.83,0.96-1.69,1.35-2.58c0.19-0.43,0.38-0.9,0.33-1.44C125.8,51.38,125.72,50.51,124.78,50.4z
			 M65.11,46.93c0-19.24,15.65-34.89,34.89-34.89s34.89,15.65,34.89,34.89v17.48c-0.43,0.11-0.87,0.21-1.31,0.32V46.88
			c0-8.51-3.19-16.29-8.43-22.21c-0.04-0.08-0.09-0.15-0.17-0.2c0,0-0.01,0-0.01-0.01c-6.15-6.85-15.07-11.16-24.97-11.16
			c-18.51,0-33.58,15.06-33.58,33.58v8.56c0,0,0,0,0,0v9.07c-0.45-0.11-0.88-0.22-1.31-0.34V46.93z"/>
		<path class="st1" d="M138.15,86.82c-1.22-0.37-2.55-0.72-3.95-1.05c-9.09-2.14-21.07-3.32-33.74-3.32
			c-11.8,0-23.17,1.04-32.01,2.94c-0.9,0.19-1.77,0.4-2.61,0.61c-0.01,0-0.02,0-0.02,0c-0.01,0-0.01,0.01-0.01,0.01
			c-1.41,0.35-2.74,0.72-3.96,1.11c-0.3,0.1-0.46,0.42-0.37,0.71c0.08,0.24,0.3,0.39,0.54,0.39c0.06,0,0.12-0.01,0.17-0.03
			c1.05-0.34,2.2-0.66,3.41-0.97c4.65,14.95,18.71,25.35,34.4,25.35c15.79,0,29.88-10.48,34.47-25.56c1.18,0.29,2.31,0.59,3.35,0.9
			c0.05,0.02,0.11,0.02,0.16,0.02c0.24,0,0.47-0.16,0.54-0.4C138.62,87.23,138.45,86.91,138.15,86.82z M130.74,86.19
			C126.55,99.51,114,108.78,100,108.78c-13.92,0-26.44-9.19-30.69-22.42c8.67-1.79,19.7-2.78,31.14-2.78
			C111.61,83.58,122.21,84.5,130.74,86.19z M100,111.43c-15.17,0-28.78-10.04-33.3-24.49c0.48-0.12,0.98-0.23,1.48-0.34
			c4.36,13.75,17.36,23.31,31.82,23.31c14.53,0,27.57-9.64,31.87-23.5c0.5,0.11,1,0.22,1.48,0.33
			C128.9,101.31,115.27,111.43,100,111.43z"/>
		<path class="st1" d="M102.03,40.82c-0.78,0-1.4,0.63-1.4,1.4s0.63,1.4,1.4,1.4s1.4-0.63,1.4-1.4S102.8,40.82,102.03,40.82z"/>
		<circle class="st1" cx="122.38" cy="40.82" r="1.4"/>
		<path class="st1" d="M110.94,53c0.61,0,1.11-0.5,1.11-1.11s-0.5-1.11-1.11-1.11c-0.61,0-1.11,0.5-1.11,1.11S110.33,53,110.94,53z"
			/>
		<path class="st1" d="M105.23,45.54c0,0.49,0.4,0.9,0.9,0.9c0.49,0,0.9-0.4,0.9-0.9c0-0.49-0.4-0.9-0.9-0.9
			C105.63,44.64,105.23,45.04,105.23,45.54z"/>
		<circle class="st1" cx="109.01" cy="44.64" r="0.9"/>
		<path class="st1" d="M87.97,22.55c-0.82,0-1.48,0.66-1.48,1.48c0,0.82,0.66,1.48,1.48,1.48c0.82,0,1.48-0.66,1.48-1.48
			C89.44,23.21,88.78,22.55,87.97,22.55z"/>
		<path class="st1" d="M91.55,32.44c-0.49,0-0.9,0.4-0.9,0.9s0.4,0.9,0.9,0.9s0.9-0.4,0.9-0.9S92.04,32.44,91.55,32.44z"/>
		<circle class="st1" cx="75.51" cy="33.78" r="0.9"/>
	</g>
	<text transform="matrix(1 0 0 1 94.2501 91.4609)"><tspan x="0" y="0" class="st0 st2 st3">YOUR</tspan><tspan x="-2.65" y="5.56" class="st0 st2 st3">SLOGAN</tspan><tspan x="-0.03" y="11.11" class="st0 st2 st3">HERE</tspan></text>
	<g>
		<g>
			<path class="st0" d="M69.58,80.2c-0.46,0.21-1.39,0.44-2.58,0.49c-2.76,0.11-4.83-1.34-4.83-4.2c0-2.73,2.07-4.48,5.1-4.36
				c1.22,0.05,1.99,0.3,2.32,0.45c-0.12,0.34-0.18,0.51-0.3,0.85c-0.48-0.21-1.16-0.37-1.97-0.4c-2.29-0.07-3.81,1.16-3.81,3.42
				c0,2.11,1.38,3.41,3.75,3.33c0.77-0.02,1.55-0.18,2.06-0.4C69.42,79.7,69.48,79.87,69.58,80.2z"/>
			<path class="st0" d="M82.11,76.33c0,2.55-2.05,3.94-4.54,4.01c-2.58,0.07-4.39-1.48-4.39-3.86c0-2.5,1.93-4.07,4.54-4
				C80.39,72.55,82.11,74.13,82.11,76.33z M74.53,76.45c0,1.66,1.13,3.13,3.12,3.08c2-0.04,3.13-1.47,3.13-3.16
				c0-1.48-1.02-3.05-3.12-3.1C75.57,73.23,74.53,74.74,74.53,76.45z"/>
			<path class="st0" d="M88.15,73.6c-1.19-0.01-1.78-0.02-2.97-0.03c0-0.32,0-0.48,0-0.8c2.9,0.05,4.34,0.07,7.24,0.09
				c0,0.31,0,0.47,0,0.78c-1.2-0.01-1.79-0.01-2.99-0.02c0,2.55,0,3.83,0,6.38C88.92,79.99,88.66,80,88.15,80
				C88.15,77.44,88.15,76.16,88.15,73.6z"/>
			<path class="st0" d="M98.81,73.65c-1.19,0-1.78,0-2.97,0c0-0.31,0-0.47,0-0.78c2.89,0.01,4.34,0.01,7.24-0.01
				c0,0.31,0,0.47,0,0.78c-1.2,0.01-1.79,0.01-2.99,0.01c0,2.51,0,3.77,0,6.28c-0.51,0-0.77,0-1.28,0
				C98.81,77.42,98.81,76.16,98.81,73.65z"/>
			<path class="st0" d="M107.56,77.73c-0.41,0.9-0.61,1.35-1.02,2.24c-0.52-0.01-0.78-0.01-1.3-0.01c1.33-2.83,1.99-4.26,3.32-7.14
				c0.61-0.01,0.91-0.01,1.52-0.02c1.33,2.87,2,4.32,3.34,7.27c-0.54-0.01-0.81-0.01-1.35-0.02c-0.42-0.92-0.63-1.38-1.04-2.3
				C109.64,77.74,108.95,77.74,107.56,77.73z M110.77,77.02c-0.38-0.83-0.57-1.25-0.96-2.08c-0.22-0.47-0.36-0.9-0.51-1.31
				c-0.01,0-0.02,0-0.03,0c-0.14,0.43-0.3,0.87-0.49,1.3c-0.38,0.83-0.57,1.25-0.96,2.08C109,77.01,109.59,77.01,110.77,77.02z"/>
			<path class="st0" d="M124.98,80.01c-0.57,0.15-1.68,0.38-3,0.34c-1.48-0.04-2.7-0.37-3.65-1.1c-0.84-0.64-1.37-1.65-1.36-2.81
				c0.01-2.22,2.02-3.9,5.29-4c1.13-0.03,2.02,0.13,2.44,0.29c-0.12,0.34-0.18,0.5-0.3,0.84c-0.52-0.17-1.17-0.31-2.16-0.29
				c-2.38,0.06-3.93,1.23-3.93,3.11c0,1.91,1.49,3.07,3.77,3.12c0.83,0.02,1.39-0.06,1.68-0.17c0-0.94,0-1.4,0-2.34
				c-0.79,0-1.19-0.01-1.99-0.01c0-0.32,0-0.48,0-0.8c1.29,0,1.93,0,3.22-0.01C124.98,77.73,124.98,78.49,124.98,80.01z"/>
			<path class="st0" d="M134.87,76.67c-1.52,0-2.28-0.01-3.8-0.01c0,1.21,0,1.81,0,3.02c1.69,0.05,2.54,0.08,4.23,0.14
				c0,0.38,0,0.57,0,0.94c-2.2-0.1-3.3-0.15-5.49-0.23c0-3.31,0-4.96,0-8.26c2.11-0.08,3.17-0.13,5.28-0.22c0,0.38,0,0.57,0,0.94
				c-1.61,0.06-2.41,0.08-4.02,0.13c0,1.06,0,1.59,0,2.64c1.52-0.01,2.28-0.01,3.8-0.02C134.87,76.12,134.87,76.3,134.87,76.67z"/>
		</g>
	</g>
</g>
</svg>
