<?xml version="1.0" encoding="utf-8"?>
<!-- Generator: Adobe Illustrator 27.1.0, SVG Export Plug-In . SVG Version: 6.00 Build 0)  -->
<svg version="1.1" id="Layer_1" xmlns="http://www.w3.org/2000/svg" xmlns:xlink="http://www.w3.org/1999/xlink" x="0px" y="0px"
	 viewBox="0 0 200 120" style="enable-background:new 0 0 200 120;" xml:space="preserve">
<style type="text/css">
	.st0{fill:#FFFFFF;}
	.st1{fill:#231F20;}
	.st2{fill:#AD5726;}
</style>
<g>
	<polygon class="st0" points="78.17,80.08 78.16,80.07 75.5,75.45 54.35,38.82 49.01,38.82 72.83,80.07 72.82,80.08 72.83,80.08 
		78.16,80.08 	"/>
	<polygon class="st0" points="99.5,80.08 99.49,80.07 96.83,75.45 94.16,70.83 91.49,66.21 88.83,61.59 86.16,56.97 75.68,38.82 
		70.35,38.82 83.49,61.59 86.16,66.21 88.83,70.83 91.49,75.45 94.16,80.07 94.15,80.08 94.17,80.08 99.49,80.08 	"/>
	<polygon class="st0" points="107.49,75.45 104.83,70.83 102.16,66.21 99.49,61.59 96.83,56.97 94.16,52.36 91.49,47.74 
		86.35,38.82 81.01,38.82 88.83,52.36 94.16,61.59 96.83,66.21 99.49,70.83 102.16,75.45 104.83,80.07 104.82,80.08 104.83,80.08 
		110.15,80.08 110.16,80.08 110.16,80.07 	"/>
	<polygon class="st0" points="118.99,9.35 113.65,9.35 94.19,43.07 96.86,47.69 	"/>
	<polygon class="st0" points="83.5,80.08 88.82,80.08 88.83,80.08 88.83,80.07 86.16,75.45 83.5,70.83 80.83,66.21 65.01,38.82 
		59.68,38.82 78.16,70.83 80.83,75.45 83.5,80.07 83.49,80.08 	"/>
	<polygon class="st0" points="102.19,56.93 129.65,9.35 124.32,9.35 99.52,52.31 99.55,52.36 	"/>
	<polygon class="st0" points="107.52,66.17 140.32,9.35 134.99,9.35 104.85,61.54 104.88,61.59 	"/>
	<polygon class="st0" points="150.99,9.35 145.65,9.35 110.19,70.78 110.22,70.83 112.85,75.4 	"/>
	<path class="st0" d="M52.43,99.36c-0.52,0.49-1.25,0.79-2.02,0.79c-1.65,0-2.99-1.32-2.99-2.98c0-1.64,1.34-2.98,2.99-2.98
		c0.77,0,1.49,0.3,2.02,0.8l1.4-1.42c-0.89-0.85-2.1-1.38-3.42-1.38c-2.74,0-4.97,2.23-4.97,4.97c0,2.74,2.23,4.97,4.97,4.97
		c1.32,0,2.53-0.52,3.42-1.38L52.43,99.36z"/>
	<path class="st0" d="M66.93,92.2c-2.74,0-4.97,2.23-4.97,4.97c0,2.74,2.23,4.97,4.97,4.97c2.74,0,4.97-2.23,4.97-4.97
		C71.9,94.43,69.67,92.2,66.93,92.2z M66.93,100.16c-1.65,0-2.99-1.34-2.99-2.99c0-1.64,1.34-2.98,2.99-2.98
		c1.64,0,2.98,1.34,2.98,2.98C69.9,98.82,68.57,100.16,66.93,100.16z"/>
	<polygon class="st0" points="85.73,99.47 82.82,92.2 80.68,92.2 80.68,102.14 82.66,102.14 82.66,97.17 84.65,102.14 86.79,102.14 
		88.78,97.17 88.78,102.14 90.76,102.14 90.76,92.2 88.63,92.2 	"/>
	<path class="st0" d="M102.33,92.2h-2.78v9.94h1.98v-3.97h0.81c1.64,0,2.96-1.34,2.96-2.98C105.3,93.54,103.98,92.2,102.33,92.2z
		 M102.33,96.18h-0.8V94.2h0.8c0.55,0,1,0.45,1,1C103.32,95.73,102.88,96.18,102.33,96.18z"/>
	<path class="st0" d="M116.37,92.2l-3.59,9.94h2.11l1.01-2.78h3.06l1.01,2.78h2.11l-3.59-9.94H116.37z M116.62,97.37l0.8-2.24
		l0.81,2.24H116.62z"/>
	<polygon class="st0" points="138.87,92.2 136.89,92.2 136.89,98.84 132.92,92.2 130.6,92.2 130.6,102.14 132.58,102.14 
		132.58,95.52 136.56,102.14 138.87,102.14 	"/>
	<polygon class="st0" points="151.97,102.14 151.97,97.41 154.56,92.2 152.35,92.2 150.98,94.96 149.61,92.2 147.39,92.2 
		149.99,97.41 149.99,102.14 	"/>
	<polygon class="st0" points="45.42,106.97 46.57,106.97 46.57,110.61 47.21,110.61 47.21,106.97 48.37,106.97 48.37,106.4 
		45.42,106.4 	"/>
	<path class="st0" d="M53.02,106.4l-1.53,4.21h0.68l0.32-0.94h1.6l0.33,0.94h0.67l-1.53-4.21H53.02z M52.67,109.1l0.61-1.84h0.01
		l0.61,1.84H52.67z"/>
	<path class="st0" d="M60.34,108.89h0.86v0.22c0,0.26-0.09,0.48-0.25,0.64c-0.16,0.17-0.37,0.25-0.62,0.25
		c-0.15,0-0.28-0.03-0.39-0.1c-0.11-0.05-0.2-0.12-0.27-0.21c-0.08-0.09-0.14-0.21-0.16-0.36c-0.03-0.15-0.05-0.43-0.05-0.84
		c0-0.41,0.02-0.7,0.05-0.85c0.03-0.14,0.08-0.26,0.16-0.35c0.07-0.09,0.16-0.16,0.27-0.22c0.11-0.06,0.24-0.09,0.39-0.09
		c0.2,0,0.38,0.06,0.52,0.18c0.14,0.12,0.23,0.26,0.28,0.43h0.68c-0.07-0.35-0.23-0.65-0.49-0.89c-0.26-0.24-0.59-0.36-0.99-0.36
		c-0.33,0-0.61,0.08-0.83,0.24c-0.23,0.15-0.39,0.33-0.49,0.52c-0.06,0.1-0.11,0.24-0.14,0.4c-0.03,0.17-0.04,0.49-0.04,0.98
		c0,0.48,0.01,0.81,0.04,0.98c0.02,0.09,0.03,0.17,0.06,0.23c0.02,0.06,0.05,0.12,0.08,0.18c0.1,0.19,0.27,0.37,0.49,0.51
		c0.22,0.15,0.5,0.23,0.83,0.24c0.43-0.01,0.79-0.15,1.07-0.44c0.28-0.28,0.43-0.64,0.43-1.06v-0.86h-1.5V108.89z"/>
	<polygon class="st0" points="66.77,106.4 66.13,106.4 66.13,110.61 68.82,110.61 68.82,110.01 66.77,110.01 	"/>
	<rect x="72.97" y="106.4" class="st0" width="0.64" height="4.21"/>
	<polygon class="st0" points="80.57,109.39 80.55,109.39 78.65,106.4 78.05,106.4 78.05,110.61 78.69,110.61 78.69,107.62 
		78.7,107.62 80.6,110.61 81.2,110.61 81.2,106.4 80.57,106.4 	"/>
	<polygon class="st0" points="85.64,110.61 88.33,110.61 88.33,110.01 86.28,110.01 86.28,108.77 88.03,108.77 88.03,108.2 
		86.28,108.2 86.28,107 88.33,107 88.33,106.4 85.64,106.4 	"/>
	<path class="st0" d="M98.82,108.89h0.86v0.22c0,0.26-0.09,0.48-0.25,0.64c-0.16,0.17-0.37,0.25-0.62,0.25
		c-0.15,0-0.28-0.03-0.39-0.1c-0.11-0.05-0.2-0.12-0.27-0.21c-0.08-0.09-0.14-0.21-0.16-0.36c-0.03-0.15-0.05-0.43-0.05-0.84
		c0-0.41,0.02-0.7,0.05-0.85c0.03-0.14,0.08-0.26,0.16-0.35c0.07-0.09,0.16-0.16,0.27-0.22c0.11-0.06,0.24-0.09,0.39-0.09
		c0.2,0,0.38,0.06,0.52,0.18c0.14,0.12,0.23,0.26,0.28,0.43h0.68c-0.07-0.35-0.23-0.65-0.49-0.89c-0.26-0.24-0.59-0.36-0.99-0.36
		c-0.33,0-0.61,0.08-0.83,0.24c-0.23,0.15-0.39,0.33-0.49,0.52c-0.06,0.1-0.11,0.24-0.14,0.4c-0.03,0.17-0.04,0.49-0.04,0.98
		c0,0.48,0.01,0.81,0.04,0.98c0.02,0.09,0.03,0.17,0.06,0.23c0.02,0.06,0.05,0.12,0.08,0.18c0.1,0.19,0.27,0.37,0.49,0.51
		c0.22,0.15,0.5,0.23,0.83,0.24c0.43-0.01,0.79-0.15,1.07-0.44c0.28-0.28,0.43-0.64,0.43-1.06v-0.86h-1.5V108.89z"/>
	<path class="st0" d="M107.28,107.12c-0.1-0.19-0.26-0.37-0.48-0.52c-0.22-0.15-0.5-0.23-0.84-0.24c-0.33,0-0.61,0.08-0.83,0.24
		c-0.23,0.15-0.39,0.33-0.49,0.52c-0.06,0.1-0.11,0.24-0.14,0.4c-0.03,0.17-0.04,0.49-0.04,0.98c0,0.48,0.01,0.81,0.04,0.98
		c0.02,0.09,0.03,0.17,0.06,0.23c0.02,0.06,0.05,0.12,0.08,0.18c0.1,0.19,0.27,0.37,0.49,0.51c0.22,0.15,0.5,0.23,0.83,0.24
		c0.34-0.01,0.61-0.09,0.84-0.24c0.22-0.15,0.38-0.32,0.48-0.51c0.07-0.1,0.12-0.24,0.15-0.41c0.02-0.17,0.04-0.49,0.04-0.98
		c0-0.49-0.01-0.82-0.04-0.98C107.4,107.36,107.36,107.22,107.28,107.12z M106.79,109.35c-0.03,0.15-0.09,0.26-0.17,0.36
		c-0.06,0.09-0.15,0.16-0.25,0.21c-0.11,0.06-0.24,0.1-0.4,0.1c-0.15,0-0.28-0.03-0.39-0.1c-0.11-0.05-0.2-0.12-0.27-0.21
		c-0.08-0.09-0.14-0.21-0.16-0.36c-0.03-0.15-0.05-0.43-0.05-0.84c0-0.41,0.02-0.7,0.05-0.85c0.03-0.14,0.08-0.26,0.16-0.35
		c0.07-0.09,0.16-0.16,0.27-0.22c0.11-0.06,0.24-0.09,0.39-0.09c0.15,0,0.28,0.03,0.4,0.09c0.11,0.06,0.19,0.13,0.25,0.22
		c0.08,0.09,0.14,0.21,0.17,0.35c0.03,0.15,0.04,0.43,0.04,0.85C106.83,108.92,106.82,109.2,106.79,109.35z"/>
	<polygon class="st0" points="111.76,110.61 114.45,110.61 114.45,110.01 112.4,110.01 112.4,108.77 114.15,108.77 114.15,108.2 
		112.4,108.2 112.4,107 114.45,107 114.45,106.4 111.76,106.4 	"/>
	<path class="st0" d="M120.17,108.21c-0.2-0.02-0.36-0.05-0.47-0.07c-0.21-0.04-0.36-0.11-0.45-0.21c-0.09-0.1-0.14-0.21-0.14-0.33
		c0-0.2,0.07-0.35,0.21-0.46c0.13-0.1,0.29-0.15,0.49-0.15c0.38,0.01,0.73,0.12,1.04,0.32l0.36-0.53c-0.39-0.28-0.84-0.42-1.37-0.44
		c-0.43,0-0.77,0.12-1.01,0.34c-0.24,0.23-0.37,0.52-0.37,0.89c0,0.31,0.1,0.57,0.29,0.78c0.19,0.21,0.46,0.34,0.83,0.4
		c0.2,0.03,0.39,0.05,0.56,0.08c0.37,0.06,0.55,0.25,0.55,0.57c-0.01,0.38-0.28,0.58-0.83,0.59c-0.46,0-0.86-0.14-1.2-0.42
		l-0.42,0.48c0.45,0.39,0.98,0.58,1.61,0.58c0.96-0.01,1.46-0.42,1.48-1.22c0-0.3-0.09-0.56-0.28-0.79
		C120.85,108.41,120.56,108.26,120.17,108.21z"/>
	<polygon class="st0" points="132.82,108.2 131.15,108.2 131.15,106.4 130.51,106.4 130.51,110.61 131.15,110.61 131.15,108.77 
		132.82,108.77 132.82,110.61 133.46,110.61 133.46,106.4 132.82,106.4 	"/>
	<polygon class="st0" points="137.9,110.61 140.58,110.61 140.58,110.01 138.53,110.01 138.53,108.77 140.28,108.77 140.28,108.2 
		138.53,108.2 138.53,107 140.58,107 140.58,106.4 137.9,106.4 	"/>
	<path class="st0" d="M147.65,107.57c-0.01-0.39-0.15-0.69-0.42-0.9c-0.22-0.18-0.51-0.28-0.86-0.28h-1.64v4.21h0.64v-1.8h0.81
		l0.87,1.8h0.76l-0.98-1.87C147.38,108.54,147.65,108.15,147.65,107.57z M145.37,108.24v-1.28h1c0.2,0,0.36,0.04,0.47,0.13
		c0.14,0.1,0.21,0.26,0.21,0.48c0,0.18-0.06,0.34-0.18,0.46c-0.12,0.13-0.3,0.2-0.54,0.21H145.37z"/>
	<polygon class="st0" points="151.89,110.61 154.58,110.61 154.58,110.01 152.53,110.01 152.53,108.77 154.28,108.77 154.28,108.2 
		152.53,108.2 152.53,107 154.58,107 154.58,106.4 151.89,106.4 	"/>
</g>
</svg>
