<?xml version="1.0" encoding="utf-8"?>
<!-- Generator: Adobe Illustrator 27.1.0, SVG Export Plug-In . SVG Version: 6.00 Build 0)  -->
<svg version="1.1" id="Layer_1" xmlns="http://www.w3.org/2000/svg" xmlns:xlink="http://www.w3.org/1999/xlink" x="0px" y="0px"
	 viewBox="0 0 200 120" style="enable-background:new 0 0 200 120;" xml:space="preserve">
<style type="text/css">
	.st0{fill:#FFFFFF;}
	.st1{fill:#231F20;}
	.st2{fill:#AD5726;}
</style>
<g>
	<g>
		<g>
			<path class="st0" d="M55.49,87.11c-0.43-0.58-0.97-1.02-1.61-1.31c-0.64-0.29-1.3-0.44-1.99-0.44c-0.8,0-1.54,0.16-2.21,0.49
				c-0.67,0.33-1.25,0.76-1.74,1.31c-0.49,0.55-0.87,1.19-1.14,1.91c-0.27,0.73-0.41,1.48-0.41,2.27c0,0.84,0.14,1.62,0.41,2.35
				c0.27,0.73,0.65,1.36,1.13,1.89c0.48,0.54,1.06,0.96,1.73,1.27c0.67,0.31,1.41,0.47,2.23,0.47c0.88,0,1.67-0.17,2.36-0.52
				c0.69-0.35,1.29-0.84,1.81-1.49l1.28,1.08c-0.65,0.87-1.43,1.5-2.35,1.91c-0.92,0.41-1.95,0.61-3.1,0.61
				c-1.03,0-1.99-0.19-2.89-0.57c-0.89-0.38-1.67-0.9-2.33-1.58c-0.66-0.67-1.17-1.47-1.55-2.39c-0.37-0.92-0.56-1.93-0.56-3.03
				c0-1.06,0.18-2.05,0.54-2.97c0.36-0.92,0.86-1.72,1.51-2.4c0.65-0.68,1.42-1.21,2.32-1.61c0.89-0.39,1.88-0.59,2.95-0.59
				c0.98,0,1.91,0.18,2.82,0.53c0.9,0.35,1.66,0.93,2.27,1.73L55.49,87.11z"/>
			<path class="st0" d="M67.93,98.91c-1.1,0-2.1-0.19-3.02-0.57c-0.92-0.38-1.71-0.9-2.38-1.58c-0.67-0.67-1.19-1.47-1.57-2.4
				c-0.37-0.93-0.56-1.93-0.56-3.02c0-1.08,0.19-2.09,0.56-3.02c0.37-0.93,0.89-1.73,1.57-2.4c0.67-0.67,1.46-1.2,2.38-1.58
				c0.92-0.38,1.92-0.57,3.02-0.57c1.1,0,2.1,0.19,3.02,0.57c0.92,0.38,1.71,0.9,2.38,1.58c0.67,0.67,1.19,1.47,1.57,2.4
				c0.37,0.93,0.56,1.93,0.56,3.02c0,1.08-0.19,2.09-0.56,3.02c-0.37,0.93-0.89,1.73-1.57,2.4c-0.67,0.67-1.46,1.2-2.38,1.58
				C70.04,98.72,69.03,98.91,67.93,98.91z M67.93,97.32c0.84,0,1.61-0.16,2.31-0.47c0.7-0.31,1.3-0.74,1.8-1.28
				c0.5-0.54,0.89-1.18,1.17-1.9c0.28-0.72,0.42-1.5,0.42-2.33c0-0.83-0.14-1.6-0.42-2.33c-0.28-0.72-0.67-1.36-1.17-1.9
				c-0.5-0.54-1.1-0.97-1.8-1.28c-0.7-0.31-1.47-0.47-2.31-0.47c-0.84,0-1.61,0.16-2.31,0.47c-0.7,0.31-1.3,0.74-1.8,1.28
				c-0.5,0.54-0.89,1.18-1.17,1.9c-0.28,0.73-0.42,1.5-0.42,2.33c0,0.83,0.14,1.6,0.42,2.33c0.28,0.73,0.67,1.36,1.17,1.9
				c0.5,0.54,1.1,0.97,1.8,1.28C66.32,97.17,67.09,97.32,67.93,97.32z"/>
			<path class="st0" d="M79.73,84.15h2.54l4.88,11.29h0.04l4.92-11.29h2.48v14.4h-1.71V86.46h-0.04l-5.16,12.08h-1.04l-5.16-12.08
				h-0.04v12.08h-1.71V84.15z"/>
			<path class="st0" d="M99.69,84.15h4.27c0.66,0,1.3,0.06,1.9,0.19c0.6,0.13,1.14,0.35,1.61,0.65c0.47,0.31,0.84,0.71,1.12,1.22
				c0.28,0.51,0.42,1.14,0.42,1.88c0,0.79-0.15,1.44-0.45,1.95c-0.3,0.52-0.68,0.92-1.15,1.22c-0.47,0.3-0.98,0.51-1.54,0.63
				c-0.56,0.12-1.08,0.18-1.59,0.18h-2.89v6.47h-1.71V84.15z M101.4,90.49h2.89c0.85,0,1.55-0.19,2.08-0.58
				c0.54-0.39,0.8-0.99,0.8-1.8c0-0.81-0.27-1.41-0.8-1.8c-0.54-0.39-1.23-0.58-2.08-0.58h-2.89V90.49z"/>
			<path class="st0" d="M116.45,84.15h1.61l6.12,14.4h-1.99L120.72,95h-7.2l-1.48,3.54h-1.93L116.45,84.15z M117.22,86.34h-0.04
				l-2.99,7.08h5.88L117.22,86.34z"/>
			<path class="st0" d="M127.61,84.15h2.16l8.34,11.96h0.04V84.15h1.71v14.4h-2.16l-8.34-11.96h-0.04v11.96h-1.71V84.15z"/>
			<path class="st0" d="M148.35,92.34l-5.37-8.19h2.18l4.05,6.51l4.17-6.51h2.05l-5.37,8.19v6.2h-1.71V92.34z"/>
		</g>
		<g>
			<path class="st0" d="M79.77,105.51c-0.15-0.2-0.34-0.37-0.57-0.49c-0.23-0.12-0.51-0.19-0.83-0.19c-0.17,0-0.34,0.03-0.51,0.08
				c-0.17,0.05-0.33,0.13-0.47,0.24c-0.14,0.11-0.25,0.24-0.34,0.4c-0.09,0.16-0.13,0.35-0.13,0.57c0,0.22,0.04,0.4,0.12,0.54
				c0.08,0.14,0.19,0.26,0.33,0.36c0.14,0.1,0.29,0.18,0.47,0.24c0.18,0.06,0.36,0.13,0.55,0.19c0.24,0.08,0.47,0.16,0.71,0.25
				c0.24,0.09,0.45,0.21,0.65,0.35c0.19,0.14,0.35,0.33,0.47,0.55c0.12,0.22,0.18,0.5,0.18,0.84c0,0.34-0.06,0.63-0.19,0.88
				c-0.13,0.25-0.3,0.45-0.5,0.61c-0.21,0.16-0.44,0.28-0.71,0.36c-0.27,0.08-0.53,0.12-0.8,0.12c-0.2,0-0.41-0.02-0.61-0.06
				c-0.2-0.04-0.4-0.1-0.59-0.19c-0.19-0.08-0.36-0.19-0.52-0.32c-0.16-0.13-0.3-0.27-0.42-0.44l0.59-0.44
				c0.15,0.24,0.35,0.45,0.62,0.61c0.27,0.16,0.58,0.24,0.94,0.24c0.17,0,0.35-0.03,0.53-0.08c0.18-0.05,0.34-0.14,0.48-0.25
				c0.14-0.11,0.26-0.25,0.35-0.41c0.09-0.16,0.14-0.35,0.14-0.57c0-0.24-0.05-0.43-0.14-0.59c-0.09-0.16-0.22-0.29-0.37-0.39
				c-0.15-0.11-0.33-0.19-0.53-0.26c-0.2-0.07-0.41-0.14-0.62-0.21c-0.22-0.07-0.44-0.15-0.66-0.24c-0.22-0.09-0.41-0.21-0.59-0.35
				c-0.17-0.14-0.31-0.32-0.42-0.53c-0.11-0.21-0.16-0.47-0.16-0.78c0-0.33,0.07-0.61,0.2-0.84c0.13-0.24,0.3-0.43,0.51-0.59
				c0.21-0.15,0.44-0.26,0.7-0.34c0.26-0.07,0.51-0.11,0.76-0.11c0.46,0,0.85,0.08,1.18,0.24c0.33,0.16,0.57,0.36,0.74,0.58
				L79.77,105.51z"/>
			<path class="st0" d="M84.5,110.6h3.17v0.61h-3.86v-6.79h0.69V110.6z"/>
			<path class="st0" d="M97.04,107.82c0,0.52-0.09,0.99-0.27,1.43c-0.18,0.43-0.43,0.81-0.74,1.13c-0.32,0.32-0.69,0.56-1.12,0.74
				c-0.43,0.18-0.9,0.27-1.41,0.27c-0.51,0-0.97-0.09-1.4-0.27c-0.43-0.18-0.81-0.43-1.12-0.74c-0.32-0.32-0.56-0.69-0.74-1.13
				c-0.18-0.43-0.27-0.91-0.27-1.43c0-0.52,0.09-0.99,0.27-1.43c0.18-0.43,0.43-0.81,0.74-1.13c0.32-0.32,0.69-0.56,1.12-0.74
				c0.43-0.18,0.9-0.27,1.4-0.27c0.51,0,0.97,0.09,1.41,0.27c0.43,0.18,0.81,0.43,1.12,0.74c0.32,0.32,0.56,0.69,0.74,1.13
				C96.95,106.82,97.04,107.3,97.04,107.82z M96.31,107.82c0-0.4-0.06-0.77-0.19-1.13c-0.13-0.36-0.31-0.67-0.56-0.94
				c-0.24-0.27-0.54-0.49-0.89-0.65c-0.35-0.16-0.74-0.24-1.18-0.24c-0.43,0-0.83,0.08-1.17,0.24c-0.35,0.16-0.64,0.38-0.89,0.65
				c-0.24,0.27-0.43,0.59-0.56,0.94c-0.13,0.36-0.19,0.73-0.19,1.13c0,0.4,0.06,0.77,0.19,1.13c0.13,0.36,0.31,0.67,0.56,0.94
				c0.24,0.27,0.54,0.48,0.89,0.64c0.35,0.16,0.74,0.24,1.17,0.24c0.43,0,0.83-0.08,1.18-0.24c0.35-0.16,0.64-0.37,0.89-0.64
				c0.24-0.27,0.43-0.58,0.56-0.94C96.25,108.59,96.31,108.22,96.31,107.82z"/>
			<path class="st0" d="M105.55,105.65c-0.24-0.25-0.52-0.44-0.84-0.58c-0.33-0.14-0.7-0.21-1.12-0.21c-0.43,0-0.83,0.08-1.17,0.24
				c-0.35,0.16-0.64,0.38-0.89,0.65c-0.24,0.27-0.43,0.59-0.56,0.94c-0.13,0.36-0.2,0.73-0.2,1.13c0,0.4,0.07,0.77,0.2,1.13
				c0.13,0.36,0.32,0.67,0.56,0.94c0.24,0.27,0.54,0.48,0.89,0.64c0.35,0.16,0.74,0.24,1.17,0.24c0.38,0,0.74-0.04,1.06-0.12
				c0.32-0.08,0.58-0.19,0.78-0.32v-2.06h-1.58v-0.61h2.27v3.07c-0.37,0.22-0.77,0.39-1.2,0.5c-0.43,0.11-0.87,0.16-1.33,0.16
				c-0.51,0-0.98-0.09-1.42-0.27c-0.43-0.18-0.81-0.43-1.12-0.74c-0.31-0.32-0.56-0.69-0.73-1.13c-0.18-0.43-0.26-0.91-0.26-1.43
				c0-0.52,0.09-0.99,0.27-1.43c0.18-0.43,0.43-0.81,0.74-1.13c0.32-0.32,0.69-0.56,1.12-0.74c0.43-0.18,0.9-0.27,1.4-0.27
				c0.54,0,1.02,0.08,1.42,0.24c0.4,0.16,0.75,0.39,1.04,0.68L105.55,105.65z"/>
			<path class="st0" d="M109.74,111.21h-0.76l2.93-6.79h0.67l2.92,6.79h-0.77l-0.75-1.78h-3.51L109.74,111.21z M110.74,108.79h2.99
				l-1.5-3.61L110.74,108.79z"/>
			<path class="st0" d="M123.23,110.2h0.02v-5.78h0.69v6.79h-0.86l-3.95-5.84h-0.02v5.84h-0.69v-6.79h0.86L123.23,110.2z"/>
		</g>
	</g>
	<g>
		<path class="st0" d="M113.44,48.45c0,1.74-0.21,3.47-0.62,5.17c-0.04,0.17-0.07,0.34-0.12,0.51c0,0.01,0,0.01,0,0.02
			c-0.97,3.68-2.89,7.15-5.77,10.04c-2.3,2.3-4.97,3.98-7.82,5.06c0,0-0.01,0-0.01,0.01c-2.54,0.96-5.22,1.44-7.91,1.44
			c-5.5,0-10.98-2.02-15.25-6.06c-0.15-0.15-0.31-0.3-0.47-0.45c-0.15-0.15-0.3-0.31-0.45-0.47c-4.04-4.28-6.06-9.76-6.06-15.25
			c0-0.59,0.03-1.18,0.07-1.76c0.86,1.2,1.83,2.35,2.91,3.42c3.51,3.52,7.77,5.88,12.27,7.07c0.01,0,0.02,0.01,0.03,0.01
			c1.42,0.38,2.87,0.64,4.33,0.78c0.3,0.03,0.61,0.05,0.92,0.07c0.56,0.03,1.12,0.05,1.69,0.05c0.01,0,0.02,0,0.03,0
			c1.55,0,3.09-0.13,4.61-0.4c1.53-0.26,3.03-0.66,4.51-1.18c0.19-0.06,0.37-0.13,0.56-0.2h0c3.49-1.33,6.77-3.4,9.58-6.21
			c1.08-1.08,2.04-2.22,2.9-3.43c0.02,0.25,0.04,0.5,0.05,0.75C113.44,47.78,113.44,48.12,113.44,48.45z"/>
		<path class="st0" d="M131.04,30.84c0,0.59-0.03,1.19-0.07,1.77c-0.86-1.2-1.83-2.35-2.91-3.42c-3.52-3.52-7.77-5.88-12.27-7.07
			c-0.01,0-0.02-0.01-0.03-0.01c-1.71-0.45-3.46-0.74-5.21-0.85c-0.58-0.04-1.17-0.05-1.76-0.05c-0.41,0-0.82,0.01-1.23,0.03
			c-0.54,0.03-1.07,0.07-1.61,0.12c-0.36,0.04-0.71,0.08-1.07,0.13c-0.18,0.03-0.35,0.05-0.53,0.09c-0.08,0.01-0.16,0.02-0.24,0.04
			c-0.02,0-0.04,0-0.05,0.01c-0.08,0.01-0.16,0.03-0.24,0.05c-0.18,0.03-0.35,0.06-0.53,0.1c-0.18,0.04-0.35,0.08-0.53,0.12
			c-0.09,0.02-0.18,0.04-0.26,0.06c-0.05,0.01-0.09,0.02-0.13,0.03c-0.05,0.01-0.09,0.02-0.13,0.04c-0.18,0.04-0.35,0.09-0.53,0.13
			c-0.22,0.06-0.44,0.12-0.65,0.18c-0.02,0.01-0.05,0.01-0.07,0.02c-0.02,0.01-0.04,0.01-0.05,0.02c-0.01,0-0.02,0-0.03,0.01
			c0,0-0.01,0-0.01,0c-0.04,0.01-0.08,0.02-0.12,0.04c-0.02,0-0.03,0.01-0.05,0.01c-0.02,0-0.04,0.01-0.05,0.02
			c-0.1,0.03-0.21,0.07-0.31,0.1c-0.09,0.03-0.18,0.06-0.27,0.09c-0.01,0-0.03,0.01-0.05,0.01c-0.05,0.01-0.09,0.03-0.14,0.05
			c-0.05,0.01-0.09,0.03-0.14,0.05c-0.05,0.01-0.09,0.03-0.13,0.05c-0.17,0.06-0.34,0.12-0.51,0.19h0c-3.49,1.32-6.77,3.4-9.58,6.21
			c-1.08,1.08-2.05,2.22-2.91,3.42c-0.02-0.25-0.04-0.5-0.05-0.74c-0.01-0.34-0.02-0.67-0.02-1c0-0.24,0.02-0.48,0.02-0.72
			c0.05-1.52,0.25-3.05,0.61-4.53c0.03-0.15,0.06-0.29,0.1-0.43c0,0,0-0.01,0-0.01c0.97-3.68,2.88-7.15,5.77-10.04
			c2.3-2.3,4.97-3.98,7.82-5.07c2.56-0.97,5.27-1.45,7.98-1.45c5.47,0,10.92,2.03,15.19,6.06c0.15,0.15,0.31,0.3,0.46,0.45v0
			c0.15,0.15,0.3,0.3,0.45,0.46C129.02,19.88,131.04,25.35,131.04,30.84z"/>
		<path class="st0" d="M89.53,50.12c1.08,1.08,2.22,2.05,3.42,2.91c-0.58,0.05-1.16,0.07-1.75,0.07c-1.91,0-3.82-0.25-5.68-0.74
			c-0.01,0-0.01,0-0.02,0c-3.68-0.97-7.15-2.89-10.03-5.77c-2.3-2.3-3.99-4.97-5.07-7.81c-0.96-2.55-1.45-5.24-1.45-7.93
			c0-5.49,2.02-10.97,6.06-15.25c0.15-0.15,0.3-0.31,0.45-0.46c0.15-0.15,0.31-0.3,0.46-0.45c4.28-4.04,9.76-6.06,15.26-6.06
			c0.59,0,1.17,0.03,1.76,0.07c-0.03,0.02-0.05,0.04-0.08,0.06c-1.17,0.85-2.29,1.8-3.35,2.85c-3.52,3.52-5.88,7.78-7.07,12.28
			c0,0.01-0.01,0.02-0.01,0.03c-0.6,2.28-0.9,4.63-0.9,6.97c0,3.28,0.59,6.56,1.77,9.68C84.65,44.04,86.72,47.32,89.53,50.12z"/>
		<path class="st0" d="M131.04,48.47c0,5.49-2.02,10.97-6.06,15.25c-0.15,0.15-0.3,0.31-0.45,0.46c-0.15,0.15-0.31,0.3-0.46,0.45
			c-4.28,4.04-9.76,6.06-15.25,6.06c-0.59,0-1.18-0.03-1.77-0.07c1.2-0.86,2.35-1.83,3.42-2.9c3.51-3.52,5.88-7.77,7.07-12.27
			c0-0.01,0.01-0.02,0.01-0.03c0.23-0.85,0.41-1.72,0.55-2.59c0.1-0.58,0.17-1.16,0.23-1.74c0.08-0.88,0.13-1.76,0.13-2.63
			c0-3.29-0.59-6.57-1.77-9.69c-0.66-1.75-1.51-3.44-2.55-5.05c-1.03-1.6-2.26-3.12-3.66-4.52c-1.08-1.08-2.23-2.05-3.43-2.91
			c0.25-0.02,0.5-0.04,0.75-0.05c0.33-0.01,0.67-0.02,1-0.02c0.48,0,0.95,0.01,1.44,0.05c1.43,0.09,2.85,0.32,4.24,0.69
			c0,0,0.01,0,0.02,0c3.68,0.97,7.14,2.89,10.03,5.77c2.3,2.3,3.98,4.97,5.07,7.82C130.56,43.09,131.04,45.78,131.04,48.47z"/>
	</g>
</g>
</svg>
