<?xml version="1.0" encoding="utf-8"?>
<!-- Generator: Adobe Illustrator 27.1.0, SVG Export Plug-In . SVG Version: 6.00 Build 0)  -->
<svg version="1.1" id="Layer_1" xmlns="http://www.w3.org/2000/svg" xmlns:xlink="http://www.w3.org/1999/xlink" x="0px" y="0px"
	 viewBox="0 0 200 120" style="enable-background:new 0 0 200 120;" xml:space="preserve">
<style type="text/css">
	.st0{fill:#FFFFFF;}
	.st1{fill:#231F20;}
	.st2{fill:#AD5726;}
</style>
<g>
	<path class="st0" d="M119.52,34.1c1.03,1.1,1.86,2.46,2.5,4.09C121.38,36.56,120.55,35.19,119.52,34.1
		c-0.51-0.54-1.06-1.03-1.66-1.47C118.46,33.06,119.02,33.55,119.52,34.1z"/>
	<path class="st0" d="M114.52,65.5c2.01-0.7,3.68-1.75,5.02-3.17c1.29-1.37,2.28-3.17,2.96-5.37c-0.68,2.21-1.66,4.01-2.96,5.37
		C118.2,63.76,116.54,64.81,114.52,65.5z"/>
	<path class="st0" d="M86.8,58.6c-0.88-2.09-1.42-4.65-1.62-7.64C85.38,53.95,85.92,56.5,86.8,58.6z"/>
	<path class="st0" d="M93.62,65.29c-0.31-0.12-0.61-0.25-0.91-0.39C93,65.04,93.31,65.17,93.62,65.29z"/>
	<path class="st0" d="M75.6,48.1c0,0.07,0,0.13,0,0.2c0,8.97,2.24,15.89,6.67,20.57c4.49,4.75,10.87,7.16,18.94,7.16h6.29
		c8.08,0,14.45-2.41,18.94-7.16c4.42-4.68,6.67-11.6,6.67-20.57c0-9-2.24-15.96-6.65-20.69c-4.5-4.81-10.88-7.25-18.96-7.25h-3.86
		c0.7,2.43,1.04,5.27,1.04,8.55c0,0.32-0.01,0.63-0.01,0.94h0h2.83c4.39,0,7.81,0.91,10.36,2.77c0.6,0.44,1.15,0.93,1.66,1.47
		c1.03,1.1,1.86,2.46,2.5,4.09c1.06,2.68,1.59,6.06,1.59,10.11c0,3.37-0.38,6.26-1.12,8.67c-0.68,2.21-1.66,4.01-2.96,5.37
		c-1.34,1.42-3.01,2.47-5.02,3.17c-1.99,0.69-4.32,1.03-7.02,1.03h-6.3c-2.96,0-5.48-0.41-7.59-1.24c-0.31-0.12-0.61-0.25-0.91-0.39
		c-1.37-0.65-2.55-1.51-3.55-2.57c-0.96-1.01-1.74-2.26-2.36-3.74c-0.88-2.09-1.42-4.65-1.62-7.64c-0.05-0.74-0.08-1.51-0.08-2.31
		h-4.17C78.99,48.64,77.22,48.46,75.6,48.1C75.6,48.1,75.6,48.1,75.6,48.1L75.6,48.1z"/>
	<path class="st0" d="M86.8,58.6c0.62,1.48,1.41,2.73,2.36,3.74c1,1.06,2.18,1.91,3.55,2.57c-1.37-0.65-2.55-1.51-3.55-2.57
		C88.21,61.33,87.42,60.07,86.8,58.6z"/>
	<path class="st0" d="M122.5,56.97c0.74-2.41,1.12-5.3,1.12-8.67c0-4.06-0.53-7.44-1.59-10.11c1.06,2.68,1.59,6.06,1.59,10.11
		C123.61,51.67,123.24,54.56,122.5,56.97z"/>
	<path class="st0" d="M107.5,29.86c4.39,0,7.81,0.91,10.36,2.77C115.31,30.77,111.89,29.86,107.5,29.86l-2.82,0c0,0,0,0,0,0H107.5z"
		/>
	<path class="st0" d="M101.21,66.53c-2.96,0-5.48-0.41-7.59-1.24C95.73,66.12,98.24,66.53,101.21,66.53l6.3,0
		c2.7,0,5.03-0.34,7.02-1.03c-1.99,0.69-4.32,1.03-7.02,1.03H101.21z"/>
	<path class="st0" d="M85.1,48.64L85.1,48.64c0.01,0.8,0.03,1.57,0.08,2.31C85.13,50.21,85.1,49.44,85.1,48.64z"/>
	<path class="st0" d="M100.49,43.48c2.69-3.11,4.06-7.57,4.19-13.62h0c0,0,0,0,0,0h-3.47c-2.28,0-4.29,0.25-6.06,0.75
		c-2.44,0.68-4.42,1.84-5.96,3.5c-1.23,1.31-2.17,3-2.85,5.05c-0.83,2.51-1.24,5.57-1.24,9.15c0,0.12,0,0.23,0,0.35h2.12
		C93.06,48.64,97.52,46.9,100.49,43.48z"/>
	<polygon class="st0" points="104.68,29.86 104.68,29.86 104.68,29.86 104.68,29.86 	"/>
	<polygon class="st0" points="104.68,29.86 104.68,29.86 104.68,29.86 104.68,29.86 	"/>
	<path class="st0" d="M75.6,48.1C75.6,48.1,75.6,48.09,75.6,48.1L75.6,48.1c0.01-3.51,0.37-6.7,1.06-9.56
		c0.32-1.32,0.72-2.57,1.18-3.75c-0.46,1.19-0.86,2.43-1.18,3.75c-0.77-0.28-1.44-0.67-1.92-1.23c-0.69-0.8-1.86-2.95-1.86-8.32
		c0-5.44,1.19-7.64,1.9-8.47c1.08-1.26,3.14-1.9,6.14-1.9h6.29c2.99,0,5.03,0.63,6.09,1.88c0.14,0.16,0.3,0.39,0.46,0.67
		c2.29-0.53,4.77-0.8,7.44-0.8h2.44c-0.68-2.38-1.71-4.37-3.09-6c-2.94-3.48-7.43-5.24-13.34-5.24h-6.29
		c-5.9,0-10.39,1.76-13.35,5.22c-2.82,3.29-4.18,8.08-4.18,14.65c0,6.53,1.36,11.28,4.16,14.53C69.53,45.81,72.23,47.34,75.6,48.1z"
		/>
	<polygon class="st0" points="75.6,48.1 75.6,48.1 75.6,48.09 75.6,48.09 	"/>
	<polygon class="st0" points="75.6,48.1 75.6,48.1 75.6,48.09 75.6,48.09 	"/>
	<path class="st0" d="M61.53,98.62c-0.58,0.29-1.24,0.44-1.98,0.44c-0.68,0-1.31-0.13-1.87-0.39c-0.56-0.26-1.05-0.62-1.45-1.07
		c-0.4-0.45-0.72-0.98-0.95-1.59c-0.23-0.61-0.34-1.27-0.34-1.97c0-0.66,0.11-1.3,0.34-1.91c0.23-0.61,0.55-1.15,0.96-1.61
		c0.41-0.46,0.9-0.83,1.46-1.1c0.56-0.27,1.18-0.41,1.85-0.41c0.58,0,1.14,0.12,1.68,0.37c0.54,0.24,0.99,0.61,1.35,1.1l1.25-0.91
		c-0.51-0.67-1.15-1.16-1.91-1.45c-0.76-0.3-1.55-0.44-2.37-0.44c-0.9,0-1.73,0.17-2.48,0.5c-0.75,0.33-1.4,0.78-1.95,1.35
		c-0.55,0.57-0.97,1.24-1.27,2.02c-0.3,0.78-0.45,1.61-0.45,2.5c0,0.92,0.16,1.77,0.47,2.55c0.31,0.77,0.75,1.44,1.3,2.01
		c0.55,0.56,1.21,1.01,1.96,1.32c0.75,0.32,1.56,0.48,2.43,0.48c0.97,0,1.84-0.17,2.61-0.51c0.77-0.34,1.43-0.88,1.97-1.61
		l-1.08-0.91C62.62,97.91,62.11,98.33,61.53,98.62z"/>
	<path class="st0" d="M77.58,89.48c-0.56-0.56-1.23-1.01-2-1.32c-0.77-0.32-1.62-0.48-2.54-0.48s-1.77,0.16-2.54,0.48
		c-0.77,0.32-1.44,0.76-2,1.32c-0.56,0.56-1,1.24-1.32,2.02c-0.31,0.78-0.47,1.63-0.47,2.54c0,0.91,0.16,1.76,0.47,2.54
		c0.31,0.78,0.75,1.45,1.32,2.02c0.56,0.56,1.23,1.01,2,1.32c0.77,0.32,1.62,0.48,2.54,0.48s1.77-0.16,2.54-0.48
		c0.77-0.32,1.44-0.76,2-1.32c0.56-0.56,1-1.24,1.32-2.02c0.31-0.78,0.47-1.63,0.47-2.54c0-0.91-0.16-1.76-0.47-2.54
		C78.58,90.71,78.14,90.04,77.58,89.48z M77.48,95.99c-0.23,0.61-0.56,1.14-0.98,1.6c-0.42,0.46-0.93,0.82-1.51,1.08
		c-0.59,0.26-1.23,0.39-1.94,0.39c-0.71,0-1.35-0.13-1.94-0.39c-0.59-0.26-1.09-0.62-1.51-1.08c-0.42-0.46-0.75-0.99-0.98-1.6
		c-0.23-0.61-0.35-1.26-0.35-1.96c0-0.7,0.12-1.35,0.35-1.96c0.23-0.61,0.56-1.14,0.98-1.6c0.42-0.46,0.93-0.81,1.51-1.08
		c0.59-0.26,1.23-0.39,1.94-0.39c0.71,0,1.35,0.13,1.94,0.39c0.59,0.26,1.09,0.62,1.51,1.08c0.42,0.46,0.75,0.99,0.98,1.6
		c0.23,0.61,0.35,1.26,0.35,1.96C77.83,94.73,77.71,95.38,77.48,95.99z"/>
	<polygon class="st0" points="94.02,89.93 94.02,100.09 95.45,100.09 95.45,87.98 93.37,87.98 89.23,97.47 89.2,97.47 85.09,87.98 
		82.95,87.98 82.95,100.09 84.39,100.09 84.39,89.93 84.43,89.93 88.77,100.09 89.64,100.09 93.98,89.93 	"/>
	<path class="st0" d="M107.22,89.72c-0.23-0.43-0.55-0.77-0.94-1.03c-0.39-0.26-0.84-0.44-1.35-0.55c-0.51-0.11-1.04-0.16-1.6-0.16
		h-3.59v12.1h1.44v-5.44h2.43c0.42,0,0.87-0.05,1.33-0.15c0.47-0.1,0.9-0.28,1.29-0.53c0.39-0.25,0.71-0.59,0.97-1.03
		s0.38-0.98,0.38-1.64C107.57,90.67,107.46,90.14,107.22,89.72z M105.36,92.83c-0.45,0.33-1.03,0.49-1.75,0.49h-2.43v-4h2.43
		c0.72,0,1.3,0.16,1.75,0.49c0.45,0.33,0.68,0.83,0.68,1.51C106.03,92,105.81,92.5,105.36,92.83z"/>
	<path class="st0" d="M113.83,87.98l-5.33,12.1h1.62l1.25-2.97h6.05l1.23,2.97h1.68l-5.15-12.1H113.83z M111.93,95.78l2.51-5.95
		h0.03l2.39,5.95H111.93z"/>
	<polygon class="st0" points="132.07,98.03 132.04,98.03 125.03,87.98 123.22,87.98 123.22,100.09 124.65,100.09 124.65,90.03 
		124.69,90.03 131.7,100.09 133.51,100.09 133.51,87.98 132.07,87.98 	"/>
	<polygon class="st0" points="144.88,87.98 141.37,93.45 137.97,87.98 136.14,87.98 140.66,94.87 140.66,100.09 142.09,100.09 
		142.09,94.87 146.6,87.98 	"/>
	<path class="st0" d="M82.97,108.07c-0.16-0.12-0.34-0.22-0.54-0.29c-0.2-0.08-0.4-0.15-0.6-0.21c-0.16-0.05-0.32-0.11-0.46-0.16
		c-0.15-0.05-0.28-0.12-0.39-0.21c-0.12-0.08-0.21-0.18-0.28-0.3c-0.07-0.12-0.1-0.27-0.1-0.45c0-0.18,0.04-0.34,0.11-0.48
		s0.17-0.25,0.29-0.33c0.12-0.09,0.25-0.15,0.4-0.2c0.15-0.04,0.29-0.06,0.43-0.06c0.27,0,0.51,0.05,0.7,0.16
		c0.19,0.11,0.35,0.24,0.48,0.42l0.46-0.37c-0.14-0.19-0.35-0.35-0.62-0.49c-0.27-0.14-0.6-0.21-0.99-0.21
		c-0.21,0-0.42,0.03-0.64,0.09c-0.21,0.06-0.41,0.15-0.59,0.28c-0.18,0.13-0.32,0.29-0.43,0.49c-0.11,0.2-0.17,0.44-0.17,0.71
		c0,0.26,0.04,0.48,0.13,0.65c0.09,0.18,0.21,0.33,0.35,0.45c0.15,0.12,0.31,0.22,0.49,0.29c0.18,0.08,0.37,0.14,0.56,0.2
		c0.18,0.06,0.36,0.12,0.52,0.18c0.17,0.06,0.31,0.13,0.44,0.22c0.13,0.09,0.23,0.2,0.31,0.33c0.08,0.13,0.12,0.3,0.12,0.5
		c0,0.18-0.04,0.34-0.12,0.48c-0.08,0.14-0.18,0.25-0.3,0.35c-0.12,0.09-0.26,0.16-0.41,0.21c-0.15,0.05-0.3,0.07-0.44,0.07
		c-0.3,0-0.56-0.07-0.79-0.21c-0.22-0.14-0.4-0.31-0.52-0.51l-0.5,0.37c0.1,0.14,0.22,0.26,0.35,0.37c0.13,0.11,0.28,0.2,0.44,0.27
		c0.16,0.07,0.32,0.12,0.49,0.16c0.17,0.03,0.34,0.05,0.52,0.05c0.23,0,0.45-0.03,0.67-0.1c0.22-0.06,0.42-0.16,0.6-0.3
		c0.17-0.13,0.31-0.3,0.42-0.51c0.11-0.21,0.16-0.45,0.16-0.74c0-0.28-0.05-0.52-0.15-0.71C83.27,108.35,83.14,108.19,82.97,108.07z
		"/>
	<polygon class="st0" points="86.96,105.03 86.38,105.03 86.38,110.74 89.63,110.74 89.63,110.22 86.96,110.22 	"/>
	<path class="st0" d="M96.66,105.74c-0.27-0.27-0.58-0.47-0.94-0.63c-0.36-0.15-0.76-0.23-1.18-0.23c-0.42,0-0.82,0.08-1.18,0.23
		c-0.36,0.15-0.68,0.36-0.94,0.63c-0.27,0.27-0.47,0.58-0.62,0.95c-0.15,0.37-0.23,0.77-0.23,1.2c0,0.44,0.08,0.84,0.23,1.2
		c0.15,0.37,0.36,0.68,0.62,0.95c0.27,0.27,0.58,0.47,0.94,0.63c0.36,0.15,0.76,0.23,1.18,0.23c0.42,0,0.82-0.08,1.18-0.23
		c0.36-0.15,0.68-0.36,0.94-0.63c0.27-0.27,0.47-0.58,0.62-0.95c0.15-0.37,0.23-0.77,0.23-1.2c0-0.44-0.08-0.84-0.23-1.2
		C97.14,106.32,96.93,106,96.66,105.74z M96.74,108.84c-0.11,0.3-0.26,0.56-0.47,0.79c-0.2,0.23-0.45,0.4-0.75,0.54
		c-0.29,0.13-0.62,0.2-0.99,0.2c-0.37,0-0.69-0.07-0.99-0.2c-0.29-0.13-0.54-0.31-0.75-0.54c-0.2-0.23-0.36-0.49-0.47-0.79
		c-0.11-0.3-0.16-0.62-0.16-0.95c0-0.33,0.05-0.65,0.16-0.95c0.11-0.3,0.26-0.56,0.47-0.79c0.2-0.23,0.45-0.41,0.75-0.54
		c0.29-0.13,0.62-0.2,0.99-0.2c0.37,0,0.7,0.07,0.99,0.2c0.29,0.13,0.54,0.32,0.75,0.54c0.2,0.23,0.36,0.49,0.47,0.79
		c0.11,0.3,0.16,0.62,0.16,0.95C96.9,108.22,96.85,108.54,96.74,108.84z"/>
	<path class="st0" d="M103.22,108.26h1.33V110c-0.17,0.11-0.38,0.2-0.65,0.27c-0.27,0.07-0.56,0.11-0.89,0.11
		c-0.37,0-0.69-0.07-0.99-0.2c-0.29-0.13-0.54-0.31-0.75-0.54c-0.2-0.23-0.36-0.49-0.47-0.79c-0.11-0.3-0.17-0.62-0.17-0.95
		c0-0.33,0.05-0.65,0.17-0.95c0.11-0.3,0.27-0.56,0.47-0.79c0.2-0.23,0.45-0.41,0.75-0.54c0.29-0.13,0.62-0.2,0.99-0.2
		c0.35,0,0.67,0.06,0.94,0.17c0.27,0.12,0.51,0.28,0.71,0.49l0.4-0.4c-0.24-0.24-0.53-0.43-0.87-0.57c-0.34-0.14-0.74-0.2-1.19-0.2
		c-0.42,0-0.82,0.08-1.18,0.23c-0.36,0.15-0.68,0.36-0.94,0.63c-0.27,0.27-0.47,0.58-0.62,0.95c-0.15,0.37-0.23,0.77-0.23,1.2
		c0,0.44,0.07,0.84,0.22,1.2c0.15,0.37,0.35,0.68,0.62,0.95c0.26,0.27,0.58,0.47,0.94,0.63c0.37,0.15,0.76,0.23,1.19,0.23
		c0.39,0,0.76-0.05,1.12-0.14c0.36-0.09,0.7-0.23,1.01-0.42v-2.58h-1.91V108.26z"/>
	<path class="st0" d="M110.02,105.03l-2.47,5.71h0.64l0.62-1.5h2.95l0.63,1.5h0.65l-2.45-5.71H110.02z M109.03,108.71l1.26-3.03
		l1.26,3.03H109.03z"/>
	<polygon class="st0" points="119.55,109.89 119.54,109.89 116.21,105.03 115.49,105.03 115.49,110.74 116.07,110.74 116.07,105.83 
		116.08,105.83 119.41,110.74 120.13,110.74 120.13,105.03 119.55,105.03 	"/>
</g>
</svg>
