<?xml version="1.0" encoding="utf-8"?>
<!-- Generator: Adobe Illustrator 27.1.0, SVG Export Plug-In . SVG Version: 6.00 Build 0)  -->
<svg version="1.1" id="Layer_1" xmlns="http://www.w3.org/2000/svg" xmlns:xlink="http://www.w3.org/1999/xlink" x="0px" y="0px"
	 viewBox="0 0 200 120" style="enable-background:new 0 0 200 120;" xml:space="preserve">
<style type="text/css">
	.st0{fill:#FFFFFF;}
	.st1{fill:#231F20;}
	.st2{fill:#AD5726;}
</style>
<g>
	<path class="st0" d="M55.68,104.4c1.18,0,2.26-0.47,3.06-1.23l-1.25-1.25c-0.47,0.43-1.11,0.7-1.8,0.7c-1.48,0-2.67-1.18-2.67-2.66
		c0-1.46,1.2-2.66,2.67-2.66c0.69,0,1.34,0.27,1.8,0.71l1.25-1.27c-0.8-0.76-1.87-1.23-3.06-1.23c-2.45,0-4.44,1.99-4.44,4.44
		C51.24,102.41,53.23,104.4,55.68,104.4z"/>
	<path class="st0" d="M74.88,99.96c0-2.45-1.99-4.44-4.44-4.44c-2.45,0-4.44,1.99-4.44,4.44c0,2.45,1.99,4.44,4.44,4.44
		C72.89,104.4,74.88,102.41,74.88,99.96z M70.44,102.63c-1.48,0-2.67-1.2-2.67-2.67c0-1.46,1.2-2.66,2.67-2.66
		c1.46,0,2.66,1.2,2.66,2.66C73.1,101.44,71.91,102.63,70.44,102.63z"/>
	<polygon class="st0" points="91.75,104.4 91.75,95.52 89.84,95.52 87.25,102.01 84.64,95.52 82.73,95.52 82.73,104.4 84.5,104.4 
		84.5,99.96 86.28,104.4 88.2,104.4 89.98,99.96 89.98,104.4 	"/>
	<path class="st0" d="M101.36,100.85h0.73c1.46,0,2.65-1.2,2.65-2.66c0-1.48-1.18-2.67-2.66-2.67H99.6v8.88h1.77V100.85z
		 M101.36,97.3h0.72c0.49,0,0.89,0.4,0.89,0.89c0,0.48-0.4,0.88-0.89,0.88h-0.72V97.3z"/>
	<path class="st0" d="M116.52,95.52h-1.89l-3.21,8.88h1.89l0.9-2.48h2.73l0.9,2.48h1.89L116.52,95.52z M114.85,100.14l0.71-2l0.73,2
		H114.85z"/>
	<polygon class="st0" points="134.74,104.4 134.74,95.52 132.97,95.52 132.97,101.45 129.42,95.52 127.34,95.52 127.34,104.4 
		129.11,104.4 129.11,98.48 132.67,104.4 	"/>
	<polygon class="st0" points="144.33,95.52 142.35,95.52 144.67,100.17 144.67,104.4 146.44,104.4 146.44,100.17 148.76,95.52 
		146.78,95.52 145.56,97.98 	"/>
	<polygon class="st0" points="52.25,111.97 52.83,111.97 52.83,108.71 53.86,108.71 53.86,108.21 51.22,108.21 51.22,108.71 
		52.25,108.71 	"/>
	<path class="st0" d="M58.01,108.21l-1.37,3.76h0.6l0.29-0.84h1.43l0.29,0.84h0.6l-1.37-3.76H58.01z M57.7,110.62l0.54-1.64h0.01
		l0.54,1.64H57.7z"/>
	<path class="st0" d="M63.97,109.02c0.06-0.08,0.14-0.14,0.24-0.19c0.1-0.05,0.21-0.08,0.35-0.08c0.18,0,0.34,0.06,0.46,0.16
		c0.12,0.11,0.21,0.24,0.25,0.39h0.6c-0.06-0.31-0.2-0.58-0.43-0.79c-0.23-0.21-0.52-0.32-0.89-0.32c-0.3,0-0.54,0.07-0.74,0.21
		c-0.2,0.14-0.35,0.29-0.44,0.46c-0.06,0.09-0.1,0.21-0.13,0.36c-0.03,0.15-0.04,0.44-0.04,0.88c0,0.43,0.01,0.72,0.04,0.87
		c0.01,0.08,0.03,0.15,0.05,0.2c0.02,0.05,0.05,0.11,0.07,0.16c0.09,0.17,0.24,0.33,0.44,0.46c0.2,0.14,0.45,0.21,0.74,0.22
		c0.38-0.01,0.7-0.14,0.96-0.39c0.25-0.25,0.38-0.57,0.39-0.95v-0.77h-1.34v0.54h0.77v0.2c0,0.24-0.08,0.43-0.22,0.57
		c-0.14,0.15-0.33,0.23-0.55,0.23c-0.13,0-0.25-0.03-0.35-0.09c-0.1-0.05-0.18-0.11-0.24-0.19c-0.07-0.08-0.12-0.19-0.15-0.32
		c-0.03-0.13-0.04-0.38-0.04-0.75c0-0.37,0.01-0.62,0.04-0.76C63.85,109.2,63.9,109.1,63.97,109.02z"/>
	<polygon class="st0" points="69.73,108.21 69.73,111.97 72.14,111.97 72.14,111.43 70.31,111.43 70.31,108.21 	"/>
	<rect x="75.85" y="108.21" class="st0" width="0.57" height="3.76"/>
	<polygon class="st0" points="82.63,110.88 82.62,110.88 80.92,108.21 80.38,108.21 80.38,111.97 80.95,111.97 80.95,109.29 
		80.96,109.29 82.66,111.97 83.2,111.97 83.2,108.21 82.63,108.21 	"/>
	<polygon class="st0" points="89.57,108.75 89.57,108.21 87.17,108.21 87.17,111.97 89.57,111.97 89.57,111.43 87.74,111.43 
		87.74,110.32 89.3,110.32 89.3,109.82 87.74,109.82 87.74,108.75 	"/>
	<path class="st0" d="M98.2,108.39c-0.2,0.14-0.35,0.29-0.44,0.46c-0.06,0.09-0.1,0.21-0.13,0.36c-0.03,0.15-0.04,0.44-0.04,0.88
		c0,0.43,0.01,0.72,0.04,0.87c0.01,0.08,0.03,0.15,0.05,0.2c0.02,0.05,0.05,0.11,0.07,0.16c0.09,0.17,0.24,0.33,0.44,0.46
		c0.2,0.14,0.45,0.21,0.74,0.22c0.38-0.01,0.7-0.14,0.96-0.39c0.25-0.25,0.38-0.57,0.39-0.95v-0.77h-1.34v0.54h0.77v0.2
		c0,0.24-0.08,0.43-0.22,0.57c-0.14,0.15-0.33,0.23-0.55,0.23c-0.13,0-0.25-0.03-0.35-0.09c-0.1-0.05-0.18-0.11-0.24-0.19
		c-0.07-0.08-0.12-0.19-0.15-0.32c-0.03-0.13-0.04-0.38-0.04-0.75c0-0.37,0.01-0.62,0.04-0.76c0.02-0.13,0.07-0.23,0.15-0.31
		c0.06-0.08,0.14-0.14,0.24-0.19c0.1-0.05,0.21-0.08,0.35-0.08c0.18,0,0.34,0.06,0.46,0.16c0.12,0.11,0.21,0.24,0.25,0.39h0.6
		c-0.06-0.31-0.2-0.58-0.43-0.79c-0.23-0.21-0.52-0.32-0.89-0.32C98.64,108.18,98.39,108.25,98.2,108.39z"/>
	<path class="st0" d="M106.51,111.32c0.06-0.09,0.11-0.21,0.13-0.36c0.02-0.15,0.03-0.44,0.03-0.87c0-0.44-0.01-0.73-0.03-0.88
		c-0.02-0.15-0.07-0.27-0.13-0.36c-0.09-0.17-0.23-0.33-0.43-0.46c-0.2-0.14-0.45-0.21-0.75-0.21c-0.3,0-0.54,0.07-0.74,0.21
		c-0.2,0.14-0.35,0.29-0.44,0.46c-0.06,0.09-0.1,0.21-0.13,0.36c-0.03,0.15-0.04,0.44-0.04,0.88c0,0.43,0.01,0.72,0.04,0.87
		c0.01,0.08,0.03,0.15,0.05,0.2c0.02,0.05,0.05,0.11,0.07,0.16c0.09,0.17,0.24,0.33,0.44,0.46c0.2,0.14,0.45,0.21,0.74,0.22
		c0.3-0.01,0.55-0.08,0.75-0.22C106.28,111.65,106.42,111.5,106.51,111.32z M105.91,111.16c-0.06,0.08-0.13,0.14-0.23,0.19
		c-0.1,0.06-0.22,0.09-0.35,0.09c-0.13,0-0.25-0.03-0.35-0.09c-0.1-0.05-0.18-0.11-0.24-0.19c-0.07-0.08-0.12-0.19-0.15-0.32
		c-0.03-0.13-0.04-0.38-0.04-0.75c0-0.37,0.01-0.62,0.04-0.76c0.02-0.13,0.07-0.23,0.15-0.31c0.06-0.08,0.14-0.14,0.24-0.19
		c0.1-0.05,0.21-0.08,0.35-0.08c0.14,0,0.25,0.03,0.35,0.08c0.09,0.05,0.17,0.12,0.23,0.19c0.07,0.08,0.12,0.18,0.15,0.31
		c0.03,0.13,0.04,0.39,0.04,0.76c0,0.37-0.01,0.62-0.04,0.75C106.04,110.97,105.99,111.08,105.91,111.16z"/>
	<polygon class="st0" points="112.92,108.75 112.92,108.21 110.51,108.21 110.51,111.97 112.92,111.97 112.92,111.43 111.08,111.43 
		111.08,110.32 112.65,110.32 112.65,109.82 111.08,109.82 111.08,108.75 	"/>
	<path class="st0" d="M117.74,111.43c-0.41,0-0.77-0.13-1.07-0.37l-0.37,0.43c0.4,0.34,0.88,0.52,1.44,0.52
		c0.86-0.01,1.3-0.38,1.32-1.09c0-0.27-0.08-0.5-0.25-0.7c-0.17-0.2-0.43-0.33-0.78-0.38c-0.18-0.02-0.32-0.04-0.42-0.06
		c-0.19-0.03-0.32-0.1-0.41-0.19c-0.08-0.09-0.13-0.19-0.13-0.29c0-0.18,0.07-0.32,0.19-0.41c0.12-0.09,0.26-0.13,0.44-0.13
		c0.34,0.01,0.65,0.1,0.93,0.29l0.32-0.47c-0.35-0.25-0.75-0.38-1.22-0.39c-0.39,0-0.69,0.1-0.9,0.3c-0.22,0.2-0.33,0.47-0.33,0.8
		c0,0.27,0.09,0.51,0.26,0.7c0.17,0.19,0.41,0.31,0.74,0.36c0.18,0.03,0.35,0.05,0.5,0.07c0.33,0.06,0.49,0.23,0.49,0.51
		C118.48,111.25,118.23,111.42,117.74,111.43z"/>
	<polygon class="st0" points="129.9,111.97 129.9,108.21 129.33,108.21 129.33,109.82 127.84,109.82 127.84,108.21 127.27,108.21 
		127.27,111.97 127.84,111.97 127.84,110.32 129.33,110.32 129.33,111.97 	"/>
	<polygon class="st0" points="136.27,108.75 136.27,108.21 133.87,108.21 133.87,111.97 136.27,111.97 136.27,111.43 134.44,111.43 
		134.44,110.32 136,110.32 136,109.82 134.44,109.82 134.44,108.75 	"/>
	<path class="st0" d="M140.55,110.36h0.73l0.78,1.61h0.68l-0.87-1.67c0.48-0.18,0.72-0.53,0.73-1.04c-0.01-0.35-0.13-0.62-0.37-0.8
		c-0.2-0.17-0.45-0.25-0.77-0.25h-1.47v3.76h0.57V110.36z M140.55,108.71h0.89c0.18,0,0.32,0.04,0.42,0.12
		c0.12,0.09,0.18,0.23,0.19,0.43c0,0.16-0.05,0.3-0.16,0.41c-0.11,0.12-0.27,0.18-0.48,0.19h-0.86V108.71z"/>
	<polygon class="st0" points="148.78,108.75 148.78,108.21 146.37,108.21 146.37,111.97 148.78,111.97 148.78,111.43 146.94,111.43 
		146.94,110.32 148.51,110.32 148.51,109.82 146.94,109.82 146.94,108.75 	"/>
	<path class="st0" d="M63.62,41.19l0,0.03l-0.01,0.05c-0.01,0.06-0.02,0.13-0.03,0.19v0.01l0,0l0,0c0,0.01,0,0.02,0,0.04
		c0,0.04-0.01,0.07-0.01,0.11l-0.01,0.1l0,0.02l0,0.03l0,0l0,0.02l0,0.01l0,0.01l0,0.03l0,0.02l0,0l0,0.02
		c-0.02,0.12-0.03,0.24-0.05,0.37c-0.01,0.11-0.02,0.22-0.04,0.33c0,0.04-0.01,0.08-0.01,0.13v0l0,0.01l0,0
		c-0.02,0.13-0.03,0.27-0.04,0.4c-0.01,0.1-0.02,0.2-0.03,0.3v0.01l-0.01,0.1c0,0.04-0.01,0.08-0.01,0.12
		c0,0.04-0.01,0.08-0.01,0.13c0,0.02,0,0.04-0.01,0.06c0,0.03-0.01,0.06-0.01,0.1c0,0.04-0.01,0.08-0.01,0.12c0,0.02,0,0.04,0,0.06
		c-0.01,0.14-0.02,0.28-0.03,0.44l0,0l0,0v0.01c0,0.07-0.01,0.14-0.01,0.21c0,0.07-0.01,0.15-0.01,0.22l0,0.01l0,0.01v0.01v0.01
		c0,0.01,0,0.02,0,0.02c0,0.02,0,0.03,0,0.05v0.02v0l0,0l0,0.02c0,0.08-0.01,0.16-0.01,0.25c0,0.04,0,0.07,0,0.11
		c-0.01,0.15-0.01,0.29-0.01,0.44c0,0.02,0,0.05,0,0.07v0.05c0,0.12-0.01,0.24-0.01,0.35l0,0.07l0,0.03v0v0.12c0,0.04,0,0.07,0,0.11
		c0,0.03,0,0.05,0,0.08c0,0.02,0,0.05,0,0.08c0,0.04,0,0.07,0,0.11v0.12l0,0.1c0.1,7,2.91,13.56,7.9,18.48
		c4.99,4.93,11.61,7.64,18.62,7.64c1.11,0,2.22-0.07,3.31-0.21c0.5-0.06,0.99-0.13,1.48-0.22c0,0,0,0,0,0
		c-3.63-2.19-6.77-5.13-9.24-8.67c-0.89-1.28-1.68-2.62-2.36-4c-0.15-0.31-0.3-0.63-0.44-0.94c-0.02-0.03-0.03-0.07-0.05-0.1
		c-1.72-3.87-2.61-8.06-2.61-12.37c0-6.27,1.89-12.3,5.47-17.42c0.82-1.18,1.72-2.29,2.68-3.33c3.14-3.38,6.99-6.01,11.33-7.69
		c1.31-0.51,2.66-0.92,4.02-1.24c2.27-0.53,4.61-0.8,6.98-0.8c5.54,0,10.86,1.47,15.51,4.23c0,0,0,0,0,0c0,0,0-0.01-0.01-0.01
		c-0.04-0.04-0.09-0.09-0.13-0.13c-0.06-0.06-0.12-0.11-0.18-0.17c-0.02-0.02-0.04-0.03-0.05-0.05l0,0l-0.01-0.01l-0.01-0.01
		l-0.01-0.01c-0.05-0.05-0.11-0.1-0.16-0.15c-0.06-0.05-0.11-0.11-0.17-0.16l-0.01-0.01l-0.01-0.01l-0.01-0.01
		c-0.01-0.01-0.02-0.02-0.03-0.03c-0.07-0.06-0.13-0.12-0.19-0.18l-0.01-0.01l-0.08-0.08c-0.01-0.01-0.03-0.03-0.04-0.04
		c-0.09-0.09-0.19-0.17-0.28-0.25c-0.11-0.09-0.21-0.18-0.31-0.27c-0.03-0.03-0.07-0.06-0.1-0.09c-0.07-0.06-0.14-0.12-0.21-0.18
		l-0.14-0.12l-0.08-0.06l0,0l-0.06-0.05l-0.03-0.02c-0.09-0.07-0.17-0.14-0.25-0.2l-0.01-0.01l-0.01,0l-0.01-0.01l-0.01-0.01
		c-0.06-0.05-0.12-0.1-0.19-0.15l0,0l-0.01-0.01l0,0l0,0c-0.2-0.16-0.41-0.32-0.61-0.48l0,0l-0.01,0c-0.06-0.04-0.11-0.09-0.17-0.13
		l-0.07-0.05l-0.04-0.03c-0.01-0.01-0.02-0.01-0.03-0.02c0,0-0.01,0-0.01-0.01l0,0l-0.01-0.01l-0.01,0l-0.01-0.01l-0.12-0.09
		l-0.04-0.03l-0.16-0.12c-0.02-0.01-0.03-0.02-0.05-0.04c-0.03-0.02-0.06-0.04-0.09-0.06l-0.06-0.05l0,0l0,0l0,0l0,0
		c-0.06-0.05-0.12-0.09-0.19-0.13c-0.01-0.01-0.03-0.02-0.04-0.03l-0.02-0.01l-0.02-0.01c-0.15-0.11-0.31-0.21-0.46-0.32l0,0l0,0
		l-0.01,0c-0.07-0.05-0.14-0.1-0.21-0.14c-0.02-0.01-0.03-0.02-0.05-0.03l0,0l-0.01,0c-0.1-0.07-0.21-0.14-0.31-0.2
		c-0.01,0-0.01-0.01-0.02-0.01l0,0l-0.01-0.01l-0.01-0.01c-0.02-0.01-0.04-0.03-0.07-0.04c-0.07-0.05-0.15-0.1-0.22-0.15l-0.01-0.01
		l0,0l-0.01-0.01c-0.11-0.07-0.22-0.14-0.34-0.21l-0.01-0.01l0,0l-0.02-0.01c-0.11-0.07-0.23-0.15-0.35-0.22l-0.19-0.11l0,0
		c-0.03-0.02-0.06-0.03-0.09-0.05c-0.04-0.02-0.07-0.04-0.11-0.06l-0.01,0l0,0l0,0l-0.01,0c-0.02-0.01-0.04-0.02-0.07-0.04
		c-0.08-0.05-0.17-0.1-0.25-0.15l-0.06-0.04c-0.03-0.02-0.06-0.03-0.09-0.05c-0.08-0.05-0.16-0.09-0.23-0.13
		c-0.01,0-0.02-0.01-0.02-0.01c-0.52-0.29-1.05-0.57-1.59-0.84c-0.01-0.01-0.02-0.01-0.04-0.02l-0.01,0l0,0l-0.01-0.01
		c-0.12-0.06-0.24-0.12-0.36-0.17l-0.32-0.15l0,0c-0.01,0-0.02-0.01-0.03-0.01c-0.01,0-0.01-0.01-0.02-0.01l-0.01,0l0,0l-0.01,0
		c-0.37-0.18-0.71-0.33-1.05-0.47l-0.01,0l-0.01,0l-0.01,0l-0.01,0c-0.08-0.04-0.16-0.07-0.24-0.1l-0.03-0.01l-0.02-0.01l0,0l0,0
		l-0.14-0.06c-0.05-0.02-0.1-0.04-0.15-0.06c-0.02-0.01-0.05-0.02-0.07-0.03c-0.35-0.14-0.65-0.26-0.91-0.36l-0.16-0.06l-0.02-0.01
		l-0.17-0.06c-0.45-0.16-0.92-0.32-1.39-0.47l-0.01,0l-0.01,0c-0.01,0-0.02,0-0.02-0.01c-0.09-0.03-0.18-0.06-0.27-0.08
		c-0.09-0.03-0.18-0.06-0.28-0.08c-0.05-0.02-0.11-0.03-0.16-0.05c-0.2-0.06-0.4-0.11-0.58-0.17l-0.01,0l0,0l-0.01,0l-0.01,0
		c-0.03-0.01-0.05-0.01-0.08-0.02c-0.04-0.01-0.08-0.02-0.12-0.03l-0.02-0.01l-0.04-0.01c-0.39-0.1-0.78-0.2-1.18-0.29
		c-0.23-0.05-0.47-0.11-0.7-0.16c-0.39-0.08-0.79-0.17-1.19-0.24c-0.15-0.03-0.3-0.05-0.44-0.08l-0.01,0h-0.01h0
		c-0.15-0.03-0.3-0.05-0.44-0.07c-0.07-0.01-0.14-0.02-0.21-0.03c-0.09-0.01-0.17-0.03-0.26-0.04c-0.42-0.06-0.85-0.11-1.28-0.16
		c-0.82-0.09-1.65-0.14-2.49-0.17C100.92,10.01,100.46,10,100,10c-0.78,0-1.56,0.03-2.34,0.08c-0.08,0-0.16,0.01-0.25,0.01
		c-0.86,0.06-1.72,0.15-2.57,0.27c-0.15,0.02-0.3,0.05-0.46,0.07c0,0-0.01,0-0.01,0c0,0,0,0-0.01,0l0,0L63.62,41.18L63.62,41.19z"/>
	<path class="st0" d="M136.39,52.37l0-0.03l0-0.03c0.01-0.05,0.02-0.11,0.02-0.16l0-0.01l0-0.02l0-0.02
		c0.01-0.07,0.02-0.14,0.03-0.2l0-0.05l0.01-0.05c0-0.02,0.01-0.04,0.01-0.06l0.03-0.23l0.02-0.16c0.02-0.15,0.04-0.3,0.05-0.44
		l0-0.02c0.02-0.14,0.03-0.27,0.04-0.4c0.01-0.11,0.02-0.21,0.03-0.31v-0.01l0.01-0.1c0.01-0.07,0.01-0.14,0.02-0.22l0-0.03l0-0.03
		c0.01-0.09,0.02-0.19,0.02-0.28v-0.01l0-0.02c0.01-0.13,0.02-0.28,0.03-0.44v-0.01c0.01-0.14,0.02-0.29,0.03-0.42l0-0.04v-0.06
		l0-0.06c0.01-0.12,0.01-0.24,0.02-0.35c0.01-0.16,0.01-0.31,0.01-0.47l0-0.02v-0.07c0-0.11,0-0.22,0-0.33v-0.12l0-0.02
		c0-0.1,0-0.19,0-0.28c0-0.1,0-0.2,0-0.3V46.5l0-0.09c-0.1-7-2.91-13.56-7.89-18.48c-4.99-4.93-11.61-7.64-18.62-7.64
		c-1.62,0-3.22,0.14-4.79,0.43c3.63,2.19,6.77,5.13,9.24,8.67c3.58,5.13,5.47,11.15,5.47,17.42c0,6.27-1.89,12.3-5.47,17.42
		c-3.49,5.01-8.34,8.81-14.01,11.01c-3.5,1.36-7.2,2.05-11,2.05c-5.54,0-10.86-1.47-15.51-4.23l0.01,0.01l0.02,0.02l0.02,0.02
		c0.02,0.02,0.04,0.05,0.07,0.07l0.07,0.07c0.06,0.06,0.12,0.12,0.18,0.17l0.01,0.01l0.01,0.01c0.1,0.09,0.22,0.21,0.33,0.31
		l0.02,0.01l0.02,0.02c0.08,0.07,0.15,0.14,0.23,0.21L75.2,74L75.21,74c0.13,0.12,0.27,0.24,0.41,0.36l0.01,0.01l0.01,0.01
		c0.09,0.08,0.18,0.16,0.27,0.24l0.02,0.01l0.06,0.05l0.01,0l0.26,0.23l0.05,0.05l0.01,0.01c0.07,0.06,0.14,0.12,0.21,0.18
		l0.03,0.02l0.03,0.02c0.06,0.05,0.13,0.11,0.21,0.17l0.03,0.02l0.02,0.02c0.06,0.05,0.11,0.09,0.16,0.13l0.02,0.01l0.02,0.01
		c0.2,0.16,0.4,0.32,0.61,0.47c0.04,0.04,0.09,0.07,0.13,0.1c0.05,0.04,0.1,0.08,0.15,0.11c0.03,0.02,0.06,0.04,0.08,0.06l0.05,0.04
		c0.08,0.06,0.16,0.12,0.25,0.18l0.08,0.06c0.04,0.03,0.08,0.06,0.12,0.09l0.02,0.01l0.02,0.01c0.06,0.05,0.12,0.09,0.18,0.13
		l0.07,0.05c0.15,0.11,0.3,0.21,0.46,0.32l0.01,0.01l0.01,0.01c0.07,0.05,0.14,0.09,0.2,0.14l0.05,0.03l0.17,0.11l0.18,0.12
		c0.09,0.06,0.19,0.12,0.28,0.18c0.1,0.06,0.19,0.12,0.29,0.18h0.23l0.42,0.4c0.06,0.04,0.13,0.08,0.19,0.12
		c0.13,0.08,0.26,0.15,0.38,0.22l0.01,0.01l0.01,0.01c0.1,0.06,0.2,0.11,0.31,0.17c0.54,0.31,1.09,0.6,1.64,0.87
		c0.12,0.06,0.24,0.12,0.36,0.18c0.02,0.01,0.04,0.02,0.05,0.03c0.11,0.05,0.23,0.11,0.34,0.16c0.35,0.16,0.7,0.32,1.05,0.47l0.01,0
		l0.01,0c0.09,0.04,0.17,0.08,0.26,0.11c0.03,0.01,0.05,0.02,0.08,0.04c0.11,0.05,0.23,0.09,0.35,0.14
		c0.28,0.11,0.59,0.23,0.91,0.35l0.01,0l0.01,0c0.1,0.04,0.2,0.08,0.3,0.11l0.01,0l0.01,0c0.47,0.17,0.93,0.33,1.38,0.47l0.02,0.01
		l0.01,0c0.09,0.03,0.18,0.06,0.27,0.09l0.01,0l0.01,0c0.14,0.04,0.27,0.09,0.41,0.13l0.11,0.03c0.16,0.05,0.33,0.09,0.49,0.14
		c0.09,0.03,0.17,0.05,0.25,0.07l0.02,0c1.01,0.27,2.05,0.5,3.06,0.68l0.01,0l0.01,0c0.12,0.02,0.26,0.05,0.42,0.07h0.01l0.01,0
		c0.16,0.03,0.3,0.05,0.43,0.07l0.02,0l0.02,0c0.14,0.02,0.29,0.04,0.43,0.06l0.01,0c1.7,0.24,3.43,0.36,5.15,0.36
		c1.72,0,3.46-0.12,5.15-0.36l0.04-0.01c0.14-0.02,0.27-0.04,0.41-0.06l0.02,0l0.01,0l30.75-30.75
		C136.38,52.41,136.38,52.39,136.39,52.37z"/>
</g>
</svg>
