<?xml version="1.0" encoding="utf-8"?>
<!-- Generator: Adobe Illustrator 27.1.0, SVG Export Plug-In . SVG Version: 6.00 Build 0)  -->
<svg version="1.1" id="Layer_1" xmlns="http://www.w3.org/2000/svg" xmlns:xlink="http://www.w3.org/1999/xlink" x="0px" y="0px"
	 viewBox="0 0 200 120" style="enable-background:new 0 0 200 120;" xml:space="preserve">
<style type="text/css">
	.st0{fill:#FFFFFF;}
	.st1{fill:#231F20;}
	.st2{fill:#AD5726;}
</style>
<g>
	<g>
		<g>
			<path class="st0" d="M57.33,88.12c-0.42-0.56-0.93-0.98-1.54-1.26c-0.61-0.28-1.25-0.42-1.91-0.42c-0.77,0-1.47,0.16-2.11,0.47
				c-0.64,0.31-1.2,0.73-1.67,1.26C49.63,88.69,49.26,89.3,49,90c-0.26,0.7-0.39,1.42-0.39,2.17c0,0.81,0.13,1.56,0.39,2.25
				c0.26,0.7,0.62,1.3,1.08,1.81c0.46,0.51,1.01,0.92,1.66,1.22c0.64,0.3,1.35,0.45,2.13,0.45c0.84,0,1.6-0.17,2.26-0.5
				c0.66-0.33,1.24-0.81,1.74-1.43l1.23,1.03c-0.62,0.83-1.37,1.44-2.25,1.83c-0.88,0.39-1.87,0.58-2.97,0.58
				c-0.99,0-1.91-0.18-2.77-0.55c-0.86-0.36-1.6-0.87-2.23-1.51c-0.63-0.64-1.12-1.41-1.48-2.29c-0.36-0.88-0.54-1.85-0.54-2.9
				c0-1.01,0.17-1.96,0.52-2.85c0.34-0.88,0.83-1.65,1.45-2.3c0.62-0.65,1.36-1.16,2.22-1.54c0.86-0.38,1.8-0.57,2.83-0.57
				c0.94,0,1.84,0.17,2.7,0.51c0.86,0.34,1.59,0.89,2.17,1.66L57.33,88.12z"/>
			<path class="st0" d="M69.26,99.42c-1.05,0-2.02-0.18-2.89-0.55c-0.88-0.36-1.64-0.87-2.28-1.51c-0.64-0.64-1.14-1.41-1.5-2.3
				c-0.36-0.89-0.54-1.85-0.54-2.89c0-1.04,0.18-2,0.54-2.89c0.36-0.89,0.86-1.66,1.5-2.3c0.64-0.64,1.4-1.15,2.28-1.51
				c0.88-0.36,1.84-0.55,2.89-0.55c1.05,0,2.02,0.18,2.89,0.55c0.88,0.36,1.64,0.87,2.28,1.51c0.64,0.64,1.14,1.41,1.5,2.3
				c0.36,0.89,0.54,1.86,0.54,2.89c0,1.04-0.18,2-0.54,2.89c-0.36,0.89-0.86,1.66-1.5,2.3c-0.64,0.64-1.4,1.15-2.28,1.51
				C71.28,99.24,70.31,99.42,69.26,99.42z M69.26,97.9c0.81,0,1.54-0.15,2.21-0.45c0.67-0.3,1.24-0.71,1.73-1.23
				c0.48-0.52,0.85-1.13,1.12-1.82c0.27-0.69,0.4-1.44,0.4-2.23c0-0.79-0.13-1.54-0.4-2.23c-0.27-0.69-0.64-1.3-1.12-1.82
				c-0.48-0.52-1.06-0.93-1.73-1.23c-0.67-0.3-1.41-0.45-2.21-0.45c-0.81,0-1.54,0.15-2.21,0.45c-0.67,0.3-1.24,0.71-1.72,1.23
				c-0.48,0.52-0.85,1.13-1.12,1.82c-0.27,0.7-0.4,1.44-0.4,2.23c0,0.79,0.13,1.54,0.4,2.23c0.27,0.7,0.64,1.3,1.12,1.82
				c0.48,0.52,1.06,0.93,1.72,1.23C67.71,97.75,68.45,97.9,69.26,97.9z"/>
			<path class="st0" d="M80.56,85.27H83l4.68,10.82h0.04l4.72-10.82h2.38v13.8h-1.64V87.49h-0.04l-4.95,11.58h-0.99l-4.95-11.58
				H82.2v11.58h-1.64V85.27z"/>
			<path class="st0" d="M99.71,85.27h4.09c0.64,0,1.24,0.06,1.82,0.19c0.58,0.12,1.09,0.33,1.54,0.62c0.45,0.29,0.81,0.68,1.07,1.17
				c0.27,0.49,0.4,1.09,0.4,1.8c0,0.75-0.14,1.38-0.43,1.87c-0.29,0.49-0.65,0.88-1.1,1.17c-0.45,0.29-0.94,0.49-1.47,0.6
				c-0.53,0.12-1.04,0.18-1.52,0.18h-2.77v6.2h-1.64V85.27z M101.35,91.35h2.77c0.82,0,1.48-0.19,2-0.56
				c0.51-0.37,0.77-0.95,0.77-1.72c0-0.78-0.26-1.35-0.77-1.73c-0.51-0.37-1.18-0.56-2-0.56h-2.77V91.35z"/>
			<path class="st0" d="M115.77,85.27h1.54l5.87,13.8h-1.91l-1.4-3.39h-6.9l-1.42,3.39h-1.85L115.77,85.27z M116.51,87.38h-0.04
				l-2.87,6.78h5.63L116.51,87.38z"/>
			<path class="st0" d="M126.47,85.27h2.07l7.99,11.46h0.04V85.27h1.64v13.8h-2.07l-7.99-11.46h-0.04v11.46h-1.64V85.27z"/>
			<path class="st0" d="M146.36,93.13l-5.15-7.86h2.09l3.88,6.24l4-6.24h1.97l-5.15,7.86v5.95h-1.64V93.13z"/>
		</g>
		<g>
			<path class="st0" d="M80.6,105.76c-0.14-0.2-0.32-0.35-0.54-0.47c-0.22-0.12-0.49-0.18-0.8-0.18c-0.16,0-0.32,0.02-0.49,0.07
				c-0.17,0.05-0.32,0.12-0.45,0.23c-0.13,0.1-0.24,0.23-0.33,0.38c-0.08,0.15-0.12,0.33-0.12,0.54c0,0.21,0.04,0.38,0.12,0.51
				c0.08,0.14,0.18,0.25,0.32,0.34c0.13,0.1,0.28,0.17,0.45,0.23c0.17,0.06,0.34,0.12,0.53,0.18c0.23,0.07,0.45,0.15,0.68,0.24
				c0.23,0.09,0.44,0.2,0.62,0.34c0.18,0.14,0.33,0.31,0.45,0.52c0.12,0.21,0.17,0.48,0.17,0.8c0,0.32-0.06,0.61-0.19,0.84
				c-0.12,0.24-0.28,0.43-0.48,0.58c-0.2,0.15-0.42,0.27-0.68,0.34c-0.25,0.07-0.51,0.11-0.77,0.11c-0.2,0-0.39-0.02-0.59-0.06
				c-0.2-0.04-0.38-0.1-0.56-0.18c-0.18-0.08-0.34-0.18-0.5-0.3c-0.15-0.12-0.29-0.26-0.4-0.42l0.57-0.42
				c0.14,0.23,0.34,0.43,0.59,0.58c0.25,0.16,0.55,0.23,0.9,0.23c0.17,0,0.33-0.03,0.51-0.08c0.17-0.05,0.33-0.13,0.46-0.24
				c0.14-0.11,0.25-0.24,0.34-0.4c0.09-0.16,0.13-0.34,0.13-0.55c0-0.23-0.04-0.42-0.13-0.57c-0.09-0.15-0.21-0.28-0.35-0.38
				c-0.15-0.1-0.32-0.19-0.51-0.25c-0.19-0.07-0.39-0.13-0.6-0.2c-0.21-0.07-0.43-0.14-0.63-0.23c-0.21-0.09-0.4-0.2-0.56-0.34
				c-0.17-0.14-0.3-0.31-0.4-0.51c-0.1-0.2-0.15-0.45-0.15-0.74c0-0.31,0.06-0.58,0.19-0.81c0.13-0.23,0.29-0.41,0.49-0.56
				c0.2-0.15,0.43-0.25,0.67-0.32c0.25-0.07,0.49-0.1,0.73-0.1c0.44,0,0.82,0.08,1.13,0.23c0.31,0.16,0.55,0.34,0.71,0.56
				L80.6,105.76z"/>
			<path class="st0" d="M85.14,110.63h3.03v0.59h-3.7v-6.51h0.66V110.63z"/>
			<path class="st0" d="M97.16,107.96c0,0.5-0.09,0.95-0.26,1.37c-0.17,0.42-0.41,0.78-0.71,1.08c-0.3,0.3-0.66,0.54-1.08,0.71
				s-0.86,0.26-1.35,0.26s-0.93-0.09-1.35-0.26c-0.41-0.17-0.77-0.41-1.08-0.71c-0.3-0.3-0.54-0.66-0.71-1.08
				c-0.17-0.42-0.26-0.87-0.26-1.37c0-0.5,0.09-0.95,0.26-1.37c0.17-0.42,0.41-0.78,0.71-1.08c0.3-0.3,0.66-0.54,1.08-0.71
				c0.41-0.17,0.86-0.26,1.35-0.26s0.93,0.09,1.35,0.26c0.41,0.17,0.77,0.41,1.08,0.71c0.3,0.3,0.54,0.66,0.71,1.08
				C97.08,107.01,97.16,107.47,97.16,107.96z M96.46,107.97c0-0.38-0.06-0.74-0.18-1.08c-0.12-0.34-0.3-0.64-0.53-0.9
				c-0.23-0.26-0.52-0.47-0.85-0.62c-0.33-0.15-0.71-0.23-1.13-0.23c-0.42,0-0.79,0.08-1.13,0.23c-0.33,0.15-0.62,0.36-0.85,0.62
				c-0.23,0.26-0.41,0.56-0.53,0.9c-0.12,0.34-0.18,0.7-0.18,1.08c0,0.38,0.06,0.74,0.18,1.08c0.12,0.34,0.3,0.64,0.53,0.9
				c0.23,0.26,0.52,0.46,0.85,0.61c0.33,0.15,0.71,0.23,1.13,0.23c0.42,0,0.79-0.08,1.13-0.23c0.33-0.15,0.62-0.36,0.85-0.61
				c0.23-0.26,0.41-0.56,0.53-0.9C96.4,108.71,96.46,108.35,96.46,107.97z"/>
			<path class="st0" d="M105.32,105.89c-0.23-0.24-0.5-0.42-0.81-0.56c-0.31-0.13-0.67-0.2-1.08-0.2c-0.42,0-0.79,0.08-1.13,0.23
				c-0.33,0.15-0.62,0.36-0.85,0.62c-0.23,0.26-0.41,0.56-0.54,0.9c-0.13,0.34-0.19,0.7-0.19,1.08c0,0.38,0.06,0.74,0.19,1.08
				c0.13,0.34,0.3,0.64,0.54,0.9c0.23,0.26,0.52,0.46,0.85,0.61c0.33,0.15,0.71,0.23,1.13,0.23c0.37,0,0.7-0.04,1.01-0.12
				c0.31-0.08,0.55-0.18,0.74-0.3v-1.98h-1.52v-0.59h2.18v2.94c-0.36,0.22-0.74,0.37-1.15,0.48c-0.41,0.1-0.84,0.16-1.28,0.16
				c-0.49,0-0.94-0.09-1.36-0.26c-0.42-0.17-0.78-0.41-1.08-0.71c-0.3-0.3-0.53-0.66-0.7-1.08c-0.17-0.42-0.25-0.87-0.25-1.37
				c0-0.5,0.09-0.95,0.26-1.37c0.17-0.42,0.41-0.78,0.71-1.08c0.3-0.3,0.66-0.54,1.08-0.71c0.41-0.17,0.86-0.26,1.35-0.26
				c0.52,0,0.97,0.08,1.36,0.23c0.39,0.16,0.72,0.37,0.99,0.65L105.32,105.89z"/>
			<path class="st0" d="M109.34,111.22h-0.73l2.81-6.51h0.64l2.8,6.51h-0.74l-0.72-1.71h-3.37L109.34,111.22z M110.29,108.9h2.87
				l-1.43-3.46L110.29,108.9z"/>
			<path class="st0" d="M122.28,110.25h0.02v-5.54h0.66v6.51h-0.83l-3.79-5.6h-0.02v5.6h-0.66v-6.51h0.83L122.28,110.25z"/>
		</g>
	</g>
	<g>
		<g>
			<path class="st0" d="M114.45,41.52c1.09-0.3,2.36-0.37,3.5,0.1c0.42,0.18,0.84,0.37,1.26,0.59c0.41,0.22,0.8,0.46,1.2,0.73
				c0.8,0.53,1.52,1.15,2.21,1.87c1.36,1.43,2.47,3.25,3.17,5.39c0.7,2.13,0.98,4.58,0.7,7.14c-0.28,2.55-1.12,5.22-2.52,7.72
				c-0.84,1.48-2.24,2.66-3.7,3.26c-0.37,0.15-0.74,0.26-1.11,0.34c-0.36,0.08-0.72,0.12-1.08,0.12c-0.7,0-1.35-0.13-1.91-0.42
				c-1.11-0.59-1.62-1.62-1.68-2.74c-0.06-1.12,0.3-2.34,1.05-3.45c0.92-1.39,1.56-2.92,1.88-4.45c0.33-1.54,0.35-3.07,0.1-4.49
				c-0.06-0.36-0.15-0.71-0.24-1.05c-0.05-0.17-0.1-0.34-0.15-0.51c-0.06-0.17-0.12-0.34-0.18-0.5c-0.13-0.33-0.26-0.64-0.41-0.95
				c-0.16-0.31-0.33-0.61-0.5-0.89c-0.71-1.15-1.63-2.13-2.65-2.93c-0.85-0.68-1.4-1.4-1.6-2.02c-0.22-0.64-0.07-1.2,0.48-1.73
				c0.25-0.24,0.56-0.46,0.94-0.65C113.6,41.8,114.01,41.64,114.45,41.52z"/>
		</g>
		<g>
			<path class="st0" d="M107.02,53.92c0.79,0.79,1.5,1.85,1.67,3.08c0.07,0.46,0.1,0.91,0.12,1.38c0.01,0.46,0.01,0.94-0.02,1.41
				c-0.04,0.47-0.09,0.94-0.18,1.42c-0.08,0.48-0.2,0.94-0.34,1.42c-0.56,1.89-1.58,3.77-3.08,5.45c-1.5,1.67-3.48,3.13-5.82,4.17
				c-2.34,1.04-5.07,1.67-7.95,1.69c-1.71,0.02-3.44-0.61-4.69-1.58c-1.25-0.98-2.03-2.27-2.07-3.53c-0.04-1.25,0.6-2.21,1.54-2.82
				c0.47-0.3,1.02-0.53,1.61-0.67c0.59-0.13,1.24-0.19,1.9-0.14c1.66,0.11,3.31-0.11,4.8-0.59c0.74-0.23,1.46-0.56,2.11-0.91
				c0.33-0.19,0.65-0.39,0.95-0.59c0.3-0.2,0.6-0.44,0.87-0.67c0.55-0.45,1.06-0.99,1.5-1.52c0.22-0.27,0.43-0.56,0.62-0.84
				c0.19-0.29,0.37-0.57,0.53-0.87c0.64-1.2,1.04-2.48,1.22-3.76c0.08-0.55,0.21-1.02,0.37-1.42c0.08-0.21,0.17-0.39,0.27-0.55
				c0.05-0.08,0.1-0.16,0.15-0.22c0.05-0.07,0.1-0.14,0.16-0.21c0.45-0.48,1-0.67,1.74-0.44c0.17,0.05,0.33,0.12,0.51,0.2
				c0.17,0.08,0.34,0.17,0.51,0.29C106.34,53.32,106.69,53.61,107.02,53.92z"/>
		</g>
		<g>
			<path class="st0" d="M92.57,53.69c-0.28,1.08-0.85,2.22-1.84,2.98c-1.45,1.11-3.17,1.99-5.09,2.44
				c-1.92,0.46-4.06,0.52-6.25,0.06c-2.19-0.46-4.45-1.43-6.53-2.95c-2.09-1.51-3.97-3.58-5.44-6.06c-0.86-1.47-1.21-3.28-0.97-4.85
				c0.03-0.2,0.06-0.39,0.1-0.58c0.04-0.19,0.1-0.37,0.16-0.55c0.12-0.35,0.26-0.69,0.43-0.99c0.34-0.61,0.8-1.1,1.33-1.43
				c1.05-0.66,2.2-0.58,3.21-0.08c0.5,0.25,0.97,0.61,1.38,1.06c0.21,0.22,0.41,0.47,0.59,0.73c0.18,0.26,0.34,0.55,0.49,0.85
				c0.73,1.5,1.73,2.82,2.9,3.87c1.17,1.05,2.49,1.84,3.84,2.33c0.69,0.24,1.37,0.43,2.07,0.53c0.68,0.11,1.38,0.15,2.05,0.13
				c0.67-0.02,1.35-0.12,1.99-0.25c0.65-0.14,1.28-0.34,1.88-0.58c0.5-0.2,1-0.33,1.42-0.39c0.21-0.02,0.42-0.05,0.61-0.04
				c0.19,0,0.36,0.03,0.53,0.06c0.65,0.15,1.09,0.54,1.27,1.3C92.85,51.93,92.81,52.79,92.57,53.69z"/>
		</g>
		<g>
			<path class="st0" d="M85.55,41.04c-1.09,0.3-2.36,0.37-3.5-0.1c-0.42-0.18-0.84-0.37-1.26-0.59c-0.41-0.22-0.8-0.46-1.2-0.73
				c-0.8-0.53-1.52-1.15-2.21-1.87c-1.36-1.43-2.47-3.25-3.17-5.39c-0.7-2.13-0.98-4.58-0.7-7.14c0.28-2.55,1.12-5.22,2.52-7.72
				c0.84-1.48,2.24-2.66,3.7-3.26c0.37-0.15,0.74-0.26,1.11-0.34c0.36-0.08,0.72-0.12,1.08-0.12c0.7,0,1.35,0.13,1.91,0.42
				c1.11,0.59,1.62,1.62,1.68,2.74c0.06,1.12-0.3,2.34-1.05,3.45c-0.92,1.39-1.56,2.92-1.88,4.45c-0.33,1.54-0.35,3.07-0.1,4.49
				c0.06,0.36,0.15,0.71,0.24,1.05c0.05,0.17,0.1,0.34,0.15,0.51c0.06,0.17,0.12,0.34,0.18,0.5c0.13,0.33,0.26,0.64,0.41,0.95
				c0.16,0.31,0.33,0.61,0.5,0.89c0.71,1.15,1.63,2.13,2.65,2.93c0.85,0.68,1.4,1.4,1.6,2.02c0.22,0.64,0.07,1.2-0.48,1.73
				c-0.25,0.24-0.56,0.46-0.94,0.65C86.4,40.75,85.99,40.91,85.55,41.04z"/>
		</g>
		<g>
			<path class="st0" d="M92.98,28.63c-0.79-0.79-1.5-1.85-1.67-3.08c-0.07-0.46-0.1-0.91-0.12-1.38c-0.01-0.46-0.01-0.94,0.02-1.41
				c0.04-0.47,0.09-0.94,0.18-1.42c0.08-0.48,0.2-0.94,0.34-1.42c0.56-1.89,1.58-3.77,3.08-5.45c1.5-1.67,3.48-3.13,5.82-4.17
				c2.34-1.04,5.07-1.67,7.95-1.69c1.71-0.02,3.44,0.61,4.69,1.58c1.25,0.98,2.03,2.27,2.07,3.53c0.04,1.25-0.6,2.21-1.54,2.82
				c-0.47,0.3-1.02,0.53-1.61,0.67c-0.59,0.13-1.24,0.19-1.9,0.14c-1.66-0.11-3.31,0.11-4.8,0.59c-0.74,0.23-1.46,0.56-2.11,0.91
				c-0.33,0.19-0.65,0.39-0.95,0.59c-0.3,0.2-0.6,0.44-0.87,0.67c-0.55,0.45-1.06,0.99-1.5,1.52c-0.22,0.27-0.43,0.56-0.62,0.84
				c-0.19,0.29-0.37,0.57-0.53,0.87c-0.64,1.2-1.04,2.48-1.22,3.76c-0.08,0.55-0.21,1.02-0.37,1.42c-0.08,0.21-0.17,0.39-0.27,0.55
				c-0.05,0.08-0.1,0.16-0.15,0.22c-0.05,0.07-0.1,0.14-0.16,0.21c-0.45,0.48-1,0.67-1.74,0.44c-0.17-0.05-0.33-0.12-0.51-0.2
				c-0.17-0.08-0.34-0.17-0.51-0.29C93.66,29.24,93.31,28.95,92.98,28.63z"/>
		</g>
		<g>
			<path class="st0" d="M107.43,28.87c0.28-1.08,0.85-2.22,1.84-2.98c1.45-1.11,3.17-1.99,5.09-2.44c1.92-0.46,4.06-0.52,6.25-0.06
				c2.19,0.46,4.45,1.43,6.53,2.95c2.09,1.51,3.97,3.58,5.44,6.06c0.86,1.47,1.21,3.28,0.97,4.85c-0.03,0.2-0.06,0.39-0.1,0.58
				c-0.04,0.19-0.1,0.37-0.16,0.55c-0.12,0.35-0.26,0.69-0.43,0.99c-0.34,0.61-0.8,1.1-1.33,1.43c-1.05,0.66-2.2,0.58-3.21,0.08
				c-0.5-0.25-0.97-0.61-1.38-1.06c-0.21-0.22-0.41-0.47-0.59-0.73c-0.18-0.26-0.34-0.55-0.49-0.85c-0.73-1.5-1.73-2.82-2.9-3.87
				c-1.17-1.05-2.49-1.84-3.84-2.33c-0.69-0.24-1.37-0.43-2.07-0.53c-0.68-0.11-1.38-0.15-2.05-0.13c-0.67,0.02-1.35,0.12-1.99,0.25
				c-0.65,0.14-1.28,0.34-1.88,0.58c-0.5,0.2-1,0.33-1.42,0.39c-0.21,0.02-0.42,0.05-0.61,0.04c-0.19,0-0.36-0.03-0.53-0.06
				c-0.65-0.15-1.09-0.54-1.27-1.3C107.15,30.62,107.19,29.76,107.43,28.87z"/>
		</g>
	</g>
</g>
</svg>
