<?xml version="1.0" encoding="utf-8"?>
<!-- Generator: Adobe Illustrator 27.1.0, SVG Export Plug-In . SVG Version: 6.00 Build 0)  -->
<svg version="1.1" id="Layer_1" xmlns="http://www.w3.org/2000/svg" xmlns:xlink="http://www.w3.org/1999/xlink" x="0px" y="0px"
	 viewBox="0 0 200 120" style="enable-background:new 0 0 200 120;" xml:space="preserve">
<style type="text/css">
	.st0{fill:#FFFFFF;}
	.st1{fill:#231F20;}
	.st2{fill:#AD5726;}
</style>
<g>
	<path class="st0" d="M95.39,26.27l7.96,13.79c0.9-0.02,1.8-0.02,2.71-0.02c2.33,0,4.63,0.05,6.89,0.15L95.39,9.78L76.1,43.2
		c3.35-0.76,6.91-1.4,10.62-1.9L95.39,26.27z M81.11,39.6l14.29-24.75l13.08,22.67c-0.81-0.01-1.61-0.02-2.42-0.02
		c-0.41,0-0.83,0-1.26,0.01L97.59,25l-2.2-3.81L93.2,25l-8.05,13.95C83.78,39.15,82.43,39.36,81.11,39.6z"/>
	<path class="st0" d="M83.56,85.67c-9.95-4.37-16.03-10.23-16.03-16.66c0-2.14,0.67-4.22,1.94-6.2h56.55l-10.3-17.84
		c3.92-0.33,7.98-0.5,12.14-0.5c5.6,0,11.02,0.31,16.16,0.89c-0.3-0.1-0.6-0.19-0.9-0.28c0.3,0.09,0.61,0.18,0.9,0.28
		c0.35,0.04,0.69,0.08,1.03,0.12c-0.91-0.23-1.83-0.45-2.77-0.66c0,0,0,0,0,0c-8.4-1.87-18.07-2.95-28.35-2.96
		c-0.06,0-0.12,0-0.18,0c-2.34,0-4.65,0.06-6.92,0.16c-0.76,0.04-1.51,0.08-2.26,0.12h0h0c-7.17,0.45-13.9,1.42-19.97,2.81
		c-0.52,0.12-1.04,0.24-1.56,0.37c-3.59,0.88-6.93,1.92-9.96,3.08c-11.17,4.29-18.13,10.33-18.13,17.02
		C54.95,74.04,66.42,81.56,83.56,85.67z M106.79,46.02l4.94,8.56H79.08C86,50.72,95.61,47.71,106.79,46.02z"/>
	<path class="st0" d="M60.41,102.56c0.31-0.14,0.58-0.33,0.82-0.58c0.23-0.24,0.41-0.52,0.55-0.83c0.13-0.31,0.2-0.64,0.2-0.99v-0.7
		h-1.61v0.55c0,0.22-0.03,0.41-0.09,0.55c-0.06,0.15-0.14,0.26-0.24,0.35c-0.11,0.08-0.22,0.15-0.34,0.18
		c-0.12,0.04-0.23,0.06-0.34,0.06c-0.37,0-0.63-0.11-0.77-0.33c-0.14-0.22-0.21-0.5-0.21-0.82v-5.76c0-0.38,0.07-0.69,0.2-0.94
		c0.13-0.25,0.4-0.37,0.8-0.37c0.31,0,0.55,0.12,0.73,0.35c0.18,0.23,0.27,0.51,0.27,0.82v0.54h1.61V94c0-0.39-0.07-0.75-0.2-1.08
		c-0.13-0.33-0.31-0.62-0.55-0.86c-0.47-0.5-1.09-0.74-1.85-0.74c-0.39,0-0.75,0.07-1.07,0.2c-0.32,0.13-0.6,0.31-0.83,0.55
		c-0.23,0.23-0.41,0.51-0.54,0.82c-0.13,0.32-0.19,0.66-0.19,1.03v6.21c0,0.52,0.08,0.94,0.25,1.27c0.16,0.33,0.37,0.6,0.63,0.82
		c0.25,0.21,0.54,0.36,0.85,0.44c0.32,0.08,0.63,0.13,0.93,0.13C59.76,102.77,60.1,102.7,60.41,102.56z"/>
	<path class="st0" d="M74.93,94.07c0-0.45-0.08-0.85-0.24-1.2c-0.16-0.35-0.36-0.64-0.62-0.87c-0.26-0.22-0.56-0.39-0.88-0.51
		c-0.32-0.12-0.65-0.17-0.97-0.17c-0.33,0-0.65,0.06-0.97,0.17c-0.32,0.12-0.61,0.28-0.86,0.51c-0.26,0.23-0.47,0.52-0.63,0.87
		c-0.16,0.35-0.24,0.75-0.24,1.2v5.95c0,0.47,0.08,0.88,0.24,1.22c0.16,0.34,0.37,0.62,0.63,0.84c0.25,0.23,0.54,0.41,0.86,0.52
		c0.32,0.12,0.65,0.17,0.97,0.17c0.33,0,0.65-0.06,0.97-0.17c0.32-0.12,0.61-0.29,0.88-0.52c0.25-0.22,0.46-0.5,0.62-0.84
		c0.16-0.34,0.24-0.74,0.24-1.22V94.07z M73.32,100.02c0,0.39-0.11,0.68-0.32,0.86c-0.22,0.18-0.47,0.28-0.77,0.28
		c-0.3,0-0.55-0.09-0.77-0.28c-0.22-0.18-0.32-0.47-0.32-0.86v-5.95c0-0.39,0.11-0.68,0.32-0.86c0.22-0.18,0.47-0.28,0.77-0.28
		c0.3,0,0.55,0.09,0.77,0.28c0.22,0.18,0.32,0.47,0.32,0.86V100.02z"/>
	<polygon class="st0" points="86.34,97.38 86.31,97.38 84.24,91.41 82.69,91.41 82.69,102.68 84.3,102.68 84.3,95.82 84.33,95.82 
		85.92,100.67 86.72,100.67 88.32,95.82 88.35,95.82 88.35,102.68 89.97,102.68 89.97,91.41 88.4,91.41 	"/>
	<path class="st0" d="M102.33,92.2c-0.27-0.3-0.58-0.5-0.92-0.62c-0.34-0.12-0.73-0.17-1.17-0.17h-2.42v11.27h1.61v-4.4h0.82
		c0.6,0,1.09-0.1,1.46-0.31c0.37-0.21,0.66-0.49,0.89-0.86c0.19-0.31,0.31-0.63,0.37-0.98c0.06-0.35,0.09-0.78,0.09-1.28
		c0-0.68-0.05-1.21-0.16-1.61C102.8,92.84,102.61,92.49,102.33,92.2z M101.52,95.63c-0.02,0.23-0.07,0.43-0.15,0.59
		c-0.08,0.17-0.22,0.3-0.4,0.4c-0.18,0.1-0.43,0.14-0.76,0.14h-0.78v-3.83h0.84c0.32,0,0.56,0.05,0.73,0.14
		c0.17,0.09,0.3,0.23,0.38,0.41c0.08,0.18,0.13,0.39,0.14,0.63c0.01,0.24,0.02,0.49,0.02,0.75
		C101.54,95.14,101.53,95.4,101.52,95.63z"/>
	<path class="st0" d="M111.8,91.41l-2.52,11.27h1.61l0.47-2.42h2.2l0.47,2.42h1.61l-2.52-11.27H111.8z M111.66,98.74l0.79-4.08h0.03
		l0.79,4.08H111.66z"/>
	<polygon class="st0" points="128.36,102.68 128.36,91.41 126.74,91.41 126.74,98.2 126.71,98.2 124.27,91.41 122.72,91.41 
		122.72,102.68 124.34,102.68 124.34,95.9 124.37,95.9 126.84,102.68 	"/>
	<polygon class="st0" points="139.26,102.68 139.26,97.91 141.48,91.41 139.77,91.41 138.47,95.89 138.44,95.89 137.14,91.41 
		135.43,91.41 137.65,97.91 137.65,102.68 	"/>
	<polygon class="st0" points="58.1,110.19 58.1,107.36 58.99,107.36 58.99,106.92 56.7,106.92 56.7,107.36 57.6,107.36 57.6,110.19 
			"/>
	<path class="st0" d="M62.61,106.92l-1.19,3.27h0.53l0.25-0.73h1.24l0.25,0.73h0.52l-1.19-3.27H62.61z M62.34,109.02l0.47-1.43h0.01
		l0.47,1.43H62.34z"/>
	<path class="st0" d="M67.79,107.63c0.05-0.07,0.12-0.12,0.21-0.17c0.08-0.04,0.18-0.07,0.3-0.07c0.16,0,0.29,0.05,0.4,0.14
		c0.11,0.09,0.18,0.2,0.22,0.34h0.53c-0.05-0.27-0.18-0.5-0.38-0.69c-0.2-0.18-0.46-0.28-0.77-0.28c-0.26,0-0.47,0.06-0.64,0.18
		c-0.17,0.12-0.3,0.25-0.38,0.4c-0.05,0.08-0.09,0.18-0.11,0.31c-0.02,0.13-0.03,0.38-0.03,0.76c0,0.37,0.01,0.63,0.03,0.76
		c0.01,0.07,0.03,0.13,0.04,0.18c0.02,0.04,0.04,0.09,0.06,0.14c0.08,0.15,0.21,0.28,0.38,0.4c0.17,0.12,0.39,0.18,0.64,0.19
		c0.33-0.01,0.61-0.12,0.83-0.34c0.22-0.22,0.33-0.5,0.34-0.82v-0.67H68.3v0.47h0.67v0.17c0,0.21-0.07,0.37-0.19,0.5
		c-0.13,0.13-0.29,0.2-0.48,0.2c-0.12,0-0.22-0.02-0.3-0.07c-0.09-0.04-0.15-0.1-0.21-0.16c-0.06-0.07-0.11-0.16-0.13-0.28
		c-0.02-0.11-0.04-0.33-0.04-0.65c0-0.32,0.01-0.54,0.04-0.66C67.68,107.79,67.72,107.7,67.79,107.63z"/>
	<polygon class="st0" points="72.8,106.92 72.8,110.19 74.89,110.19 74.89,109.73 73.29,109.73 73.29,106.92 	"/>
	<rect x="78.11" y="106.92" class="st0" width="0.5" height="3.27"/>
	<polygon class="st0" points="82.05,106.92 82.05,110.19 82.55,110.19 82.55,107.87 82.56,107.87 84.04,110.19 84.51,110.19 
		84.51,106.92 84.01,106.92 84.01,109.25 84,109.25 82.52,106.92 	"/>
	<polygon class="st0" points="90.04,107.39 90.04,106.92 87.96,106.92 87.96,110.19 90.04,110.19 90.04,109.73 88.45,109.73 
		88.45,108.77 89.81,108.77 89.81,108.33 88.45,108.33 88.45,107.39 	"/>
	<path class="st0" d="M97.16,107.48c-0.05,0.08-0.09,0.18-0.11,0.31c-0.02,0.13-0.03,0.38-0.03,0.76c0,0.37,0.01,0.63,0.03,0.76
		c0.01,0.07,0.03,0.13,0.04,0.18c0.02,0.04,0.04,0.09,0.07,0.14c0.08,0.15,0.21,0.28,0.38,0.4c0.17,0.12,0.39,0.18,0.64,0.19
		c0.33-0.01,0.61-0.12,0.83-0.34c0.22-0.22,0.33-0.5,0.34-0.82v-0.67h-1.16v0.47h0.67v0.17c0,0.21-0.07,0.37-0.19,0.5
		c-0.13,0.13-0.29,0.2-0.48,0.2c-0.12,0-0.22-0.02-0.3-0.07c-0.09-0.04-0.15-0.1-0.21-0.16c-0.06-0.07-0.11-0.16-0.13-0.28
		c-0.02-0.11-0.04-0.33-0.04-0.65c0-0.32,0.01-0.54,0.04-0.66c0.02-0.11,0.06-0.2,0.13-0.27c0.05-0.07,0.12-0.12,0.21-0.17
		c0.08-0.04,0.18-0.07,0.3-0.07c0.16,0,0.29,0.05,0.4,0.14c0.11,0.09,0.18,0.2,0.22,0.34h0.53c-0.05-0.27-0.18-0.5-0.38-0.69
		c-0.2-0.18-0.46-0.28-0.77-0.28c-0.26,0-0.47,0.06-0.64,0.18C97.37,107.2,97.24,107.33,97.16,107.48z"/>
	<path class="st0" d="M102.72,107.48c-0.05,0.08-0.09,0.18-0.11,0.31c-0.02,0.13-0.03,0.38-0.03,0.76c0,0.37,0.01,0.63,0.03,0.76
		c0.01,0.07,0.03,0.13,0.04,0.18c0.02,0.04,0.04,0.09,0.07,0.14c0.08,0.15,0.21,0.28,0.38,0.4c0.17,0.12,0.39,0.18,0.64,0.19
		c0.26-0.01,0.48-0.07,0.65-0.19c0.17-0.12,0.3-0.25,0.37-0.4c0.06-0.08,0.09-0.18,0.11-0.32c0.02-0.13,0.03-0.38,0.03-0.76
		c0-0.38-0.01-0.63-0.03-0.76c-0.02-0.13-0.06-0.23-0.11-0.31c-0.08-0.15-0.2-0.29-0.37-0.4c-0.17-0.12-0.39-0.18-0.65-0.18
		c-0.26,0-0.47,0.06-0.64,0.18C102.93,107.2,102.8,107.33,102.72,107.48z M103.11,107.9c0.02-0.11,0.06-0.2,0.13-0.27
		c0.05-0.07,0.12-0.12,0.21-0.17c0.08-0.04,0.18-0.07,0.3-0.07c0.12,0,0.22,0.03,0.31,0.07c0.08,0.04,0.15,0.1,0.2,0.17
		c0.06,0.07,0.11,0.16,0.13,0.27c0.02,0.12,0.03,0.34,0.03,0.66c0,0.32-0.01,0.54-0.03,0.65c-0.02,0.11-0.07,0.21-0.13,0.28
		c-0.05,0.07-0.12,0.12-0.2,0.16c-0.09,0.05-0.19,0.07-0.31,0.07c-0.12,0-0.22-0.02-0.3-0.07c-0.09-0.04-0.15-0.1-0.21-0.16
		c-0.06-0.07-0.11-0.16-0.13-0.28c-0.02-0.11-0.04-0.33-0.04-0.65C103.08,108.24,103.09,108.02,103.11,107.9z"/>
	<polygon class="st0" points="108.25,110.19 110.34,110.19 110.34,109.73 108.75,109.73 108.75,108.77 110.11,108.77 110.11,108.33 
		108.75,108.33 108.75,107.39 110.34,107.39 110.34,106.92 108.25,106.92 	"/>
	<path class="st0" d="M114.53,109.73c-0.36,0-0.67-0.11-0.93-0.33l-0.33,0.37c0.35,0.3,0.77,0.45,1.25,0.45
		c0.75-0.01,1.13-0.33,1.15-0.95c0-0.23-0.07-0.44-0.22-0.61c-0.15-0.18-0.37-0.29-0.68-0.33c-0.16-0.02-0.28-0.04-0.37-0.05
		c-0.16-0.03-0.28-0.08-0.35-0.16c-0.07-0.08-0.11-0.16-0.11-0.26c0-0.16,0.06-0.28,0.16-0.35c0.1-0.08,0.23-0.11,0.38-0.11
		c0.29,0.01,0.56,0.09,0.81,0.25l0.28-0.41c-0.3-0.22-0.65-0.33-1.06-0.34c-0.34,0-0.6,0.09-0.78,0.26
		c-0.19,0.18-0.29,0.41-0.29,0.69c0,0.24,0.08,0.44,0.23,0.61c0.15,0.16,0.36,0.27,0.64,0.31c0.16,0.02,0.3,0.04,0.43,0.06
		c0.29,0.05,0.43,0.2,0.43,0.44C115.17,109.57,114.96,109.72,114.53,109.73z"/>
	<polygon class="st0" points="125.11,110.19 125.11,106.92 124.61,106.92 124.61,108.33 123.31,108.33 123.31,106.92 122.82,106.92 
		122.82,110.19 123.31,110.19 123.31,108.77 124.61,108.77 124.61,110.19 	"/>
	<polygon class="st0" points="130.64,107.39 130.64,106.92 128.55,106.92 128.55,110.19 130.64,110.19 130.64,109.73 129.05,109.73 
		129.05,108.77 130.41,108.77 130.41,108.33 129.05,108.33 129.05,107.39 	"/>
	<path class="st0" d="M135.5,108.74c0.42-0.16,0.63-0.46,0.63-0.91c-0.01-0.3-0.12-0.53-0.33-0.7c-0.17-0.14-0.39-0.22-0.67-0.22
		h-1.28v3.27h0.5v-1.4H135l0.68,1.4h0.59L135.5,108.74z M134.36,108.36v-0.99h0.78c0.16,0,0.28,0.03,0.36,0.1
		c0.11,0.08,0.16,0.2,0.16,0.37c0,0.14-0.05,0.26-0.14,0.36c-0.09,0.1-0.23,0.16-0.42,0.16H134.36z"/>
	<polygon class="st0" points="141.52,107.39 141.52,106.92 139.43,106.92 139.43,110.19 141.52,110.19 141.52,109.73 139.93,109.73 
		139.93,108.77 141.28,108.77 141.28,108.33 139.93,108.33 139.93,107.39 	"/>
</g>
</svg>
