<?xml version="1.0" encoding="utf-8"?>
<!-- Generator: Adobe Illustrator 27.1.0, SVG Export Plug-In . SVG Version: 6.00 Build 0)  -->
<svg version="1.1" id="Layer_1" xmlns="http://www.w3.org/2000/svg" xmlns:xlink="http://www.w3.org/1999/xlink" x="0px" y="0px"
	 viewBox="0 0 200 120" style="enable-background:new 0 0 200 120;" xml:space="preserve">
<style type="text/css">
	path{fill: #FFFFFF;}
	.st0{fill:#FFFFFF;}
	.st1{fill:#FFFFFF;}
	.st2{font-family:'Montserrat-Bold'; fill: #FFFFFF;}
	.st3{font-size:28.1361px; fill: #FFFFFF;}
	.st4{letter-spacing:1; fill: #FFFFFF;}
	.st5{font-family:'Montserrat-SemiBold'; fill: #FFFFFF;}
	.st6{font-size:8.9524px; fill: #FFFFFF;}
	.st7{fill:#FFFFFF;}
</style>
<g>
	<g>
		<path d="M50.5,72.99c-0.82,0-1.49-0.67-1.49-1.49V55.55c0-5.44,2.61-10.62,6.98-13.87l6.67-4.95c0.66-0.49,1.6-0.35,2.09,0.31
			c0.49,0.66,0.35,1.6-0.31,2.09l-6.67,4.95c-3.62,2.68-5.77,6.97-5.77,11.47V71.5C51.99,72.32,51.32,72.99,50.5,72.99z"/>
		<path d="M53.32,53.5c-2,0-3.92-0.83-5.29-2.3c-1.43-1.53-2.13-3.6-1.91-5.69c0.38-3.7,1.76-8.97,6.16-13.07
			c7.91-7.38,21.93-7.73,22.52-7.74c0.44,0.01,0.83,0.17,1.12,0.47c0.29,0.31,0.43,0.73,0.4,1.15c-0.05,0.59-1.37,14.55-9.27,21.93
			c-4.4,4.11-9.75,5.12-13.46,5.24C53.48,53.5,53.4,53.5,53.32,53.5z M73.1,27.79c-3.87,0.33-13.26,1.66-18.79,6.83
			c-3.72,3.48-4.9,8.01-5.23,11.2c-0.13,1.22,0.28,2.44,1.12,3.34c0.84,0.9,2.04,1.4,3.26,1.35c3.21-0.11,7.81-0.97,11.53-4.44
			C70.53,40.9,72.5,31.62,73.1,27.79z"/>
	</g>
	<g>
		<path d="M39.44,72.99c-0.82,0-1.49-0.67-1.49-1.49c0-4.5-2.16-8.79-5.77-11.47l-6.67-4.95c-0.66-0.49-0.8-1.42-0.31-2.09
			c0.49-0.66,1.42-0.8,2.09-0.31l6.67,4.95c4.37,3.24,6.98,8.42,6.98,13.87C40.93,72.32,40.26,72.99,39.44,72.99z"/>
		<path d="M36.62,69.45c-0.08,0-0.16,0-0.25,0c-3.71-0.12-9.07-1.14-13.46-5.24c-7.91-7.38-9.22-21.34-9.27-21.93
			c-0.04-0.42,0.11-0.84,0.4-1.15c0.29-0.31,0.72-0.47,1.12-0.47c0.59,0.01,14.61,0.36,22.52,7.74c4.4,4.11,5.78,9.38,6.16,13.07
			c0.21,2.08-0.48,4.15-1.91,5.69C40.54,68.62,38.63,69.45,36.62,69.45z M16.84,43.74c0.6,3.84,2.57,13.11,8.11,18.28
			c3.72,3.48,8.32,4.33,11.53,4.44c1.19,0.05,2.42-0.45,3.26-1.35c0.84-0.9,1.25-2.12,1.12-3.34c-0.33-3.19-1.5-7.72-5.22-11.2
			C30.1,45.4,20.71,44.07,16.84,43.74z"/>
	</g>
	<path d="M35.5,38.07c-4.08,0-7.39-3.32-7.39-7.39s3.32-7.39,7.39-7.39s7.39,3.32,7.39,7.39S39.58,38.07,35.5,38.07z M35.5,26.26
		c-2.43,0-4.41,1.98-4.41,4.41s1.98,4.41,4.41,4.41s4.41-1.98,4.41-4.41S37.93,26.26,35.5,26.26z"/>
	<text transform="matrix(1 0 0 1 83.9104 47.1769)"><tspan x="0" y="0" class="st2 st3 st4">coffee</tspan><tspan x="-0.25" y="26.19" class="st2 st3 st4">bloom</tspan></text>
	<g>
		<text transform="matrix(1 0 0 1 38.0852 97.6437)" class="st5 st6 st4">Blessful &amp; Joyful</text>
	</g>
</g>
</svg>
