<?xml version="1.0" encoding="utf-8"?>
<!-- Generator: Adobe Illustrator 27.1.0, SVG Export Plug-In . SVG Version: 6.00 Build 0)  -->
<svg version="1.1" id="Layer_1" xmlns="http://www.w3.org/2000/svg" xmlns:xlink="http://www.w3.org/1999/xlink" x="0px" y="0px"
	 viewBox="0 0 200 120" style="enable-background:new 0 0 200 120;" xml:space="preserve">
<style type="text/css">
	.st0{fill:#FFFFFF;}
	.st1{fill:#231F20;}
	.st2{fill:#AD5726;}
</style>
<g>
	<g>
		<path class="st0" d="M122.63,37.92c1.39-0.97,1.69-2.36,1.06-3.81c-0.9-2.07-3.51-3.81-6.5-3.43c-3.89,0.49-5.55,3.15-6.25,5.18
			c-1.47,4.21,1.53,9.77,6.75,7.61C120.08,42.47,119.14,40.35,122.63,37.92z"/>
		<path class="st0" d="M127.35,41.11c-1.08,1.48,2.19,4.31,3.29,2.92c1.35-1.7,1.86-4.23-0.29-4.22
			C130.35,39.81,128.23,39.9,127.35,41.11z"/>
		<path class="st0" d="M133.37,38.74c-1.34-2.1-3.02-2.43-3.54-2.68c-0.18-6.67-3.83-12.4-9.14-15.61c0.55-2.62-1.1-6.26-5.4-5.94
			c-2.63,0.2-4.13,1.64-5.07,3.2c-0.42,0.01-0.84,0.04-1.26,0.09c-0.97-2.48-3.55-3.39-6.21-1.54c-4.7-4.68-11.14-7.39-17.85-7.39
			c-7.55,0-14.7,3.26-19.62,9.25c-1.15-1.05-2.92-1.88-5.14-0.43c-3.76,2.47-2.48,7.88,0.57,8.89c-0.7,2.27-1.07,4.64-1.1,7.05
			c-0.79,1.46-1.36,3.46-1.48,6.2c-0.28,6.28,1.77,18.07,13.52,18.5c2.56,0.09,4.82-0.26,6.68-1.04c3.24,0,15.59,0.01,19.99,0.01
			c1.82,0.65,3.87,1.01,6.16,1.01c7.3,0,12.38,0.55,13.88-3.39c2.52-0.43,6.08-1.4,9.34-3.59c4.65-0.17,7.96-0.48,9.52-2.72
			C139.13,45.88,138,40.5,133.37,38.74z M77.97,55.7c-3.29,1.67-6.01,1.65-7.14,0.09c-1.54-2.12,0.26-6.11,4.21-8.32
			c3.24-1.81,5.46-1.4,6.51-0.28C83.69,49.49,81.99,53.67,77.97,55.7z M132.72,43.28c-0.71,2.84-3.11,4.8-4.45,5.75
			c-3.3,2.34-6.86,3.76-9.58,4.29c0.24-3.11-1.75-6.9-6.23-7.7c-3.94-0.7-5.62-0.17-9.81-0.82c-3.16-0.49-7.61-3.99-8.54-9.71
			c-0.63-3.91-0.42-6.36-2.54-6.77c-3.22-0.63-5.15,5.61-4.83,10.21c0.52,7.39,3.2,13.88,8.48,17.28c-4.4,0-10.91,0-14.38,0
			c4.37-3.55,4.36-9.57,1.94-12.71c-2.12-2.75-5.37-2.46-7.7-1.75c-0.75-2.44-1.4-4.78-1.66-5.89c-1.36-5.69-7.81-8.07-12.19-3.96
			c1.19-11.55,11.02-21.12,23.66-21.12c6.3,0,12.34,2.53,16.75,6.9c-1.4,1.74-1.38,4.01-1.38,5.48c0.02,4.41,3.88,4.72,5.08,2.73
			c1.41-2.35,0.67-1.62,3.1-3.93c0.6-0.57,0.86-1.41,0.83-2.29c7.78-0.7,14.71,3.76,17.61,10.36c0.54,1.83-0.82,2.88-0.67,4.96
			c0.1,1.5,1.18,2.06,2.76,2.7c0.25,0.14,0.54,0.27,0.9,0.39C132.02,38.44,133.25,41.15,132.72,43.28z"/>
	</g>
	<g>
		<g>
			<path class="st0" d="M71.73,101.58v6.84H70.8v-6.84h-1.3v-0.78h1.3v-0.69c0-0.32,0.02-0.63,0.07-0.9
				c0.05-0.28,0.14-0.51,0.28-0.71c0.14-0.2,0.33-0.35,0.57-0.46c0.24-0.11,0.55-0.16,0.92-0.16c0.14,0,0.27,0.01,0.38,0.01
				c0.12,0.01,0.25,0.02,0.4,0.04v0.8c-0.13-0.02-0.25-0.04-0.35-0.05c-0.11-0.01-0.22-0.02-0.32-0.02c-0.26,0-0.45,0.04-0.59,0.12
				c-0.14,0.08-0.24,0.18-0.3,0.32c-0.06,0.13-0.1,0.29-0.11,0.47c-0.01,0.18-0.01,0.37-0.01,0.58v0.67h1.51v0.78H71.73z"/>
			<path class="st0" d="M81.66,108.42v-1.37h-0.03c-0.25,0.51-0.6,0.9-1.07,1.17c-0.47,0.27-0.99,0.41-1.56,0.41
				c-0.48,0-0.89-0.07-1.23-0.2c-0.34-0.13-0.62-0.32-0.83-0.57c-0.21-0.25-0.37-0.55-0.47-0.9c-0.1-0.36-0.15-0.76-0.15-1.21v-4.95
				h0.93v4.96c0.02,0.69,0.18,1.21,0.48,1.57c0.3,0.36,0.82,0.53,1.56,0.53c0.4,0,0.75-0.09,1.03-0.26c0.29-0.17,0.52-0.4,0.71-0.69
				c0.19-0.29,0.33-0.61,0.41-0.98c0.09-0.37,0.13-0.75,0.13-1.13v-4h0.93v7.62H81.66z"/>
			<path class="st0" d="M87.41,100.8v1.32h0.03c0.18-0.46,0.49-0.84,0.95-1.12c0.45-0.28,0.95-0.42,1.49-0.42
				c0.53,0,0.98,0.07,1.34,0.21c0.36,0.14,0.65,0.33,0.86,0.58c0.22,0.25,0.37,0.56,0.46,0.92c0.09,0.36,0.13,0.77,0.13,1.23v4.91
				h-0.93v-4.76c0-0.33-0.03-0.63-0.09-0.91c-0.06-0.28-0.16-0.53-0.31-0.73c-0.15-0.21-0.35-0.37-0.6-0.49
				c-0.25-0.12-0.56-0.18-0.94-0.18c-0.37,0-0.71,0.07-1,0.2c-0.29,0.13-0.54,0.32-0.74,0.55c-0.2,0.23-0.36,0.51-0.47,0.83
				c-0.11,0.32-0.18,0.67-0.18,1.04v4.45h-0.93v-7.62H87.41z"/>
			<path class="st0" d="M97.56,100.8v1.32h0.03c0.18-0.46,0.49-0.84,0.95-1.12c0.45-0.28,0.95-0.42,1.49-0.42
				c0.53,0,0.98,0.07,1.34,0.21c0.36,0.14,0.65,0.33,0.86,0.58c0.22,0.25,0.37,0.56,0.46,0.92c0.09,0.36,0.13,0.77,0.13,1.23v4.91
				h-0.93v-4.76c0-0.33-0.03-0.63-0.09-0.91c-0.06-0.28-0.16-0.53-0.31-0.73c-0.15-0.21-0.35-0.37-0.6-0.49
				c-0.25-0.12-0.56-0.18-0.94-0.18c-0.37,0-0.71,0.07-1,0.2c-0.29,0.13-0.54,0.32-0.74,0.55c-0.2,0.23-0.36,0.51-0.47,0.83
				c-0.11,0.32-0.18,0.67-0.18,1.04v4.45h-0.93v-7.62H97.56z"/>
			<path class="st0" d="M106.93,100.8l2.51,6.5l2.35-6.5h0.93l-3.31,8.78c-0.14,0.33-0.27,0.59-0.38,0.81
				c-0.12,0.21-0.25,0.38-0.39,0.5c-0.14,0.12-0.31,0.21-0.5,0.27c-0.19,0.05-0.44,0.08-0.73,0.08c-0.19-0.01-0.33-0.02-0.44-0.02
				c-0.1-0.01-0.2-0.02-0.27-0.05v-0.78c0.11,0.02,0.21,0.04,0.32,0.05c0.1,0.01,0.21,0.02,0.32,0.02c0.21,0,0.38-0.03,0.51-0.09
				c0.13-0.06,0.25-0.14,0.35-0.24c0.1-0.1,0.18-0.23,0.25-0.38c0.07-0.15,0.14-0.31,0.22-0.49l0.33-0.86l-3.04-7.6H106.93z"/>
			<path class="st0" d="M123.13,97.87v10.55h-0.93V97.87H123.13z"/>
			<path class="st0" d="M127.32,101.98c0.16-0.32,0.37-0.59,0.64-0.8c0.27-0.21,0.59-0.36,0.95-0.46c0.36-0.1,0.77-0.15,1.21-0.15
				c0.34,0,0.67,0.03,1,0.1c0.33,0.06,0.64,0.18,0.9,0.36c0.27,0.18,0.48,0.43,0.65,0.75c0.17,0.32,0.25,0.74,0.25,1.25v4.05
				c0,0.37,0.18,0.56,0.55,0.56c0.11,0,0.21-0.02,0.29-0.06v0.78c-0.11,0.02-0.2,0.03-0.29,0.04c-0.08,0.01-0.19,0.01-0.32,0.01
				c-0.24,0-0.43-0.03-0.57-0.1c-0.14-0.06-0.25-0.15-0.33-0.27c-0.08-0.12-0.13-0.26-0.15-0.42c-0.03-0.16-0.04-0.34-0.04-0.54
				h-0.03c-0.17,0.25-0.34,0.47-0.51,0.66c-0.17,0.19-0.36,0.35-0.58,0.48c-0.21,0.13-0.45,0.23-0.72,0.3
				c-0.27,0.07-0.59,0.1-0.97,0.1c-0.35,0-0.69-0.04-1-0.13c-0.31-0.08-0.58-0.22-0.81-0.4c-0.23-0.18-0.41-0.41-0.55-0.69
				c-0.13-0.28-0.2-0.61-0.2-1c0-0.53,0.12-0.95,0.35-1.25c0.24-0.3,0.55-0.53,0.94-0.69c0.39-0.16,0.83-0.27,1.32-0.33
				c0.49-0.06,0.98-0.13,1.48-0.18c0.2-0.02,0.37-0.04,0.52-0.07c0.15-0.03,0.27-0.08,0.37-0.15c0.1-0.07,0.18-0.18,0.23-0.3
				c0.05-0.13,0.08-0.3,0.08-0.5c0-0.32-0.05-0.57-0.16-0.78c-0.1-0.2-0.25-0.36-0.43-0.48c-0.18-0.12-0.39-0.2-0.64-0.24
				c-0.24-0.04-0.5-0.07-0.78-0.07c-0.59,0-1.07,0.14-1.45,0.42c-0.38,0.28-0.57,0.73-0.59,1.35h-0.93
				C127.07,102.69,127.17,102.31,127.32,101.98z M131.98,104.26c-0.06,0.11-0.17,0.19-0.34,0.24c-0.17,0.05-0.32,0.08-0.44,0.1
				c-0.39,0.07-0.8,0.13-1.22,0.18c-0.42,0.05-0.8,0.13-1.14,0.24c-0.35,0.11-0.63,0.26-0.85,0.47c-0.22,0.2-0.33,0.49-0.33,0.86
				c0,0.24,0.05,0.45,0.14,0.63c0.09,0.18,0.22,0.34,0.38,0.47c0.16,0.13,0.34,0.23,0.55,0.3c0.21,0.07,0.42,0.1,0.64,0.1
				c0.36,0,0.69-0.05,1.02-0.16c0.33-0.11,0.61-0.27,0.85-0.47c0.24-0.21,0.43-0.46,0.58-0.75c0.14-0.3,0.21-0.63,0.21-1v-1.21
				H131.98z"/>
			<path class="st0" d="M142.72,107.64v0.78h-6.37v-0.75l4.98-6.09h-4.64v-0.78h5.82v0.67l-5.04,6.18H142.72z"/>
			<path class="st0" d="M146.21,100.8l2.51,6.5l2.35-6.5H152l-3.31,8.78c-0.14,0.33-0.27,0.59-0.38,0.81
				c-0.12,0.21-0.25,0.38-0.39,0.5c-0.14,0.12-0.31,0.21-0.5,0.27c-0.19,0.05-0.44,0.08-0.73,0.08c-0.19-0.01-0.33-0.02-0.44-0.02
				c-0.1-0.01-0.19-0.02-0.27-0.05v-0.78c0.11,0.02,0.21,0.04,0.32,0.05c0.1,0.01,0.21,0.02,0.32,0.02c0.21,0,0.38-0.03,0.51-0.09
				c0.13-0.06,0.25-0.14,0.35-0.24c0.1-0.1,0.18-0.23,0.25-0.38c0.07-0.15,0.14-0.31,0.22-0.49l0.33-0.86l-3.04-7.6H146.21z"/>
		</g>
		<g>
			<g>
				<path class="st0" d="M46.67,99.41c0,0.79-0.28,1.46-0.84,2.03c-0.56,0.56-1.24,0.84-2.02,0.84h-2.87V81.26
					c0-3.94,1.15-6.62,3.46-8.06c2.31-1.43,4.81-2.15,7.51-2.15c1.41,0,2.83,0.27,4.26,0.8c1.43,0.53,2.57,1.31,3.42,2.32
					c1.69,2.19,2.53,5.01,2.53,8.44c0,3.54-0.84,6.41-2.53,8.61c-1.69,2.14-3.85,3.21-6.5,3.21c-1.41,0-2.65-0.25-3.71-0.76
					c-1.13-0.56-2.03-1.43-2.7-2.62V99.41z M56.29,82.87c0-2.19-0.42-3.88-1.27-5.06c-0.84-1.18-2.05-1.77-3.63-1.77
					c-1.52,0-2.7,0.59-3.54,1.77c-0.79,1.07-1.18,2.76-1.18,5.06c0,2.14,0.42,3.74,1.27,4.81c0.84,1.18,2.05,1.77,3.63,1.77
					c1.46,0,2.62-0.59,3.46-1.77C55.87,86.5,56.29,84.89,56.29,82.87z"/>
				<path class="st0" d="M79.3,93.08c-1.18,0.62-2.43,1-3.76,1.14c-1.32,0.14-2.49,0.21-3.5,0.21c-2.03,0-3.8-0.55-5.32-1.65
					c-1.52-1.1-2.28-2.91-2.28-5.44c0-2.36,0.69-4.05,2.07-5.06c1.38-1.01,3.14-1.69,5.27-2.03c0.28,0,0.62-0.04,1.01-0.13
					c0.39-0.08,0.84-0.15,1.35-0.21c2.47-0.34,3.71-1.07,3.71-2.2c0-0.84-0.44-1.39-1.31-1.65c-0.87-0.25-1.67-0.38-2.41-0.38
					c-0.79,0-1.49,0.11-2.11,0.34c-0.62,0.23-1.07,0.65-1.35,1.27h-5.65c0.22-1.74,1.01-3.18,2.36-4.3c1.52-1.29,3.68-1.94,6.5-1.94
					c3.15,0,5.51,0.53,7.09,1.6c1.63,1.13,2.45,2.7,2.45,4.73v7.68c0,2.25-0.41,4.01-1.22,5.27C81.4,91.6,80.43,92.52,79.3,93.08z
					 M77.95,82.7c-0.79,0.39-1.89,0.76-3.29,1.1l-1.94,0.42c-1.01,0.28-1.74,0.65-2.19,1.1c-0.39,0.62-0.59,1.24-0.59,1.86
					c0,0.84,0.25,1.52,0.76,2.02c0.51,0.45,1.24,0.68,2.19,0.68c1.57,0,2.81-0.45,3.71-1.35c0.9-0.9,1.35-2.14,1.35-3.71V82.7z"/>
				<path class="st0" d="M106.24,94.01h-2.95c-0.84,0-1.53-0.27-2.07-0.8c-0.53-0.53-0.8-1.22-0.8-2.07V79.66
					c0-1.35-0.41-2.33-1.22-2.95c-0.82-0.62-1.73-0.93-2.74-0.93c-1.01,0-1.91,0.31-2.7,0.93c-0.79,0.62-1.18,1.6-1.18,2.95v14.35
					h-5.91V80.84c0-3.83,1-6.38,3-7.68c2-1.29,4.2-2,6.62-2.11c2.47,0,4.75,0.65,6.84,1.94c2.08,1.29,3.12,3.91,3.12,7.85V94.01z"/>
				<path class="st0" d="M124.39,64.89h2.87c0.79,0,1.46,0.3,2.02,0.89c0.56,0.59,0.84,1.25,0.84,1.98v16.45c0,4-1.15,6.7-3.46,8.1
					c-2.31,1.41-4.81,2.11-7.51,2.11c-1.46,0-2.9-0.24-4.3-0.72c-1.41-0.48-2.53-1.25-3.37-2.32c-1.63-2.08-2.45-4.92-2.45-8.52
					c0-3.55,0.81-6.38,2.45-8.52c1.69-2.19,3.85-3.29,6.5-3.29c1.41,0,2.64,0.28,3.71,0.84c1.12,0.67,2.02,1.55,2.7,2.62V64.89z
					 M114.77,82.61c0,2.25,0.42,3.97,1.27,5.15c0.84,1.18,2.05,1.77,3.63,1.77c1.52,0,2.7-0.59,3.54-1.77
					c0.79-1.18,1.18-2.9,1.18-5.15c0-2.02-0.42-3.63-1.27-4.81c-0.9-1.12-2.11-1.69-3.63-1.69c-1.46,0-2.62,0.59-3.46,1.77
					C115.19,79.01,114.77,80.59,114.77,82.61z"/>
				<path class="st0" d="M147.87,93.08c-1.18,0.62-2.43,1-3.76,1.14c-1.32,0.14-2.49,0.21-3.5,0.21c-2.03,0-3.8-0.55-5.32-1.65
					c-1.52-1.1-2.28-2.91-2.28-5.44c0-2.36,0.69-4.05,2.07-5.06c1.38-1.01,3.14-1.69,5.27-2.03c0.28,0,0.62-0.04,1.01-0.13
					c0.39-0.08,0.84-0.15,1.35-0.21c2.47-0.34,3.71-1.07,3.71-2.2c0-0.84-0.44-1.39-1.31-1.65c-0.87-0.25-1.67-0.38-2.4-0.38
					c-0.79,0-1.49,0.11-2.11,0.34c-0.62,0.23-1.07,0.65-1.35,1.27h-5.65c0.22-1.74,1.01-3.18,2.36-4.3c1.52-1.29,3.68-1.94,6.5-1.94
					c3.15,0,5.51,0.53,7.09,1.6c1.63,1.13,2.45,2.7,2.45,4.73v7.68c0,2.25-0.41,4.01-1.22,5.27
					C149.96,91.6,148.99,92.52,147.87,93.08z M146.52,82.7c-0.79,0.39-1.89,0.76-3.29,1.1l-1.94,0.42c-1.01,0.28-1.74,0.65-2.19,1.1
					c-0.4,0.62-0.59,1.24-0.59,1.86c0,0.84,0.25,1.52,0.76,2.02c0.51,0.45,1.24,0.68,2.19,0.68c1.57,0,2.81-0.45,3.71-1.35
					c0.9-0.9,1.35-2.14,1.35-3.71V82.7z"/>
			</g>
		</g>
	</g>
</g>
</svg>
