<?xml version="1.0" encoding="utf-8"?>
<!-- Generator: Adobe Illustrator 27.1.0, SVG Export Plug-In . SVG Version: 6.00 Build 0)  -->
<svg version="1.1" id="Layer_1" xmlns="http://www.w3.org/2000/svg" xmlns:xlink="http://www.w3.org/1999/xlink" x="0px" y="0px"
	 viewBox="0 0 200 120" style="enable-background:new 0 0 200 120;" xml:space="preserve">
<style type="text/css">
	.st0{fill:#FFFFFF;}
	.st1{fill:#231F20;}
	.st2{fill:#AD5726;}
</style>
<g>
	<g>
		<g>
			<path class="st0" d="M55.07,86.38c-0.44-0.59-0.98-1.03-1.62-1.32c-0.64-0.29-1.31-0.44-2.01-0.44c-0.81,0-1.55,0.16-2.23,0.49
				c-0.68,0.33-1.26,0.77-1.76,1.32c-0.49,0.55-0.88,1.2-1.15,1.93c-0.27,0.73-0.41,1.5-0.41,2.29c0,0.85,0.14,1.64,0.41,2.37
				c0.27,0.73,0.65,1.37,1.14,1.91c0.49,0.54,1.07,0.97,1.74,1.28c0.68,0.32,1.43,0.47,2.25,0.47c0.89,0,1.68-0.17,2.38-0.52
				c0.7-0.35,1.31-0.85,1.83-1.51l1.29,1.09c-0.66,0.88-1.45,1.52-2.37,1.93c-0.92,0.41-1.97,0.62-3.13,0.62
				c-1.04,0-2.01-0.19-2.91-0.58c-0.9-0.38-1.69-0.91-2.35-1.59c-0.66-0.68-1.18-1.48-1.56-2.41c-0.38-0.93-0.56-1.95-0.56-3.06
				c0-1.07,0.18-2.07,0.54-3c0.36-0.93,0.87-1.74,1.53-2.42c0.66-0.68,1.44-1.22,2.34-1.62c0.9-0.4,1.9-0.6,2.98-0.6
				c0.99,0,1.93,0.18,2.84,0.53c0.91,0.36,1.67,0.94,2.29,1.75L55.07,86.38z"/>
			<path class="st0" d="M67.63,98.29c-1.11,0-2.12-0.19-3.05-0.58c-0.92-0.38-1.72-0.91-2.4-1.59c-0.68-0.68-1.2-1.48-1.58-2.42
				c-0.38-0.94-0.56-1.95-0.56-3.05c0-1.09,0.19-2.11,0.56-3.05c0.38-0.94,0.9-1.75,1.58-2.42c0.68-0.68,1.48-1.21,2.4-1.59
				c0.92-0.38,1.94-0.57,3.05-0.57c1.11,0,2.12,0.19,3.05,0.57c0.92,0.38,1.72,0.91,2.4,1.59c0.68,0.68,1.2,1.49,1.58,2.42
				c0.38,0.94,0.56,1.95,0.56,3.05c0,1.1-0.19,2.11-0.56,3.05c-0.38,0.94-0.9,1.75-1.58,2.42c-0.68,0.68-1.48,1.21-2.4,1.59
				C69.75,98.1,68.74,98.29,67.63,98.29z M67.63,96.69c0.85,0,1.62-0.16,2.33-0.47c0.7-0.31,1.31-0.75,1.82-1.29
				c0.51-0.55,0.9-1.19,1.18-1.92c0.28-0.73,0.42-1.52,0.42-2.35c0-0.83-0.14-1.62-0.42-2.35c-0.28-0.73-0.67-1.37-1.18-1.92
				c-0.51-0.55-1.11-0.98-1.82-1.29c-0.7-0.31-1.48-0.47-2.33-0.47c-0.85,0-1.63,0.16-2.33,0.47c-0.71,0.32-1.31,0.75-1.82,1.29
				c-0.51,0.55-0.9,1.19-1.18,1.92c-0.28,0.73-0.42,1.52-0.42,2.35c0,0.83,0.14,1.62,0.42,2.35c0.28,0.73,0.67,1.37,1.18,1.92
				c0.51,0.55,1.11,0.98,1.82,1.29C66,96.53,66.78,96.69,67.63,96.69z"/>
			<path class="st0" d="M79.53,83.39h2.57l4.93,11.39h0.04l4.97-11.39h2.5v14.53h-1.72V85.73h-0.04l-5.21,12.19h-1.05L81.3,85.73
				h-0.04v12.19h-1.72V83.39z"/>
			<path class="st0" d="M99.69,83.39H104c0.67,0,1.31,0.07,1.92,0.19c0.61,0.13,1.15,0.35,1.62,0.66c0.47,0.31,0.85,0.72,1.13,1.23
				c0.28,0.51,0.42,1.15,0.42,1.9c0,0.79-0.15,1.45-0.45,1.97c-0.3,0.52-0.69,0.93-1.16,1.23c-0.47,0.3-0.99,0.51-1.55,0.64
				c-0.56,0.12-1.1,0.18-1.6,0.18h-2.92v6.53h-1.72V83.39z M101.42,89.79h2.92c0.86,0,1.56-0.19,2.1-0.59
				c0.54-0.39,0.81-1,0.81-1.82c0-0.82-0.27-1.43-0.81-1.82c-0.54-0.39-1.24-0.58-2.1-0.58h-2.92V89.79z"/>
			<path class="st0" d="M116.61,83.39h1.62l6.18,14.53h-2.01l-1.48-3.57h-7.27l-1.5,3.57h-1.95L116.61,83.39z M117.39,85.6h-0.04
				l-3.02,7.14h5.93L117.39,85.6z"/>
			<path class="st0" d="M127.88,83.39h2.18l8.42,12.07h0.04V83.39h1.72v14.53h-2.18l-8.42-12.07h-0.04v12.07h-1.72V83.39z"/>
			<path class="st0" d="M148.81,91.66l-5.42-8.27h2.2l4.08,6.57l4.21-6.57h2.07l-5.42,8.27v6.26h-1.72V91.66z"/>
		</g>
		<g>
			<path class="st0" d="M79.57,104.96c-0.15-0.21-0.34-0.37-0.57-0.5c-0.23-0.13-0.51-0.19-0.84-0.19c-0.17,0-0.34,0.03-0.51,0.08
				s-0.33,0.13-0.47,0.24c-0.14,0.11-0.26,0.24-0.34,0.4c-0.09,0.16-0.13,0.35-0.13,0.57c0,0.22,0.04,0.4,0.13,0.54
				c0.08,0.14,0.19,0.26,0.33,0.36c0.14,0.1,0.3,0.18,0.47,0.25c0.18,0.06,0.36,0.13,0.56,0.19c0.24,0.08,0.48,0.16,0.72,0.25
				c0.24,0.09,0.46,0.21,0.65,0.35c0.19,0.14,0.35,0.33,0.47,0.55c0.12,0.22,0.18,0.51,0.18,0.85c0,0.34-0.07,0.64-0.2,0.89
				c-0.13,0.25-0.3,0.45-0.51,0.61c-0.21,0.16-0.45,0.28-0.71,0.36c-0.27,0.08-0.54,0.12-0.81,0.12c-0.21,0-0.41-0.02-0.62-0.06
				c-0.21-0.04-0.4-0.1-0.59-0.19c-0.19-0.08-0.36-0.19-0.52-0.32c-0.16-0.13-0.3-0.28-0.43-0.45l0.6-0.45
				c0.15,0.25,0.36,0.45,0.62,0.61c0.27,0.16,0.58,0.25,0.94,0.25c0.17,0,0.35-0.03,0.53-0.08c0.18-0.05,0.34-0.14,0.49-0.25
				c0.15-0.11,0.26-0.25,0.36-0.42c0.09-0.16,0.14-0.36,0.14-0.58c0-0.24-0.05-0.44-0.14-0.6c-0.09-0.16-0.22-0.29-0.37-0.4
				c-0.15-0.11-0.33-0.2-0.53-0.27c-0.2-0.07-0.41-0.14-0.63-0.21c-0.23-0.07-0.45-0.15-0.67-0.24c-0.22-0.09-0.42-0.21-0.59-0.35
				c-0.17-0.15-0.31-0.32-0.42-0.54c-0.11-0.21-0.16-0.47-0.16-0.78c0-0.33,0.07-0.61,0.2-0.85c0.13-0.24,0.31-0.44,0.52-0.59
				c0.21-0.15,0.45-0.27,0.71-0.34c0.26-0.07,0.51-0.11,0.76-0.11c0.46,0,0.86,0.08,1.19,0.25c0.33,0.16,0.58,0.36,0.75,0.59
				L79.57,104.96z"/>
			<path class="st0" d="M84.35,110.09h3.2v0.62h-3.89v-6.86h0.7V110.09z"/>
			<path class="st0" d="M97.01,107.28c0,0.52-0.09,1-0.27,1.44c-0.18,0.44-0.43,0.82-0.75,1.14c-0.32,0.32-0.7,0.57-1.13,0.75
				c-0.44,0.18-0.91,0.27-1.42,0.27c-0.51,0-0.98-0.09-1.42-0.27c-0.44-0.18-0.81-0.43-1.13-0.75c-0.32-0.32-0.57-0.7-0.75-1.14
				c-0.18-0.44-0.27-0.92-0.27-1.44c0-0.52,0.09-1,0.27-1.44c0.18-0.44,0.43-0.82,0.75-1.14c0.32-0.32,0.7-0.57,1.13-0.75
				c0.44-0.18,0.91-0.27,1.42-0.27c0.51,0,0.98,0.09,1.42,0.27c0.44,0.18,0.81,0.43,1.13,0.75c0.32,0.32,0.57,0.7,0.75,1.14
				C96.92,106.28,97.01,106.76,97.01,107.28z M96.28,107.29c0-0.4-0.06-0.78-0.19-1.14c-0.13-0.36-0.32-0.68-0.56-0.95
				c-0.25-0.27-0.54-0.49-0.9-0.65c-0.35-0.16-0.75-0.24-1.19-0.24c-0.44,0-0.83,0.08-1.19,0.24c-0.35,0.16-0.65,0.38-0.9,0.65
				c-0.25,0.27-0.43,0.59-0.56,0.95c-0.13,0.36-0.19,0.74-0.19,1.14c0,0.4,0.06,0.78,0.19,1.14c0.13,0.36,0.32,0.68,0.56,0.95
				c0.25,0.27,0.54,0.49,0.9,0.65c0.35,0.16,0.75,0.24,1.19,0.24c0.44,0,0.83-0.08,1.19-0.24c0.35-0.16,0.65-0.38,0.9-0.65
				c0.25-0.27,0.43-0.59,0.56-0.95C96.21,108.07,96.28,107.69,96.28,107.29z"/>
			<path class="st0" d="M105.6,105.09c-0.24-0.25-0.52-0.45-0.85-0.59c-0.33-0.14-0.71-0.21-1.13-0.21c-0.44,0-0.83,0.08-1.19,0.24
				c-0.35,0.16-0.65,0.38-0.9,0.65c-0.25,0.27-0.43,0.59-0.57,0.95c-0.13,0.36-0.2,0.74-0.2,1.14c0,0.4,0.07,0.78,0.2,1.14
				c0.13,0.36,0.32,0.68,0.57,0.95c0.25,0.27,0.54,0.49,0.9,0.65c0.35,0.16,0.75,0.24,1.19,0.24c0.39,0,0.74-0.04,1.07-0.13
				c0.32-0.08,0.58-0.19,0.78-0.32v-2.08h-1.6v-0.62h2.29v3.1c-0.37,0.23-0.78,0.39-1.21,0.5c-0.43,0.11-0.88,0.17-1.35,0.17
				c-0.52,0-0.99-0.09-1.43-0.27c-0.44-0.18-0.82-0.43-1.13-0.75c-0.32-0.32-0.56-0.7-0.74-1.14c-0.18-0.44-0.27-0.92-0.27-1.44
				c0-0.52,0.09-1,0.27-1.44c0.18-0.44,0.43-0.82,0.75-1.14c0.32-0.32,0.7-0.57,1.13-0.75c0.44-0.18,0.91-0.27,1.42-0.27
				c0.55,0,1.03,0.08,1.43,0.25c0.41,0.16,0.76,0.39,1.05,0.68L105.6,105.09z"/>
			<path class="st0" d="M109.83,110.71h-0.76l2.96-6.86h0.68l2.94,6.86h-0.77l-0.76-1.8h-3.54L109.83,110.71z M110.84,108.27h3.02
				l-1.51-3.64L110.84,108.27z"/>
			<path class="st0" d="M123.46,109.69h0.02v-5.84h0.7v6.86h-0.87l-3.99-5.9h-0.02v5.9h-0.7v-6.86h0.87L123.46,109.69z"/>
		</g>
	</g>
	<g>
		<g>
			<g>
				<path class="st0" d="M69.93,37.83c-0.01,0-0.02,0-0.03,0v0c0,0,0,0,0,0c0.22,0.05,0.44,0.09,0.67,0.13
					C70.36,37.93,70.15,37.88,69.93,37.83z M69.93,37.83c-0.01,0-0.02,0-0.03,0v0c0,0,0,0,0,0c0.22,0.05,0.44,0.09,0.67,0.13
					C70.36,37.93,70.15,37.88,69.93,37.83z M69.93,37.83c-0.01,0-0.02,0-0.03,0v0c0,0,0,0,0,0c0.22,0.05,0.44,0.09,0.67,0.13
					C70.36,37.93,70.15,37.88,69.93,37.83z M69.93,37.83c-0.01,0-0.02,0-0.03,0v0c0,0,0,0,0,0c0.22,0.05,0.44,0.09,0.67,0.13
					C70.36,37.93,70.15,37.88,69.93,37.83z M69.93,37.83c-0.01,0-0.02,0-0.03,0v0c0,0,0,0,0,0c0.22,0.05,0.44,0.09,0.67,0.13
					C70.36,37.93,70.15,37.88,69.93,37.83z"/>
				<path class="st0" d="M98.62,18.76c0,2.99-0.32,5.9-0.92,8.67c-0.6,2.76-1.47,5.38-2.58,7.83c-2.42,1.1-5.03,1.97-7.76,2.57
					c-2.79,0.61-5.72,0.93-8.74,0.93c-2.76,0-5.45-0.27-8.02-0.78c-0.01,0-0.01,0-0.02,0c-0.21-0.05-0.43-0.1-0.64-0.15
					c0.21-0.05,0.43-0.1,0.64-0.15c-0.22,0.04-0.44,0.09-0.67,0.13c1.57-7.24,5.07-13.55,9.78-18.1c4.55-4.66,10.81-8.11,18-9.67v0
					c0,0.01,0,0.03,0.01,0.04C98.3,12.86,98.62,15.77,98.62,18.76z"/>
				<path class="st0" d="M70.57,37.98c-0.22-0.04-0.44-0.09-0.67-0.13c0,0,0,0,0,0v0c0.01,0,0.02,0,0.03,0
					C70.15,37.88,70.36,37.93,70.57,37.98z"/>
			</g>
			<path class="st0" d="M97.68,10.04c-2.78-0.6-5.7-0.92-8.7-0.92c-5.98,0-11.6,1.27-16.5,3.5c-2.23,4.9-3.5,10.52-3.5,16.5
				c0,3.01,0.32,5.93,0.93,8.71c0,0,0,0,0,0c1.57-7.24,5.07-13.55,9.78-18.1C84.23,15.06,90.5,11.61,97.68,10.04L97.68,10.04
				C97.68,10.04,97.68,10.04,97.68,10.04z"/>
		</g>
		<g>
			<g>
				<path class="st0" d="M102.3,10.07c0-0.01,0-0.02,0-0.03h0c0,0,0,0,0,0c-0.05,0.22-0.09,0.44-0.13,0.67
					C102.2,10.5,102.25,10.28,102.3,10.07z M102.3,10.07c0-0.01,0-0.02,0-0.03h0c0,0,0,0,0,0c-0.05,0.22-0.09,0.44-0.13,0.67
					C102.2,10.5,102.25,10.28,102.3,10.07z M102.3,10.07c0-0.01,0-0.02,0-0.03h0c0,0,0,0,0,0c-0.05,0.22-0.09,0.44-0.13,0.67
					C102.2,10.5,102.25,10.28,102.3,10.07z M102.3,10.07c0-0.01,0-0.02,0-0.03h0c0,0,0,0,0,0c-0.05,0.22-0.09,0.44-0.13,0.67
					C102.2,10.5,102.25,10.28,102.3,10.07z M102.3,10.07c0-0.01,0-0.02,0-0.03h0c0,0,0,0,0,0c-0.05,0.22-0.09,0.44-0.13,0.67
					C102.2,10.5,102.25,10.28,102.3,10.07z"/>
				<path class="st0" d="M121.38,38.77c-3,0-5.9-0.32-8.67-0.92c-2.76-0.6-5.39-1.47-7.83-2.59c-1.1-2.42-1.97-5.03-2.57-7.76
					c-0.61-2.79-0.93-5.72-0.93-8.74c0-2.76,0.27-5.45,0.79-8.03c0-0.01,0-0.01,0-0.02c0.05-0.21,0.1-0.43,0.15-0.64
					c0.05,0.21,0.1,0.43,0.15,0.64c-0.04-0.22-0.09-0.44-0.13-0.67c7.24,1.57,13.56,5.07,18.11,9.78
					c4.67,4.55,8.11,10.82,9.68,18.01h0c-0.01,0-0.03,0-0.04,0.01C127.28,38.45,124.37,38.77,121.38,38.77z"/>
				<path class="st0" d="M102.15,10.71c0.04-0.22,0.09-0.44,0.13-0.67c0,0,0,0,0,0h0c0,0.01,0,0.02,0,0.03
					C102.25,10.28,102.2,10.5,102.15,10.71z"/>
			</g>
			<path class="st0" d="M130.1,37.83c0.6-2.78,0.92-5.7,0.92-8.71c0-5.98-1.27-11.6-3.51-16.51c-4.9-2.23-10.53-3.51-16.51-3.51
				c-3.01,0-5.93,0.32-8.71,0.93c0,0,0,0,0,0c7.24,1.57,13.56,5.07,18.11,9.78C125.09,24.38,128.53,30.65,130.1,37.83L130.1,37.83
				C130.1,37.83,130.1,37.83,130.1,37.83z"/>
		</g>
		<g>
			<g>
				<path class="st0" d="M130.07,42.46c0.01,0,0.02,0,0.03,0v0c0,0,0,0,0,0c-0.22-0.05-0.44-0.09-0.67-0.13
					C129.64,42.36,129.85,42.41,130.07,42.46z M130.07,42.46c0.01,0,0.02,0,0.03,0v0c0,0,0,0,0,0c-0.22-0.05-0.44-0.09-0.67-0.13
					C129.64,42.36,129.85,42.41,130.07,42.46z M130.07,42.46c0.01,0,0.02,0,0.03,0v0c0,0,0,0,0,0c-0.22-0.05-0.44-0.09-0.67-0.13
					C129.64,42.36,129.85,42.41,130.07,42.46z M130.07,42.46c0.01,0,0.02,0,0.03,0v0c0,0,0,0,0,0c-0.22-0.05-0.44-0.09-0.67-0.13
					C129.64,42.36,129.85,42.41,130.07,42.46z M130.07,42.46c0.01,0,0.02,0,0.03,0v0c0,0,0,0,0,0c-0.22-0.05-0.44-0.09-0.67-0.13
					C129.64,42.36,129.85,42.41,130.07,42.46z"/>
				<path class="st0" d="M101.38,61.53c0-2.99,0.32-5.9,0.92-8.67c0.6-2.76,1.47-5.38,2.58-7.83c2.42-1.1,5.03-1.97,7.76-2.57
					c2.79-0.61,5.72-0.93,8.74-0.93c2.76,0,5.45,0.27,8.02,0.78c0.01,0,0.01,0,0.02,0c0.21,0.05,0.43,0.1,0.64,0.15
					c-0.21,0.05-0.43,0.1-0.64,0.15c0.22-0.04,0.44-0.09,0.67-0.13c-1.57,7.24-5.07,13.55-9.78,18.1c-4.55,4.66-10.81,8.11-18,9.67
					v0c0-0.01,0-0.03-0.01-0.04C101.7,67.43,101.38,64.52,101.38,61.53z"/>
				<path class="st0" d="M129.43,42.31c0.22,0.04,0.44,0.09,0.67,0.13c0,0,0,0,0,0v0c-0.01,0-0.02,0-0.03,0
					C129.85,42.41,129.64,42.36,129.43,42.31z"/>
			</g>
			<path class="st0" d="M102.32,70.25c2.78,0.6,5.7,0.92,8.7,0.92c5.98,0,11.6-1.27,16.5-3.5c2.23-4.9,3.5-10.52,3.5-16.5
				c0-3.01-0.32-5.93-0.93-8.71c0,0,0,0,0,0c-1.57,7.24-5.07,13.55-9.78,18.1C115.77,65.23,109.5,68.68,102.32,70.25L102.32,70.25
				C102.32,70.25,102.32,70.25,102.32,70.25z"/>
		</g>
		<g>
			<g>
				<path class="st0" d="M97.7,70.22c0,0.01,0,0.02,0,0.03h0c0,0,0,0,0,0c0.05-0.22,0.09-0.44,0.13-0.67
					C97.8,69.79,97.75,70,97.7,70.22z M97.7,70.22c0,0.01,0,0.02,0,0.03h0c0,0,0,0,0,0c0.05-0.22,0.09-0.44,0.13-0.67
					C97.8,69.79,97.75,70,97.7,70.22z M97.7,70.22c0,0.01,0,0.02,0,0.03h0c0,0,0,0,0,0c0.05-0.22,0.09-0.44,0.13-0.67
					C97.8,69.79,97.75,70,97.7,70.22z M97.7,70.22c0,0.01,0,0.02,0,0.03h0c0,0,0,0,0,0c0.05-0.22,0.09-0.44,0.13-0.67
					C97.8,69.79,97.75,70,97.7,70.22z M97.7,70.22c0,0.01,0,0.02,0,0.03h0c0,0,0,0,0,0c0.05-0.22,0.09-0.44,0.13-0.67
					C97.8,69.79,97.75,70,97.7,70.22z"/>
				<path class="st0" d="M78.62,41.52c3,0,5.9,0.32,8.67,0.92c2.76,0.6,5.39,1.47,7.83,2.59c1.1,2.42,1.97,5.03,2.57,7.76
					c0.61,2.79,0.93,5.72,0.93,8.74c0,2.76-0.27,5.45-0.79,8.03c0,0.01,0,0.01,0,0.02c-0.05,0.21-0.1,0.43-0.15,0.64
					c-0.05-0.21-0.1-0.43-0.15-0.64c0.04,0.22,0.09,0.44,0.13,0.67c-7.24-1.57-13.56-5.07-18.11-9.78
					c-4.67-4.55-8.11-10.82-9.68-18.01h0c0.01,0,0.03,0,0.04-0.01C72.72,41.84,75.63,41.52,78.62,41.52z"/>
				<path class="st0" d="M97.85,69.58c-0.04,0.22-0.09,0.44-0.13,0.67c0,0,0,0,0,0h0c0-0.01,0-0.02,0-0.03
					C97.75,70,97.8,69.79,97.85,69.58z"/>
			</g>
			<path class="st0" d="M69.9,42.45c-0.6,2.78-0.92,5.7-0.92,8.71c0,5.98,1.27,11.6,3.5,16.51c4.9,2.23,10.53,3.51,16.51,3.51
				c3.01,0,5.93-0.32,8.71-0.93c0,0,0,0,0,0c-7.24-1.57-13.56-5.07-18.11-9.78C74.91,55.91,71.47,49.64,69.9,42.45L69.9,42.45
				C69.9,42.45,69.9,42.45,69.9,42.45z"/>
		</g>
	</g>
</g>
</svg>
