<?xml version="1.0" encoding="utf-8"?>
<!-- Generator: Adobe Illustrator 27.1.0, SVG Export Plug-In . SVG Version: 6.00 Build 0)  -->
<svg version="1.1" id="Layer_1" xmlns="http://www.w3.org/2000/svg" xmlns:xlink="http://www.w3.org/1999/xlink" x="0px" y="0px"
	 viewBox="0 0 200 120" style="enable-background:new 0 0 200 120;" xml:space="preserve">
<style type="text/css">
	.st0{fill:#FFFFFF;}
	.st1{fill:#231F20;}
	.st2{fill:#AD5726;}
</style>
<g>
	<path class="st0" d="M55.78,103.09c0.27,0.23,0.57,0.38,0.91,0.47c0.34,0.09,0.67,0.13,1,0.13c0.38,0,0.74-0.08,1.07-0.23
		c0.33-0.15,0.62-0.36,0.87-0.62c0.25-0.26,0.44-0.55,0.58-0.89c0.14-0.33,0.21-0.68,0.21-1.05v-0.74H58.7v0.59
		c0,0.24-0.03,0.43-0.1,0.59c-0.07,0.16-0.15,0.28-0.25,0.37c-0.11,0.09-0.23,0.15-0.36,0.19c-0.13,0.04-0.25,0.06-0.36,0.06
		c-0.39,0-0.67-0.12-0.82-0.35c-0.15-0.24-0.23-0.53-0.23-0.88V94.6c0-0.4,0.07-0.74,0.21-1c0.14-0.26,0.42-0.4,0.85-0.4
		c0.33,0,0.58,0.12,0.78,0.37c0.19,0.25,0.29,0.54,0.29,0.88v0.57h1.72v-0.67c0-0.42-0.07-0.8-0.21-1.16
		c-0.14-0.35-0.33-0.66-0.58-0.92c-0.51-0.53-1.16-0.79-1.97-0.79c-0.42,0-0.8,0.07-1.14,0.21c-0.34,0.14-0.64,0.33-0.89,0.58
		c-0.25,0.25-0.44,0.54-0.57,0.88c-0.13,0.34-0.2,0.7-0.2,1.1v6.61c0,0.55,0.09,1,0.26,1.36C55.29,102.57,55.51,102.86,55.78,103.09
		z"/>
	<path class="st0" d="M69.4,102.95c0.27,0.25,0.58,0.43,0.92,0.56c0.34,0.12,0.69,0.19,1.04,0.19c0.35,0,0.69-0.06,1.04-0.19
		c0.34-0.12,0.65-0.31,0.94-0.56c0.27-0.24,0.49-0.53,0.66-0.89c0.17-0.36,0.25-0.79,0.25-1.3v-6.34c0-0.48-0.08-0.91-0.25-1.28
		c-0.17-0.37-0.39-0.68-0.66-0.93c-0.28-0.24-0.59-0.42-0.94-0.54c-0.34-0.12-0.69-0.19-1.04-0.19c-0.35,0-0.69,0.06-1.04,0.19
		c-0.34,0.12-0.65,0.3-0.92,0.54c-0.28,0.25-0.51,0.56-0.67,0.93c-0.17,0.37-0.25,0.8-0.25,1.28v6.34c0,0.51,0.08,0.94,0.25,1.3
		C68.89,102.42,69.11,102.71,69.4,102.95z M70.19,94.42c0-0.42,0.12-0.72,0.35-0.92c0.23-0.2,0.5-0.3,0.82-0.3s0.59,0.1,0.82,0.3
		c0.23,0.2,0.35,0.5,0.35,0.92v6.34c0,0.42-0.12,0.72-0.35,0.92c-0.23,0.2-0.5,0.3-0.82,0.3s-0.59-0.1-0.82-0.3
		c-0.23-0.2-0.35-0.5-0.35-0.92V94.42z"/>
	<polygon class="st0" points="86.4,97.94 86.36,97.94 84.15,91.58 82.5,91.58 82.5,103.59 84.22,103.59 84.22,96.29 84.25,96.29 
		85.94,101.45 86.8,101.45 88.51,96.29 88.54,96.29 88.54,103.59 90.26,103.59 90.26,91.58 88.59,91.58 	"/>
	<path class="st0" d="M103.43,92.43c-0.29-0.31-0.62-0.53-0.98-0.66c-0.36-0.12-0.78-0.19-1.25-0.19h-2.58v12.01h1.72V98.9h0.88
		c0.64,0,1.16-0.11,1.55-0.33c0.39-0.22,0.71-0.53,0.94-0.92c0.2-0.33,0.33-0.67,0.4-1.05c0.06-0.37,0.09-0.83,0.09-1.37
		c0-0.72-0.06-1.29-0.17-1.71C103.93,93.11,103.72,92.74,103.43,92.43z M102.56,96.09c-0.02,0.25-0.07,0.46-0.16,0.62
		c-0.09,0.18-0.23,0.32-0.42,0.42c-0.19,0.1-0.46,0.15-0.81,0.15h-0.83V93.2h0.89c0.34,0,0.6,0.05,0.78,0.15
		c0.18,0.1,0.31,0.25,0.4,0.44c0.09,0.19,0.14,0.41,0.15,0.67c0.01,0.25,0.02,0.52,0.02,0.8C102.59,95.56,102.58,95.84,102.56,96.09
		z"/>
	<path class="st0" d="M113.52,91.58l-2.68,12.01h1.72l0.51-2.58h2.34l0.51,2.58h1.72l-2.68-12.01H113.52z M113.37,99.39l0.84-4.35
		h0.03l0.84,4.35H113.37z"/>
	<polygon class="st0" points="125.16,103.59 126.88,103.59 126.88,96.37 126.91,96.37 129.54,103.59 131.16,103.59 131.16,91.58 
		129.44,91.58 129.44,98.82 129.41,98.82 126.81,91.58 125.16,91.58 	"/>
	<polygon class="st0" points="141.06,103.59 142.78,103.59 142.78,98.51 145.14,91.58 143.32,91.58 141.94,96.36 141.91,96.36 
		140.52,91.58 138.7,91.58 141.06,98.51 	"/>
	<polygon class="st0" points="56.3,111.6 56.3,108.58 57.25,108.58 57.25,108.11 54.81,108.11 54.81,108.58 55.77,108.58 
		55.77,111.6 	"/>
	<path class="st0" d="M61.55,108.11h-0.44l-1.27,3.49h0.56l0.27-0.78h1.32l0.27,0.78h0.56L61.55,108.11z M60.82,110.35l0.5-1.53
		h0.01l0.5,1.53H60.82z"/>
	<path class="st0" d="M66,110.85c0.02,0.05,0.04,0.1,0.07,0.15c0.08,0.16,0.22,0.3,0.41,0.43c0.18,0.13,0.41,0.19,0.69,0.2
		c0.36-0.01,0.65-0.13,0.88-0.36c0.23-0.24,0.35-0.53,0.36-0.88v-0.71h-1.24v0.5h0.71v0.18c0,0.22-0.07,0.39-0.21,0.53
		c-0.13,0.14-0.3,0.21-0.51,0.21c-0.12,0-0.23-0.03-0.32-0.08c-0.09-0.04-0.16-0.1-0.22-0.17c-0.07-0.07-0.11-0.17-0.14-0.29
		c-0.03-0.12-0.04-0.35-0.04-0.7c0-0.34,0.01-0.58,0.04-0.7c0.02-0.12,0.07-0.21,0.14-0.29c0.06-0.07,0.13-0.13,0.22-0.18
		c0.09-0.05,0.2-0.07,0.32-0.07c0.17,0,0.31,0.05,0.43,0.15c0.11,0.1,0.19,0.22,0.23,0.36h0.56c-0.06-0.29-0.19-0.54-0.4-0.73
		c-0.21-0.2-0.49-0.3-0.82-0.3c-0.27,0-0.5,0.07-0.69,0.2c-0.19,0.13-0.32,0.27-0.41,0.43c-0.05,0.08-0.09,0.2-0.12,0.33
		c-0.02,0.14-0.04,0.41-0.04,0.81c0,0.4,0.01,0.67,0.04,0.81C65.97,110.74,65.98,110.8,66,110.85z"/>
	<polygon class="st0" points="71.96,108.11 71.96,111.6 74.19,111.6 74.19,111.1 72.49,111.1 72.49,108.11 	"/>
	<rect x="77.62" y="108.11" class="st0" width="0.53" height="3.49"/>
	<polygon class="st0" points="81.83,108.11 81.83,111.6 82.35,111.6 82.35,109.12 82.36,109.12 83.94,111.6 84.44,111.6 
		84.44,108.11 83.91,108.11 83.91,110.59 83.9,110.59 82.32,108.11 	"/>
	<polygon class="st0" points="90.34,108.61 90.34,108.11 88.11,108.11 88.11,111.6 90.34,111.6 90.34,111.1 88.64,111.1 
		88.64,110.08 90.09,110.08 90.09,109.61 88.64,109.61 88.64,108.61 	"/>
	<path class="st0" d="M97.92,108.71c-0.05,0.08-0.09,0.2-0.12,0.33c-0.02,0.14-0.04,0.41-0.04,0.81c0,0.4,0.01,0.67,0.04,0.81
		c0.01,0.07,0.03,0.14,0.05,0.19c0.02,0.05,0.04,0.1,0.07,0.15c0.08,0.16,0.22,0.3,0.41,0.43c0.18,0.13,0.41,0.19,0.69,0.2
		c0.36-0.01,0.65-0.13,0.88-0.36c0.23-0.24,0.35-0.53,0.36-0.88v-0.71h-1.24v0.5h0.71v0.18c0,0.22-0.07,0.39-0.21,0.53
		c-0.13,0.14-0.3,0.21-0.51,0.21c-0.12,0-0.23-0.03-0.32-0.08c-0.09-0.04-0.16-0.1-0.22-0.17c-0.07-0.07-0.11-0.17-0.14-0.29
		c-0.03-0.12-0.04-0.35-0.04-0.7c0-0.34,0.01-0.58,0.04-0.7c0.02-0.12,0.07-0.21,0.14-0.29c0.06-0.07,0.13-0.13,0.22-0.18
		c0.09-0.05,0.2-0.07,0.32-0.07c0.17,0,0.31,0.05,0.43,0.15c0.11,0.1,0.19,0.22,0.23,0.36h0.56c-0.06-0.29-0.19-0.54-0.4-0.73
		c-0.21-0.2-0.49-0.3-0.82-0.3c-0.27,0-0.5,0.07-0.69,0.2C98.14,108.41,98.01,108.55,97.92,108.71z"/>
	<path class="st0" d="M103.85,108.71c-0.05,0.08-0.09,0.2-0.12,0.33c-0.02,0.14-0.04,0.41-0.04,0.81c0,0.4,0.01,0.67,0.04,0.81
		c0.01,0.07,0.03,0.14,0.05,0.19c0.02,0.05,0.04,0.1,0.07,0.15c0.08,0.16,0.22,0.3,0.41,0.43c0.18,0.13,0.41,0.19,0.69,0.2
		c0.28-0.01,0.51-0.07,0.69-0.2c0.18-0.12,0.32-0.26,0.4-0.43c0.06-0.08,0.1-0.2,0.12-0.34c0.02-0.14,0.03-0.41,0.03-0.81
		c0-0.4-0.01-0.68-0.03-0.81c-0.02-0.14-0.06-0.25-0.12-0.33c-0.08-0.16-0.21-0.3-0.4-0.43c-0.19-0.13-0.42-0.19-0.69-0.2
		c-0.27,0-0.5,0.07-0.69,0.2C104.07,108.41,103.93,108.55,103.85,108.71z M104.26,109.16c0.02-0.12,0.07-0.21,0.14-0.29
		c0.06-0.07,0.13-0.13,0.22-0.18c0.09-0.05,0.2-0.07,0.32-0.07c0.13,0,0.24,0.03,0.33,0.07c0.09,0.05,0.16,0.11,0.21,0.18
		c0.07,0.07,0.12,0.17,0.14,0.29c0.02,0.12,0.04,0.36,0.04,0.7c0,0.34-0.01,0.57-0.04,0.7c-0.03,0.12-0.07,0.22-0.14,0.29
		c-0.05,0.07-0.12,0.13-0.21,0.17c-0.09,0.05-0.2,0.08-0.33,0.08c-0.12,0-0.23-0.03-0.32-0.08c-0.09-0.04-0.16-0.1-0.22-0.17
		c-0.07-0.07-0.11-0.17-0.14-0.29c-0.03-0.12-0.04-0.35-0.04-0.7C104.22,109.51,104.24,109.28,104.26,109.16z"/>
	<polygon class="st0" points="109.74,111.6 111.96,111.6 111.96,111.1 110.27,111.1 110.27,110.08 111.72,110.08 111.72,109.61 
		110.27,109.61 110.27,108.61 111.96,108.61 111.96,108.11 109.74,108.11 	"/>
	<path class="st0" d="M116.43,111.1c-0.38,0-0.71-0.12-0.99-0.35l-0.35,0.4c0.37,0.32,0.82,0.48,1.33,0.48
		c0.8-0.01,1.21-0.35,1.22-1.01c0-0.25-0.08-0.46-0.23-0.65c-0.16-0.19-0.4-0.31-0.72-0.35c-0.17-0.02-0.3-0.04-0.39-0.05
		c-0.17-0.03-0.3-0.09-0.38-0.17c-0.08-0.08-0.12-0.17-0.12-0.27c0-0.17,0.06-0.29,0.17-0.38c0.11-0.08,0.24-0.12,0.41-0.12
		c0.31,0.01,0.6,0.1,0.86,0.27l0.29-0.44c-0.32-0.23-0.7-0.35-1.13-0.36c-0.36,0-0.64,0.1-0.83,0.28c-0.2,0.19-0.3,0.43-0.3,0.74
		c0,0.25,0.08,0.47,0.24,0.65c0.16,0.17,0.38,0.28,0.68,0.33c0.17,0.02,0.32,0.05,0.46,0.06c0.31,0.05,0.46,0.21,0.45,0.47
		C117.12,110.93,116.89,111.09,116.43,111.1z"/>
	<polygon class="st0" points="125.26,108.11 125.26,111.6 125.79,111.6 125.79,110.08 127.17,110.08 127.17,111.6 127.7,111.6 
		127.7,108.11 127.17,108.11 127.17,109.61 125.79,109.61 125.79,108.11 	"/>
	<polygon class="st0" points="133.6,111.1 131.9,111.1 131.9,110.08 133.35,110.08 133.35,109.61 131.9,109.61 131.9,108.61 
		133.6,108.61 133.6,108.11 131.37,108.11 131.37,111.6 133.6,111.6 	"/>
	<path class="st0" d="M137.56,110.11h0.67l0.72,1.49h0.63l-0.81-1.55c0.44-0.17,0.67-0.49,0.67-0.97c-0.01-0.32-0.13-0.57-0.35-0.74
		c-0.18-0.15-0.42-0.23-0.71-0.23h-1.36v3.49h0.53V110.11z M137.56,108.58h0.83c0.17,0,0.3,0.04,0.39,0.11
		c0.11,0.08,0.17,0.21,0.17,0.39c0,0.15-0.05,0.28-0.15,0.38c-0.1,0.11-0.25,0.17-0.44,0.17h-0.8V108.58z"/>
	<polygon class="st0" points="145.19,108.61 145.19,108.11 142.96,108.11 142.96,111.6 145.19,111.6 145.19,111.1 143.49,111.1 
		143.49,110.08 144.94,110.08 144.94,109.61 143.49,109.61 143.49,108.61 	"/>
	<path class="st0" d="M114.84,49.07v11.67H85.36c-0.77,0-1.52-0.07-2.25-0.21c-0.1-0.02-0.21-0.05-0.31-0.07
		c-1.64-0.36-3.16-1.06-4.48-2.01c-2.99-2.18-4.93-5.7-4.93-9.67V8.37c5.92,3.37,9.72,9.73,9.72,16.7v19.12
		c0,3.77,3.07,6.84,6.84,6.84h20.1C111.91,51.03,113.6,50.28,114.84,49.07z"/>
	<path class="st0" d="M126.61,8.37v22.56c-2.09-3.09-5.37-5.36-9.25-6.09c-0.15-0.03-0.31-0.06-0.47-0.08
		C117.01,17.91,120.78,11.69,126.61,8.37z"/>
	<path class="st0" d="M126.61,39.05v40.4c-5.92-3.37-9.72-9.73-9.72-16.7V43.64c0-3.77-3.07-6.84-6.84-6.84h-20.1
		c-1.86,0-3.55,0.75-4.78,1.96V27.08h29.48c0.77,0,1.52,0.07,2.25,0.21C122.42,28.35,126.61,33.22,126.61,39.05z"/>
	<path class="st0" d="M83.1,63.07c-0.11,6.85-3.88,13.06-9.72,16.38V56.89c0.93,1.37,2.09,2.59,3.46,3.58
		c1.63,1.19,3.45,2.01,5.41,2.44l0.07,0.02c0.1,0.02,0.21,0.04,0.31,0.06C82.79,63.02,82.95,63.05,83.1,63.07z"/>
</g>
</svg>
