<?xml version="1.0" encoding="utf-8"?>
<!-- Generator: Adobe Illustrator 27.1.0, SVG Export Plug-In . SVG Version: 6.00 Build 0)  -->
<svg version="1.1" id="Layer_1" xmlns="http://www.w3.org/2000/svg" xmlns:xlink="http://www.w3.org/1999/xlink" x="0px" y="0px"
	 viewBox="0 0 200 120" style="enable-background:new 0 0 200 120;" xml:space="preserve">
<style type="text/css">
	.st0{fill:#FFFFFF;}
	.st1{fill:#FFFFFF;}
	.st2{fill:#FFFFFF;}
	.st3{fill:#FFFFFF;}
	.st4{font-family:'SuperSunday';}
	.st5{font-size:29.7153px;}
</style>
<g>
	<g>
		<path class="st2" d="M56.82,26.51c3.75,0,6.8,5.71,6.8,10.55c0,4.84-3.04,8.76-6.8,8.76c-3.75,0-6.8-3.92-6.8-8.76
			C50.02,32.22,53.06,26.51,56.82,26.51z"/>
		<path class="st2" d="M37.51,26.51c3.75,0,6.8,5.71,6.8,10.55c0,4.84-3.04,8.76-6.8,8.76c-3.75,0-6.8-3.92-6.8-8.76
			C30.71,32.22,33.75,26.51,37.51,26.51z"/>
		<path class="st2" d="M17.16,52.02c-1.59-3.99-0.9-9.73,2.29-11c3.18-1.27,7.64,2.41,9.24,6.4c1.59,3.99,0.31,8.26-2.87,9.53
			C22.62,58.22,18.75,56.01,17.16,52.02z"/>
		<path class="st2" d="M77.17,52.02c-1.59,3.99-5.47,6.2-8.65,4.92c-3.18-1.27-4.47-5.54-2.87-9.53c1.59-3.99,6.05-7.67,9.24-6.4
			C78.06,42.29,78.76,48.03,77.17,52.02z"/>
		<path class="st2" d="M71.48,74.06c-0.73-3.27-2.47-6.22-4.39-8.95c-4.5-6.4-11.71-12.86-19.92-12.86
			c-8.18,0-15.42,6.46-19.92,12.86c-1.92,2.73-3.66,5.68-4.39,8.95c-0.73,3.27-0.33,6.92,1.69,9.58c2.02,2.66,5.86,3.98,8.86,2.54
			c1.78-0.85,3.23-2.58,5.19-2.74c1.81-0.15,3.4,1.06,4.91,2.08c1.09,0.73,2.4,1.4,3.66,1.41c1.26-0.01,2.57-0.68,3.66-1.41
			c1.51-1.02,3.1-2.23,4.91-2.08c1.97,0.17,3.41,1.89,5.19,2.74c3,1.44,6.83,0.11,8.86-2.54C71.81,80.99,72.2,77.33,71.48,74.06z
			 M54.31,70.13c-0.93,1.69-2.39,3.18-3.62,4.34c-0.66,0.62-1.36,1.21-2.09,1.75c0,0,0,0,0,0c-0.85,0.63-2.02,0.63-2.88,0
			c0,0,0,0,0,0c-0.73-0.54-1.42-1.12-2.09-1.75c-1.23-1.16-2.7-2.65-3.62-4.34c-0.77-1.4-1.16-2.93-0.77-4.53
			c0.38-1.53,1.59-2.88,3.07-3.07c1.72-0.22,3.71,0.99,4.85,2.38c1.13-1.39,3.13-2.59,4.85-2.38c1.48,0.19,2.69,1.54,3.07,3.07
			C55.48,67.19,55.08,68.73,54.31,70.13z"/>
	</g>
	<text transform="matrix(1 0 0 1 92.6925 54.8404)"><tspan x="0" y="0" class="st3 st4 st5">furry</tspan><tspan x="0" y="30.68" class="st3 st4 st5">family</tspan></text>
</g>
</svg>
